M48
; DRILL file KiCad 10.0.5 date 2026-08-11T17:35:01
; FORMAT={-:-/ absolute / metric / decimal}
; #@! TF.CreationDate,2026-08-11T17:35:01+02:00
; #@! TF.GenerationSoftware,Kicad,Pcbnew,10.0.5
; #@! TF.FileFunction,Plated,1,6,PTH
FMAT,2
METRIC
; #@! TA.AperFunction,Plated,PTH,ViaDrill
T1C0.200
; #@! TA.AperFunction,Plated,PTH,ComponentDrill
T2C0.400
; #@! TA.AperFunction,Plated,PTH,ComponentDrill
T3C1.000
%
G90
G05
T1
X100.52Y-100.39
X100.6Y-103.45
X100.6Y-104.3
X100.637Y-105.284
X100.95Y-100.95
X101.135Y-104.9
X101.315Y-106.286
X101.359Y-108.383
X101.38Y-101.27
X101.435Y-102.343
X101.6Y-107.9
X101.67Y-100.37
X101.78Y-105.75
X101.895Y-102.9
X102.09Y-100.2
X102.21Y-101.58
X102.5Y-107.95
X102.95Y-106.15
X103.0Y-102.5
X103.28Y-106.642
X103.5Y-100.08
X103.832Y-103.046
X103.85Y-106.85
X103.886Y-103.834
X103.977Y-100.395
X104.42Y-100.76
X104.5Y-106.9
X104.59Y-102.79
X104.6Y-104.3
X104.6Y-105.3
X104.675Y-101.24
X104.717Y-105.827
X105.05Y-108.95
X105.1Y-103.4
X105.11Y-107.38
X105.215Y-102.302
X105.45Y-99.93
X105.49Y-101.25
X105.8Y-102.35
X105.88Y-106.0
X105.91Y-100.84
X106.07Y-102.95
X106.15Y-103.35
X106.55Y-102.8
X106.74Y-104.385
X106.801Y-100.813
X107.15Y-103.55
X107.55Y-107.45
X107.55Y-108.95
X107.64Y-104.9
X107.65Y-106.6
X107.75Y-102.95
X108.25Y-107.7
X108.33Y-106.452
X108.35Y-103.45
X109.425Y-102.279
X109.551Y-102.804
X109.57Y-104.2
X109.575Y-101.74
X109.575Y-104.93
T2
X100.684Y-109.8
X100.684Y-112.2
X101.684Y-109.8
X101.684Y-112.2
X103.224Y-109.8
X103.224Y-112.2
X104.224Y-109.8
X104.224Y-112.2
X105.77Y-109.8
X105.77Y-112.2
X106.77Y-109.8
X106.77Y-112.2
X108.31Y-109.8
X108.31Y-112.2
X109.31Y-109.8
X109.31Y-112.2
T3
X101.184Y-111.0
X103.724Y-111.0
X106.27Y-111.0
X108.81Y-111.0
M30
