%TF.GenerationSoftware,KiCad,Pcbnew,10.0.5*%
%TF.CreationDate,2026-08-11T17:34:59+02:00*%
%TF.ProjectId,OpenRX-Lite-UFL,4f70656e-5258-42d4-9c69-74652d55464c,rev?*%
%TF.SameCoordinates,Original*%
%TF.FileFunction,Legend,Top*%
%TF.FilePolarity,Positive*%
%FSLAX46Y46*%
G04 Gerber Fmt 4.6, Leading zero omitted, Abs format (unit mm)*
G04 Created by KiCad (PCBNEW 10.0.5) date 2026-08-11 17:34:59*
%MOMM*%
%LPD*%
G01*
G04 APERTURE LIST*
%ADD10C,0.150000*%
%ADD11C,0.200000*%
%ADD12C,0.250000*%
%ADD13C,0.100000*%
%ADD14C,0.060000*%
%ADD15C,0.120000*%
G04 APERTURE END LIST*
D10*
X107200000Y-107150000D02*
X109000000Y-107150000D01*
X109000000Y-107150000D02*
X109000000Y-107400000D01*
D11*
G36*
X101039091Y-107564826D02*
G01*
X101072162Y-107578380D01*
X101102166Y-107601367D01*
X101125577Y-107630927D01*
X101139433Y-107664044D01*
X101144176Y-107701934D01*
X101144176Y-107994110D01*
X101139414Y-108031073D01*
X101125409Y-108063782D01*
X101101555Y-108093394D01*
X101081405Y-108110919D01*
X101179713Y-108545000D01*
X101007583Y-108545000D01*
X100914343Y-108134672D01*
X100897979Y-108134672D01*
X100897979Y-108545000D01*
X100730245Y-108545000D01*
X100730245Y-107966816D01*
X100897979Y-107966816D01*
X100955681Y-107966816D01*
X100969908Y-107960465D01*
X100976442Y-107945200D01*
X100976442Y-107748279D01*
X100969969Y-107733808D01*
X100955681Y-107728068D01*
X100897979Y-107728068D01*
X100897979Y-107966816D01*
X100730245Y-107966816D01*
X100730245Y-107560212D01*
X101001843Y-107560212D01*
X101039091Y-107564826D01*
G37*
G36*
X101647316Y-107911189D02*
G01*
X101642514Y-107949036D01*
X101628471Y-107982129D01*
X101604695Y-108011695D01*
X101565494Y-108050774D01*
X101604695Y-108090158D01*
X101628455Y-108119922D01*
X101642507Y-108153278D01*
X101647316Y-108191458D01*
X101647316Y-108545000D01*
X101479582Y-108545000D01*
X101479582Y-108150975D01*
X101474453Y-108139740D01*
X101463096Y-108134672D01*
X101417605Y-108134672D01*
X101405515Y-108139740D01*
X101401119Y-108151036D01*
X101401119Y-108545000D01*
X101233385Y-108545000D01*
X101233385Y-108191458D01*
X101238051Y-108153218D01*
X101251653Y-108119854D01*
X101274540Y-108090158D01*
X101313802Y-108050774D01*
X101274540Y-108011695D01*
X101251638Y-107982198D01*
X101238045Y-107949096D01*
X101233385Y-107911189D01*
X101233385Y-107560212D01*
X101401119Y-107560212D01*
X101401119Y-107949291D01*
X101405515Y-107961870D01*
X101417605Y-107966816D01*
X101463096Y-107966816D01*
X101474514Y-107961870D01*
X101479582Y-107949291D01*
X101479582Y-107560212D01*
X101647316Y-107560212D01*
X101647316Y-107911189D01*
G37*
G36*
X103273175Y-107560212D02*
G01*
X103687411Y-107560212D01*
X103687411Y-107728068D01*
X103562359Y-107728068D01*
X103562359Y-108545000D01*
X103394625Y-108545000D01*
X103394625Y-107728068D01*
X103273175Y-107728068D01*
X103273175Y-107560212D01*
G37*
G36*
X104137490Y-107911189D02*
G01*
X104132688Y-107949036D01*
X104118645Y-107982129D01*
X104094869Y-108011695D01*
X104055668Y-108050774D01*
X104094869Y-108090158D01*
X104118629Y-108119922D01*
X104132681Y-108153278D01*
X104137490Y-108191458D01*
X104137490Y-108545000D01*
X103969756Y-108545000D01*
X103969756Y-108150975D01*
X103964627Y-108139740D01*
X103953270Y-108134672D01*
X103907779Y-108134672D01*
X103895689Y-108139740D01*
X103891293Y-108151036D01*
X103891293Y-108545000D01*
X103723559Y-108545000D01*
X103723559Y-108191458D01*
X103728225Y-108153218D01*
X103741827Y-108119854D01*
X103764714Y-108090158D01*
X103803976Y-108050774D01*
X103764714Y-108011695D01*
X103741812Y-107982198D01*
X103728218Y-107949096D01*
X103723559Y-107911189D01*
X103723559Y-107560212D01*
X103891293Y-107560212D01*
X103891293Y-107949291D01*
X103895689Y-107961870D01*
X103907779Y-107966816D01*
X103953270Y-107966816D01*
X103964688Y-107961870D01*
X103969756Y-107949291D01*
X103969756Y-107560212D01*
X104137490Y-107560212D01*
X104137490Y-107911189D01*
G37*
G36*
X105539018Y-108545000D02*
G01*
X105500870Y-108540323D01*
X105467589Y-108526685D01*
X105437962Y-108503722D01*
X105415001Y-108474057D01*
X105401362Y-108440735D01*
X105396685Y-108402545D01*
X105396685Y-108213806D01*
X105564419Y-108213806D01*
X105564419Y-108353757D01*
X105570891Y-108370732D01*
X105588049Y-108377144D01*
X105619251Y-108377144D01*
X105635677Y-108370671D01*
X105641045Y-108363289D01*
X105642882Y-108353757D01*
X105642882Y-108158058D01*
X105635738Y-108141877D01*
X105619496Y-108134672D01*
X105396685Y-108134672D01*
X105396685Y-107560212D01*
X105810616Y-107560212D01*
X105810616Y-107728068D01*
X105564419Y-107728068D01*
X105564419Y-107966816D01*
X105667978Y-107966816D01*
X105705294Y-107971453D01*
X105738446Y-107985084D01*
X105768545Y-108008215D01*
X105792056Y-108037947D01*
X105805901Y-108070860D01*
X105810616Y-108108110D01*
X105810616Y-108402301D01*
X105805868Y-108440483D01*
X105792004Y-108473844D01*
X105768606Y-108503600D01*
X105738547Y-108526736D01*
X105705456Y-108540364D01*
X105668222Y-108545000D01*
X105539018Y-108545000D01*
G37*
G36*
X106147976Y-107560212D02*
G01*
X106315710Y-107560212D01*
X106315710Y-108289399D01*
X106310932Y-108340901D01*
X106296965Y-108387568D01*
X106273805Y-108430426D01*
X106240727Y-108470200D01*
X106200907Y-108503184D01*
X106157983Y-108526290D01*
X106111229Y-108540230D01*
X106059621Y-108545000D01*
X105901779Y-108545000D01*
X105901779Y-107560212D01*
X106069513Y-107560212D01*
X106069513Y-108377144D01*
X106098706Y-108371424D01*
X106124407Y-108353941D01*
X106142096Y-108328251D01*
X106147976Y-108297826D01*
X106147976Y-107560212D01*
G37*
G36*
X107204650Y-107888902D02*
G01*
X107036916Y-107888902D01*
X107036916Y-107749684D01*
X107030383Y-107734480D01*
X107014751Y-107728068D01*
X106980679Y-107728068D01*
X106964987Y-107734541D01*
X106958453Y-107749928D01*
X106958453Y-108355162D01*
X106964987Y-108370732D01*
X106980679Y-108377144D01*
X107014751Y-108377144D01*
X107030383Y-108370732D01*
X107036916Y-108355162D01*
X107036916Y-108134672D01*
X106995761Y-108134672D01*
X106995761Y-107966816D01*
X107204650Y-107966816D01*
X107204650Y-108402301D01*
X107199902Y-108440483D01*
X107186038Y-108473844D01*
X107162640Y-108503600D01*
X107132581Y-108526736D01*
X107099490Y-108540364D01*
X107062256Y-108545000D01*
X106933052Y-108545000D01*
X106894939Y-108540331D01*
X106861655Y-108526715D01*
X106831996Y-108503784D01*
X106809030Y-108474197D01*
X106795394Y-108440976D01*
X106790719Y-108402911D01*
X106790719Y-107702301D01*
X106795394Y-107664236D01*
X106809030Y-107631015D01*
X106831996Y-107601428D01*
X106861655Y-107578497D01*
X106894939Y-107564880D01*
X106933052Y-107560212D01*
X107062256Y-107560212D01*
X107099514Y-107564813D01*
X107132607Y-107578329D01*
X107162640Y-107601245D01*
X107186053Y-107630727D01*
X107199908Y-107663763D01*
X107204650Y-107701568D01*
X107204650Y-107888902D01*
G37*
G36*
X107541033Y-107560212D02*
G01*
X107708767Y-107560212D01*
X107708767Y-108545000D01*
X107541400Y-108545000D01*
X107460616Y-108129665D01*
X107462570Y-108545000D01*
X107294836Y-108545000D01*
X107294836Y-107560212D01*
X107462204Y-107560212D01*
X107542987Y-107979760D01*
X107541033Y-107560212D01*
G37*
G36*
X108109750Y-107564832D02*
G01*
X108142820Y-107578405D01*
X108172828Y-107601428D01*
X108196234Y-107631067D01*
X108210093Y-107664285D01*
X108214838Y-107702301D01*
X108214838Y-108402911D01*
X108210093Y-108440926D01*
X108196234Y-108474145D01*
X108172828Y-108503784D01*
X108142820Y-108526807D01*
X108109750Y-108540380D01*
X108072506Y-108545000D01*
X107800908Y-108545000D01*
X107800908Y-108377144D01*
X107968641Y-108377144D01*
X108026344Y-108377144D01*
X108040632Y-108371404D01*
X108047104Y-108356688D01*
X108047104Y-107748524D01*
X108040632Y-107733869D01*
X108026344Y-107728068D01*
X107968641Y-107728068D01*
X107968641Y-108377144D01*
X107800908Y-108377144D01*
X107800908Y-107560212D01*
X108072506Y-107560212D01*
X108109750Y-107564832D01*
G37*
D12*
G36*
X105506617Y-106349820D02*
G01*
X105539688Y-106363356D01*
X105569688Y-106386306D01*
X105593100Y-106415827D01*
X105606956Y-106448904D01*
X105611698Y-106486751D01*
X105611698Y-106696189D01*
X105606896Y-106734036D01*
X105592852Y-106767129D01*
X105569077Y-106796695D01*
X105529876Y-106835774D01*
X105569077Y-106875158D01*
X105592836Y-106904922D01*
X105606889Y-106938278D01*
X105611698Y-106976458D01*
X105611698Y-107187362D01*
X105606950Y-107225545D01*
X105593086Y-107258905D01*
X105569688Y-107288661D01*
X105539671Y-107311758D01*
X105506601Y-107325369D01*
X105469365Y-107330000D01*
X105197767Y-107330000D01*
X105197767Y-107162144D01*
X105365501Y-107162144D01*
X105421799Y-107162144D01*
X105437430Y-107155732D01*
X105443964Y-107141566D01*
X105443964Y-106941653D01*
X105437430Y-106926144D01*
X105421738Y-106919672D01*
X105365501Y-106919672D01*
X105365501Y-107162144D01*
X105197767Y-107162144D01*
X105197767Y-106751816D01*
X105365501Y-106751816D01*
X105421799Y-106751816D01*
X105437430Y-106745465D01*
X105443964Y-106730200D01*
X105443964Y-106533279D01*
X105437491Y-106518808D01*
X105421738Y-106513068D01*
X105365501Y-106513068D01*
X105365501Y-106751816D01*
X105197767Y-106751816D01*
X105197767Y-106345212D01*
X105469365Y-106345212D01*
X105506617Y-106349820D01*
G37*
G36*
X105996990Y-106349830D02*
G01*
X106030081Y-106363403D01*
X106060127Y-106386428D01*
X106083533Y-106416067D01*
X106097392Y-106449285D01*
X106102137Y-106487301D01*
X106102137Y-107187911D01*
X106097392Y-107225926D01*
X106083533Y-107259145D01*
X106060127Y-107288784D01*
X106030081Y-107311809D01*
X105996990Y-107325381D01*
X105959744Y-107330000D01*
X105830539Y-107330000D01*
X105792426Y-107325331D01*
X105759142Y-107311715D01*
X105729484Y-107288784D01*
X105706517Y-107259197D01*
X105692882Y-107225976D01*
X105688207Y-107187911D01*
X105688207Y-106533524D01*
X105855940Y-106533524D01*
X105855940Y-107141688D01*
X105861741Y-107156465D01*
X105876701Y-107162144D01*
X105912238Y-107162144D01*
X105927931Y-107156404D01*
X105934403Y-107141688D01*
X105934403Y-106533524D01*
X105927931Y-106518869D01*
X105912177Y-106513068D01*
X105876701Y-106513068D01*
X105861741Y-106518808D01*
X105855940Y-106533524D01*
X105688207Y-106533524D01*
X105688207Y-106487301D01*
X105692882Y-106449236D01*
X105706517Y-106416015D01*
X105729484Y-106386428D01*
X105759142Y-106363497D01*
X105792426Y-106349880D01*
X105830539Y-106345212D01*
X105959744Y-106345212D01*
X105996990Y-106349830D01*
G37*
G36*
X106495245Y-106349830D02*
G01*
X106528337Y-106363403D01*
X106558383Y-106386428D01*
X106581788Y-106416067D01*
X106595648Y-106449285D01*
X106600393Y-106487301D01*
X106600393Y-107187911D01*
X106595648Y-107225926D01*
X106581788Y-107259145D01*
X106558383Y-107288784D01*
X106528337Y-107311809D01*
X106495245Y-107325381D01*
X106457999Y-107330000D01*
X106328795Y-107330000D01*
X106290682Y-107325331D01*
X106257398Y-107311715D01*
X106227739Y-107288784D01*
X106204773Y-107259197D01*
X106191137Y-107225976D01*
X106186462Y-107187911D01*
X106186462Y-106533524D01*
X106354196Y-106533524D01*
X106354196Y-107141688D01*
X106359997Y-107156465D01*
X106374956Y-107162144D01*
X106410494Y-107162144D01*
X106426186Y-107156404D01*
X106432659Y-107141688D01*
X106432659Y-106533524D01*
X106426186Y-106518869D01*
X106410433Y-106513068D01*
X106374956Y-106513068D01*
X106359997Y-106518808D01*
X106354196Y-106533524D01*
X106186462Y-106533524D01*
X106186462Y-106487301D01*
X106191137Y-106449236D01*
X106204773Y-106416015D01*
X106227739Y-106386428D01*
X106257398Y-106363497D01*
X106290682Y-106349880D01*
X106328795Y-106345212D01*
X106457999Y-106345212D01*
X106495245Y-106349830D01*
G37*
G36*
X106645639Y-106345212D02*
G01*
X107059874Y-106345212D01*
X107059874Y-106513068D01*
X106934822Y-106513068D01*
X106934822Y-107330000D01*
X106767088Y-107330000D01*
X106767088Y-106513068D01*
X106645639Y-106513068D01*
X106645639Y-106345212D01*
G37*
%TO.C,FL1*%
D13*
X102640000Y-101520000D02*
X103020000Y-101520000D01*
X102640000Y-102280000D02*
X103020000Y-102280000D01*
X103780000Y-101520000D02*
X104160000Y-101520000D01*
X103780000Y-102280000D02*
X104160000Y-102280000D01*
D12*
X102320000Y-101900000D02*
G75*
G02*
X102200000Y-101900000I-60000J0D01*
G01*
X102200000Y-101900000D02*
G75*
G02*
X102320000Y-101900000I60000J0D01*
G01*
D14*
X102930000Y-101650000D02*
G75*
G02*
X102870000Y-101650000I-30000J0D01*
G01*
X102870000Y-101650000D02*
G75*
G02*
X102930000Y-101650000I30000J0D01*
G01*
%TO.C,D1*%
D13*
X102300000Y-99650000D02*
G75*
G02*
X102200000Y-99650000I-50000J0D01*
G01*
X102200000Y-99650000D02*
G75*
G02*
X102300000Y-99650000I50000J0D01*
G01*
%TO.C,C16*%
D15*
X101240000Y-100442164D02*
X101240000Y-100657836D01*
X101960000Y-100442164D02*
X101960000Y-100657836D01*
%TO.C,U3*%
D11*
X100450000Y-102910000D02*
X100850000Y-102910000D01*
X100450000Y-103310000D02*
X100450000Y-102910000D01*
X100450000Y-107210000D02*
X100450000Y-106810000D01*
X100850000Y-107210000D02*
X100450000Y-107210000D01*
X104350000Y-102910000D02*
X104750000Y-102910000D01*
X104350000Y-107210000D02*
X104750000Y-107210000D01*
X104750000Y-102910000D02*
X104750000Y-103310000D01*
X104750000Y-107210000D02*
X104750000Y-106810000D01*
%TO.C,C11*%
D15*
X105832164Y-103430000D02*
X106047836Y-103430000D01*
X105832164Y-104150000D02*
X106047836Y-104150000D01*
%TO.C,X1*%
D10*
X109300000Y-105350000D02*
X108600000Y-105350000D01*
X109300000Y-106000000D02*
X109300000Y-105350000D01*
%TO.C,J1*%
D15*
X106740000Y-100300000D02*
X106740000Y-100940000D01*
X106740000Y-100940000D02*
X106110000Y-100940000D01*
X106740000Y-103100000D02*
X106740000Y-102460000D01*
X109460000Y-100350000D02*
X109460000Y-103050000D01*
%TO.C,C8*%
X100290000Y-100442164D02*
X100290000Y-100657836D01*
X101010000Y-100442164D02*
X101010000Y-100657836D01*
%TD*%
M02*
