%TF.GenerationSoftware,KiCad,Pcbnew,10.0.5*%
%TF.CreationDate,2026-08-11T17:34:58+02:00*%
%TF.ProjectId,OpenRX-Lite-UFL,4f70656e-5258-42d4-9c69-74652d55464c,rev?*%
%TF.SameCoordinates,Original*%
%TF.FileFunction,Copper,L1,Top*%
%TF.FilePolarity,Positive*%
%FSLAX46Y46*%
G04 Gerber Fmt 4.6, Leading zero omitted, Abs format (unit mm)*
G04 Created by KiCad (PCBNEW 10.0.5) date 2026-08-11 17:34:58*
%MOMM*%
%LPD*%
G01*
G04 APERTURE LIST*
G04 Aperture macros list*
%AMRoundRect*
0 Rectangle with rounded corners*
0 $1 Rounding radius*
0 $2 $3 $4 $5 $6 $7 $8 $9 X,Y pos of 4 corners*
0 Add a 4 corners polygon primitive as box body*
4,1,4,$2,$3,$4,$5,$6,$7,$8,$9,$2,$3,0*
0 Add four circle primitives for the rounded corners*
1,1,$1+$1,$2,$3*
1,1,$1+$1,$4,$5*
1,1,$1+$1,$6,$7*
1,1,$1+$1,$8,$9*
0 Add four rect primitives between the rounded corners*
20,1,$1+$1,$2,$3,$4,$5,0*
20,1,$1+$1,$4,$5,$6,$7,0*
20,1,$1+$1,$6,$7,$8,$9,0*
20,1,$1+$1,$8,$9,$2,$3,0*%
G04 Aperture macros list end*
%TA.AperFunction,ComponentPad*%
%ADD10C,0.600000*%
%TD*%
%TA.AperFunction,ComponentPad*%
%ADD11RoundRect,0.475000X-0.475000X-1.775000X0.475000X-1.775000X0.475000X1.775000X-0.475000X1.775000X0*%
%TD*%
%TA.AperFunction,SMDPad,CuDef*%
%ADD12RoundRect,0.100000X-0.130000X-0.100000X0.130000X-0.100000X0.130000X0.100000X-0.130000X0.100000X0*%
%TD*%
%TA.AperFunction,SMDPad,CuDef*%
%ADD13RoundRect,0.100000X0.100000X-0.130000X0.100000X0.130000X-0.100000X0.130000X-0.100000X-0.130000X0*%
%TD*%
%TA.AperFunction,SMDPad,CuDef*%
%ADD14R,0.450000X0.500000*%
%TD*%
%TA.AperFunction,SMDPad,CuDef*%
%ADD15R,0.300000X0.300000*%
%TD*%
%TA.AperFunction,SMDPad,CuDef*%
%ADD16RoundRect,0.100000X-0.100000X0.130000X-0.100000X-0.130000X0.100000X-0.130000X0.100000X0.130000X0*%
%TD*%
%TA.AperFunction,SMDPad,CuDef*%
%ADD17RoundRect,0.100000X0.130000X0.100000X-0.130000X0.100000X-0.130000X-0.100000X0.130000X-0.100000X0*%
%TD*%
%TA.AperFunction,SMDPad,CuDef*%
%ADD18R,0.450000X0.450000*%
%TD*%
%TA.AperFunction,SMDPad,CuDef*%
%ADD19RoundRect,0.250000X-0.350000X-0.250000X0.350000X-0.250000X0.350000X0.250000X-0.350000X0.250000X0*%
%TD*%
%TA.AperFunction,SMDPad,CuDef*%
%ADD20RoundRect,0.140000X-0.170000X0.140000X-0.170000X-0.140000X0.170000X-0.140000X0.170000X0.140000X0*%
%TD*%
%TA.AperFunction,SMDPad,CuDef*%
%ADD21O,0.800000X0.280000*%
%TD*%
%TA.AperFunction,SMDPad,CuDef*%
%ADD22O,0.280000X0.800000*%
%TD*%
%TA.AperFunction,SMDPad,CuDef*%
%ADD23RoundRect,0.400000X-0.750000X-0.750000X0.750000X-0.750000X0.750000X0.750000X-0.750000X0.750000X0*%
%TD*%
%TA.AperFunction,SMDPad,CuDef*%
%ADD24RoundRect,0.140000X-0.140000X-0.170000X0.140000X-0.170000X0.140000X0.170000X-0.140000X0.170000X0*%
%TD*%
%TA.AperFunction,SMDPad,CuDef*%
%ADD25R,0.730000X0.600000*%
%TD*%
%TA.AperFunction,SMDPad,CuDef*%
%ADD26RoundRect,0.250000X-0.275000X-0.250000X0.275000X-0.250000X0.275000X0.250000X-0.275000X0.250000X0*%
%TD*%
%TA.AperFunction,SMDPad,CuDef*%
%ADD27RoundRect,0.250000X-0.850000X-0.275000X0.850000X-0.275000X0.850000X0.275000X-0.850000X0.275000X0*%
%TD*%
%TA.AperFunction,ViaPad*%
%ADD28C,0.450000*%
%TD*%
%TA.AperFunction,ViaPad*%
%ADD29C,0.300000*%
%TD*%
%TA.AperFunction,Conductor*%
%ADD30C,0.200000*%
%TD*%
%TA.AperFunction,Conductor*%
%ADD31C,0.300000*%
%TD*%
%TA.AperFunction,Conductor*%
%ADD32C,0.090000*%
%TD*%
%TA.AperFunction,Conductor*%
%ADD33C,0.127000*%
%TD*%
G04 APERTURE END LIST*
D10*
%TO.P,TP3,1*%
%TO.N,N/C*%
X105770000Y-109800000D03*
X105770000Y-112200000D03*
D11*
%TO.P,TP3,1,1_1*%
%TO.N,+5V*%
X106270000Y-111000000D03*
D10*
%TO.P,TP3,1*%
%TO.N,N/C*%
X106770000Y-109800000D03*
X106770000Y-112200000D03*
%TD*%
D12*
%TO.P,C6,1*%
%TO.N,+3V3*%
X105430000Y-102950000D03*
%TO.P,C6,2*%
%TO.N,GND*%
X106070000Y-102950000D03*
%TD*%
D13*
%TO.P,L1,1,1_1*%
%TO.N,Net-(C1-Pad1)*%
X109600000Y-105570000D03*
%TO.P,L1,2,2_2*%
%TO.N,/ESP32-C3 + SX1281 Core (UFL)/XTAL_P*%
X109600000Y-104930000D03*
%TD*%
D10*
%TO.P,TP4,1*%
%TO.N,N/C*%
X108310000Y-109800000D03*
X108310000Y-112200000D03*
D11*
%TO.P,TP4,1,1_1*%
%TO.N,GND*%
X108810000Y-111000000D03*
D10*
%TO.P,TP4,1*%
%TO.N,N/C*%
X109310000Y-109800000D03*
X109310000Y-112200000D03*
%TD*%
D14*
%TO.P,FL1,1,IN_1*%
%TO.N,Net-(FL1-IN)*%
X102820000Y-101900000D03*
D15*
%TO.P,FL1,2,GND_2*%
%TO.N,GND*%
X103400000Y-102200000D03*
D14*
%TO.P,FL1,3,OUT_3*%
%TO.N,Net-(FL1-OUT)*%
X103980000Y-101900000D03*
D15*
%TO.P,FL1,4,GND_4*%
%TO.N,GND*%
X103400000Y-101600000D03*
%TD*%
D16*
%TO.P,C1,1*%
%TO.N,Net-(C1-Pad1)*%
X109600000Y-106330000D03*
%TO.P,C1,2*%
%TO.N,GND*%
X109600000Y-106970000D03*
%TD*%
D17*
%TO.P,C4,1*%
%TO.N,+3V3*%
X108870000Y-104900000D03*
%TO.P,C4,2*%
%TO.N,GND*%
X108230000Y-104900000D03*
%TD*%
D10*
%TO.P,TP2,1*%
%TO.N,N/C*%
X103224048Y-109800000D03*
X103224048Y-112200000D03*
D11*
%TO.P,TP2,1,1_1*%
%TO.N,Net-(U1-U0TXD)*%
X103724048Y-111000000D03*
D10*
%TO.P,TP2,1*%
%TO.N,N/C*%
X104224048Y-109800000D03*
X104224048Y-112200000D03*
%TD*%
D17*
%TO.P,L3,1,1_1*%
%TO.N,Net-(C25-Pad1)*%
X106070000Y-104600000D03*
%TO.P,L3,2,2_2*%
%TO.N,+3V3*%
X105430000Y-104600000D03*
%TD*%
D18*
%TO.P,D1,1,DOUT_1*%
%TO.N,unconnected-(D1-DOUT-Pad1)*%
X102630000Y-100030000D03*
%TO.P,D1,2,VDD_2*%
%TO.N,+3V3*%
X103470000Y-100030000D03*
%TO.P,D1,3,GND_3*%
%TO.N,GND*%
X102630000Y-100870000D03*
%TO.P,D1,4,DIN_4*%
%TO.N,/ESP32-C3 + SX1281 Core (UFL)/LED*%
X103470000Y-100870000D03*
%TD*%
D19*
%TO.P,TP5,1,1_1*%
%TO.N,/ESP32-C3 + SX1281 Core (UFL)/BOOT*%
X109160000Y-108050000D03*
%TD*%
D17*
%TO.P,C24,1*%
%TO.N,+3V3*%
X109570000Y-104200000D03*
%TO.P,C24,2*%
%TO.N,GND*%
X108930000Y-104200000D03*
%TD*%
%TO.P,R2,1*%
%TO.N,+3V3*%
X101620000Y-101900000D03*
%TO.P,R2,2*%
%TO.N,/ESP32-C3 + SX1281 Core (UFL)/RST*%
X100980000Y-101900000D03*
%TD*%
D20*
%TO.P,C16,1*%
%TO.N,+3V3*%
X101600000Y-100070000D03*
%TO.P,C16,2*%
%TO.N,GND*%
X101600000Y-101030000D03*
%TD*%
D10*
%TO.P,TP1,1*%
%TO.N,N/C*%
X100684048Y-109800000D03*
X100684048Y-112200000D03*
D11*
%TO.P,TP1,1,1_1*%
%TO.N,Net-(U1-U0RXD)*%
X101184048Y-111000000D03*
D10*
%TO.P,TP1,1*%
%TO.N,N/C*%
X101684048Y-109800000D03*
X101684048Y-112200000D03*
%TD*%
D16*
%TO.P,C23,1*%
%TO.N,+3V3*%
X105450000Y-99930000D03*
%TO.P,C23,2*%
%TO.N,GND*%
X105450000Y-100570000D03*
%TD*%
D21*
%TO.P,U3,1,VR_PA_1*%
%TO.N,Net-(U3-VR_PA)*%
X100600000Y-103800000D03*
%TO.P,U3,2,VDD_IN_2*%
%TO.N,Net-(U3-DCC_FB)*%
X100600000Y-104300000D03*
%TO.P,U3,3,NRESET_3*%
%TO.N,/ESP32-C3 + SX1281 Core (UFL)/RST*%
X100600000Y-104800000D03*
%TO.P,U3,4,XTA_4*%
%TO.N,Net-(U3-XTA)*%
X100600000Y-105300000D03*
%TO.P,U3,5,GND_5*%
%TO.N,unconnected-(U3-GND-Pad5)*%
X100600000Y-105800000D03*
%TO.P,U3,6,XTB_6*%
%TO.N,unconnected-(U3-XTB-Pad6)*%
X100600000Y-106300000D03*
D22*
%TO.P,U3,7,BUSY_7*%
%TO.N,/ESP32-C3 + SX1281 Core (UFL)/BUSY*%
X101350000Y-107050000D03*
%TO.P,U3,8,DIO1_8*%
%TO.N,/ESP32-C3 + SX1281 Core (UFL)/DIO1*%
X101850000Y-107050000D03*
%TO.P,U3,9,DIO2_9*%
%TO.N,unconnected-(U3-DIO2-Pad9)*%
X102350000Y-107050000D03*
%TO.P,U3,10,DIO3_10*%
%TO.N,unconnected-(U3-DIO3-Pad10)*%
X102850000Y-107050000D03*
%TO.P,U3,11,VBAT_IO_11*%
%TO.N,+3V3*%
X103350000Y-107050000D03*
%TO.P,U3,12,DCC_FB_12*%
%TO.N,Net-(U3-DCC_FB)*%
X103850000Y-107050000D03*
D21*
%TO.P,U3,13,GND_13*%
%TO.N,GND*%
X104600000Y-106300000D03*
%TO.P,U3,14,DCC_SW_14*%
%TO.N,Net-(U3-DCC_SW)*%
X104600000Y-105800000D03*
%TO.P,U3,15,VBAT_15*%
%TO.N,+3V3*%
X104600000Y-105300000D03*
%TO.P,U3,16,MISO_TX_16*%
%TO.N,/ESP32-C3 + SX1281 Core (UFL)/MISO*%
X104600000Y-104800000D03*
%TO.P,U3,17,MOSI_RX_17*%
%TO.N,/ESP32-C3 + SX1281 Core (UFL)/MOSI*%
X104600000Y-104300000D03*
%TO.P,U3,18,SCK_RTSN_18*%
%TO.N,/ESP32-C3 + SX1281 Core (UFL)/SCK*%
X104600000Y-103810000D03*
D22*
%TO.P,U3,19,NSS_CTS_19*%
%TO.N,/ESP32-C3 + SX1281 Core (UFL)/NSS*%
X103850000Y-103050000D03*
%TO.P,U3,20,GND_20*%
%TO.N,GND*%
X103350000Y-103050000D03*
%TO.P,U3,21,GND_21*%
X102850000Y-103050000D03*
%TO.P,U3,22,RFIO_22*%
%TO.N,Net-(FL1-IN)*%
X102350000Y-103050000D03*
%TO.P,U3,23,GND_23*%
%TO.N,GND*%
X101850000Y-103050000D03*
%TO.P,U3,24,GND_24*%
X101350000Y-103050000D03*
D23*
%TO.P,U3,25,EP_25*%
X102600000Y-105060000D03*
%TD*%
D12*
%TO.P,C9,1*%
%TO.N,+3V3*%
X105430000Y-105300000D03*
%TO.P,C9,2*%
%TO.N,GND*%
X106070000Y-105300000D03*
%TD*%
D16*
%TO.P,C5,1*%
%TO.N,+3V3*%
X104750000Y-99930000D03*
%TO.P,C5,2*%
%TO.N,GND*%
X104750000Y-100570000D03*
%TD*%
D24*
%TO.P,C11,1*%
%TO.N,+3V3*%
X105460000Y-103790000D03*
%TO.P,C11,2*%
%TO.N,GND*%
X106420000Y-103790000D03*
%TD*%
D25*
%TO.P,X1,1,1_1*%
%TO.N,Net-(C1-Pad1)*%
X108750000Y-105800000D03*
%TO.P,X1,2,GND_2*%
%TO.N,GND*%
X107650000Y-105800000D03*
%TO.P,X1,3,3_3*%
%TO.N,/ESP32-C3 + SX1281 Core (UFL)/XTAL_N*%
X107650000Y-106600000D03*
%TO.P,X1,4,GND_4*%
%TO.N,GND*%
X108750000Y-106600000D03*
%TD*%
D13*
%TO.P,C3,1*%
%TO.N,/ESP32-C3 + SX1281 Core (UFL)/XTAL_N*%
X106800000Y-105870000D03*
%TO.P,C3,2*%
%TO.N,GND*%
X106800000Y-105230000D03*
%TD*%
%TO.P,C25,1*%
%TO.N,Net-(C25-Pad1)*%
X107500000Y-104870000D03*
%TO.P,C25,2*%
%TO.N,GND*%
X107500000Y-104230000D03*
%TD*%
D26*
%TO.P,J1,1,In_1*%
%TO.N,Net-(FL1-OUT)*%
X106575000Y-101700000D03*
D27*
%TO.P,J1,2,Ext_2*%
%TO.N,GND*%
X108100000Y-100225000D03*
X108100000Y-103175000D03*
%TD*%
D20*
%TO.P,C8,1*%
%TO.N,+5V*%
X100650000Y-100070000D03*
%TO.P,C8,2*%
%TO.N,GND*%
X100650000Y-101030000D03*
%TD*%
D28*
%TO.N,+5V*%
X100520000Y-100390000D03*
%TO.N,+3V3*%
X105450000Y-99930000D03*
X104600000Y-105300000D03*
X105100000Y-103400000D03*
X101435136Y-102343035D03*
X107550000Y-107450000D03*
X103280406Y-106642432D03*
X105050000Y-108950000D03*
X109570000Y-104200000D03*
X103500000Y-100080000D03*
X102089998Y-100200000D03*
X101670000Y-100370000D03*
%TO.N,GND*%
X105910000Y-100840000D03*
X107750000Y-102950000D03*
X105880000Y-106000000D03*
X103000000Y-102500000D03*
X101895000Y-102900000D03*
D29*
X102210000Y-101580000D03*
D28*
X105215000Y-102301616D03*
X107550000Y-108950000D03*
X108350000Y-103450000D03*
X104420000Y-100760000D03*
X108329999Y-106452117D03*
X107150000Y-103550000D03*
X101358504Y-108382993D03*
X100950000Y-100950000D03*
X108250000Y-107700000D03*
X106150000Y-103350000D03*
X105490000Y-101250000D03*
X102500000Y-107950000D03*
X101780000Y-105750000D03*
X106800713Y-100813364D03*
X106550000Y-102800000D03*
X105800000Y-102350000D03*
X106070000Y-102950000D03*
X102950000Y-106150000D03*
X101380000Y-101270000D03*
%TO.N,/ESP32-C3 + SX1281 Core (UFL)/XTAL_P*%
X109575000Y-104930000D03*
%TO.N,Net-(U1-U0TXD)*%
X109425000Y-102279142D03*
%TO.N,Net-(C25-Pad1)*%
X107640000Y-104900481D03*
%TO.N,/ESP32-C3 + SX1281 Core (UFL)/LED*%
X103977178Y-100395000D03*
%TO.N,/ESP32-C3 + SX1281 Core (UFL)/BOOT*%
X101600000Y-107900000D03*
X104675000Y-101240000D03*
%TO.N,/ESP32-C3 + SX1281 Core (UFL)/RST*%
X104500000Y-106900000D03*
X101135000Y-104900000D03*
%TO.N,Net-(U1-U0RXD)*%
X109575000Y-101740000D03*
%TO.N,Net-(U3-VR_PA)*%
X100600000Y-103450000D03*
%TO.N,Net-(U3-DCC_FB)*%
X103850000Y-106850000D03*
X100600000Y-104300000D03*
%TO.N,Net-(U3-XTA)*%
X100637032Y-105284182D03*
%TO.N,/ESP32-C3 + SX1281 Core (UFL)/BUSY*%
X101314783Y-106285945D03*
%TO.N,/ESP32-C3 + SX1281 Core (UFL)/DIO1*%
X106740000Y-104385000D03*
X105110000Y-107380000D03*
%TO.N,Net-(U3-DCC_SW)*%
X104717143Y-105827143D03*
%TO.N,/ESP32-C3 + SX1281 Core (UFL)/MISO*%
X103885659Y-103834497D03*
%TO.N,/ESP32-C3 + SX1281 Core (UFL)/MOSI*%
X104600000Y-104300000D03*
%TO.N,/ESP32-C3 + SX1281 Core (UFL)/SCK*%
X104590000Y-102790000D03*
%TO.N,/ESP32-C3 + SX1281 Core (UFL)/NSS*%
X103831806Y-103046067D03*
%TO.N,/ESP32-C3 + SX1281 Core (UFL)/XTAL_N*%
X109551016Y-102804235D03*
X107650000Y-106600000D03*
%TD*%
%TO.N,+5V*%
D30*
X100650000Y-100260000D02*
X100520000Y-100390000D01*
X100650000Y-100070000D02*
X100650000Y-100260000D01*
%TO.N,+3V3*%
X108872894Y-104900000D02*
X108870000Y-104900000D01*
D31*
X101600000Y-100300000D02*
X101670000Y-100370000D01*
D32*
X101620000Y-101900000D02*
X101620000Y-101940000D01*
D30*
X103470000Y-100050000D02*
X103500000Y-100080000D01*
X105430000Y-103070000D02*
X105100000Y-103400000D01*
X103280406Y-106642432D02*
X103342432Y-106642432D01*
D32*
X101580000Y-101980000D02*
X101580000Y-102198171D01*
D30*
X105100000Y-103400000D02*
X105170000Y-103400000D01*
D31*
X101600000Y-100070000D02*
X101600000Y-100300000D01*
D30*
X105560000Y-103790000D02*
X105560000Y-104470000D01*
D32*
X101580000Y-102198171D02*
X101435136Y-102343035D01*
D30*
X103342432Y-106642432D02*
X103350000Y-106650000D01*
X105430000Y-102950000D02*
X105430000Y-103070000D01*
X105560000Y-104470000D02*
X105430000Y-104600000D01*
X109570000Y-104200000D02*
X109570000Y-104202894D01*
X109570000Y-104202894D02*
X108872894Y-104900000D01*
X105430000Y-105300000D02*
X104600000Y-105300000D01*
X105170000Y-103400000D02*
X105560000Y-103790000D01*
X103470000Y-100030000D02*
X103470000Y-100050000D01*
X105430000Y-105300000D02*
X105430000Y-104600000D01*
D31*
X104750000Y-99930000D02*
X105450000Y-99930000D01*
D32*
X101620000Y-101940000D02*
X101580000Y-101980000D01*
D30*
X103350000Y-106650000D02*
X103350000Y-107050000D01*
%TO.N,GND*%
D32*
X108500000Y-106600000D02*
X108750000Y-106600000D01*
X108329999Y-106452117D02*
X108350000Y-106432116D01*
D31*
X103350000Y-103050000D02*
X103350000Y-104310000D01*
D30*
X108465001Y-104465001D02*
X108730001Y-104200000D01*
X107500000Y-103600000D02*
X107500000Y-104230000D01*
D31*
X101030000Y-101030000D02*
X100950000Y-100950000D01*
X103366806Y-103033194D02*
X103366806Y-102233194D01*
X101850000Y-104310000D02*
X102600000Y-105060000D01*
X101600000Y-101050000D02*
X101600000Y-101030000D01*
X100650000Y-101030000D02*
X100870000Y-101030000D01*
D30*
X107900000Y-103900000D02*
X108465001Y-104465001D01*
D32*
X108350000Y-106365000D02*
X107785000Y-105800000D01*
D30*
X107750000Y-102950000D02*
X107800000Y-103000000D01*
D31*
X102850000Y-104810000D02*
X102600000Y-105060000D01*
X101600000Y-101030000D02*
X101030000Y-101030000D01*
X102850000Y-102750000D02*
X103400000Y-102200000D01*
D30*
X107800000Y-103000000D02*
X107800000Y-103300000D01*
X108230000Y-104700001D02*
X108465001Y-104465001D01*
X108730001Y-104200000D02*
X108930000Y-104200000D01*
D32*
X107080000Y-105230000D02*
X106800000Y-105230000D01*
X106800713Y-100813364D02*
X107389077Y-100225000D01*
D31*
X103350000Y-103050000D02*
X103366806Y-103033194D01*
D32*
X108350000Y-106432116D02*
X108350000Y-106365000D01*
D30*
X107750000Y-102950000D02*
X107750000Y-103000000D01*
X108230000Y-104900000D02*
X108230000Y-104700001D01*
X107750000Y-103000000D02*
X107900000Y-103150000D01*
D32*
X108352117Y-106452117D02*
X108500000Y-106600000D01*
X107389077Y-100225000D02*
X108100000Y-100225000D01*
D31*
X103366806Y-102233194D02*
X103400000Y-102200000D01*
D32*
X107785000Y-105800000D02*
X107650000Y-105800000D01*
D31*
X101380000Y-101270000D02*
X101600000Y-101050000D01*
X102850000Y-103050000D02*
X102850000Y-104810000D01*
D32*
X109120000Y-106970000D02*
X108750000Y-106600000D01*
D31*
X102850000Y-103050000D02*
X102850000Y-102750000D01*
D30*
X107800000Y-103300000D02*
X107500000Y-103600000D01*
D31*
X101350000Y-103050000D02*
X101350000Y-103400000D01*
X101850000Y-103900000D02*
X101850000Y-104310000D01*
X101850000Y-103050000D02*
X101850000Y-103900000D01*
D32*
X109600000Y-106970000D02*
X109120000Y-106970000D01*
X107650000Y-105800000D02*
X107080000Y-105230000D01*
D31*
X103840000Y-106300000D02*
X102600000Y-105060000D01*
D32*
X108329999Y-106452117D02*
X108352117Y-106452117D01*
D31*
X103350000Y-104310000D02*
X102600000Y-105060000D01*
X104600000Y-106300000D02*
X103840000Y-106300000D01*
X101350000Y-103400000D02*
X101850000Y-103900000D01*
X100870000Y-101030000D02*
X100950000Y-100950000D01*
D30*
X107900000Y-103150000D02*
X107900000Y-103900000D01*
%TO.N,Net-(C1-Pad1)*%
D32*
X108980000Y-105570000D02*
X108750000Y-105800000D01*
X109600000Y-105570000D02*
X108980000Y-105570000D01*
X109600000Y-106330000D02*
X109070000Y-105800000D01*
X109070000Y-105800000D02*
X108750000Y-105800000D01*
%TO.N,/ESP32-C3 + SX1281 Core (UFL)/XTAL_P*%
X109575000Y-104930000D02*
X109600000Y-104930000D01*
%TO.N,Net-(FL1-IN)*%
D33*
X102820000Y-101900000D02*
X102685223Y-101900000D01*
X102350000Y-102370000D02*
X102350000Y-102235223D01*
X102350000Y-102850000D02*
X102350000Y-102370000D01*
X102350000Y-102235223D02*
G75*
G02*
X102685223Y-101900000I335200J23D01*
G01*
%TO.N,Net-(FL1-OUT)*%
X103980000Y-101900000D02*
X106575000Y-101700000D01*
X106475000Y-101900000D02*
G75*
G03*
X106675000Y-101700000I0J200000D01*
G01*
%TO.N,Net-(C25-Pad1)*%
D30*
X107600481Y-104900481D02*
X107570000Y-104870000D01*
X106270000Y-104800000D02*
X107430000Y-104800000D01*
X107640000Y-104900481D02*
X107600481Y-104900481D01*
X107430000Y-104800000D02*
X107500000Y-104870000D01*
X106070000Y-104600000D02*
X106270000Y-104800000D01*
X107570000Y-104870000D02*
X107500000Y-104870000D01*
%TO.N,/ESP32-C3 + SX1281 Core (UFL)/LED*%
D32*
X103930000Y-100410000D02*
X103470000Y-100870000D01*
X103977178Y-100395000D02*
X103962178Y-100410000D01*
X103962178Y-100410000D02*
X103930000Y-100410000D01*
%TO.N,/ESP32-C3 + SX1281 Core (UFL)/BOOT*%
X105100000Y-108350000D02*
X105390000Y-108060000D01*
X101600000Y-107900000D02*
X102050000Y-108350000D01*
X105390000Y-108060000D02*
X109150000Y-108060000D01*
X109150000Y-108060000D02*
X109160000Y-108050000D01*
X102050000Y-108350000D02*
X105100000Y-108350000D01*
%TO.N,/ESP32-C3 + SX1281 Core (UFL)/RST*%
X101135000Y-104813788D02*
X101121212Y-104800000D01*
X101135000Y-104900000D02*
X101135000Y-104813788D01*
X101135000Y-103686091D02*
X100980000Y-103531091D01*
X101121212Y-104800000D02*
X100600000Y-104800000D01*
X101135000Y-104900000D02*
X101135000Y-103686091D01*
X100980000Y-103531091D02*
X100980000Y-101900000D01*
%TO.N,Net-(U3-VR_PA)*%
D30*
X100600000Y-103450000D02*
X100600000Y-103800000D01*
%TO.N,Net-(U3-XTA)*%
D32*
X100637032Y-105284182D02*
X100621214Y-105300000D01*
X100621214Y-105300000D02*
X100600000Y-105300000D01*
%TO.N,/ESP32-C3 + SX1281 Core (UFL)/BUSY*%
X101314783Y-106285945D02*
X101350000Y-106321162D01*
X101350000Y-106321162D02*
X101350000Y-106850000D01*
%TO.N,/ESP32-C3 + SX1281 Core (UFL)/DIO1*%
X102185546Y-107585000D02*
X104905000Y-107585000D01*
X101850000Y-107050000D02*
X101850000Y-107249454D01*
X101850000Y-107050000D02*
X101850000Y-106850000D01*
X101850000Y-107249454D02*
X102185546Y-107585000D01*
X104905000Y-107585000D02*
X105110000Y-107380000D01*
%TO.N,/ESP32-C3 + SX1281 Core (UFL)/MISO*%
X103900000Y-103848838D02*
X103900000Y-104248909D01*
X104451091Y-104800000D02*
X104600000Y-104800000D01*
X103885659Y-103834497D02*
X103900000Y-103848838D01*
X103900000Y-104248909D02*
X104451091Y-104800000D01*
%TO.N,/ESP32-C3 + SX1281 Core (UFL)/SCK*%
X104600000Y-102900000D02*
X104590000Y-102890000D01*
X104590000Y-102890000D02*
X104590000Y-102790000D01*
X104600000Y-103810000D02*
X104600000Y-102900000D01*
%TO.N,/ESP32-C3 + SX1281 Core (UFL)/NSS*%
X103831806Y-102868194D02*
X103850000Y-102850000D01*
X103831806Y-103046067D02*
X103831806Y-102868194D01*
%TO.N,/ESP32-C3 + SX1281 Core (UFL)/XTAL_N*%
X107650000Y-106600000D02*
X107530000Y-106600000D01*
X107530000Y-106600000D02*
X106800000Y-105870000D01*
%TD*%
%TA.AperFunction,Conductor*%
%TO.N,Net-(FL1-OUT)*%
G36*
X104219657Y-101655112D02*
G01*
X104533983Y-101821520D01*
X104555397Y-101847294D01*
X104556461Y-101850702D01*
X104553431Y-101884242D01*
X104541052Y-101898870D01*
X104286099Y-102092272D01*
X104226989Y-102137113D01*
X104221792Y-102141055D01*
X104195200Y-102150000D01*
X103931599Y-102150000D01*
X103900486Y-102137113D01*
X103887599Y-102106000D01*
X103888152Y-102099048D01*
X103920181Y-101898870D01*
X103954072Y-101687047D01*
X103971713Y-101658363D01*
X103997519Y-101650000D01*
X104199071Y-101650000D01*
X104219657Y-101655112D01*
G37*
%TD.AperFunction*%
%TD*%
%TA.AperFunction,Conductor*%
%TO.N,Net-(FL1-OUT)*%
G36*
X106258115Y-101303088D02*
G01*
X106271234Y-101322171D01*
X106469266Y-101889264D01*
X106467357Y-101922886D01*
X106453746Y-101939252D01*
X106335072Y-102026280D01*
X106324089Y-102032149D01*
X106129700Y-102102836D01*
X106096056Y-102101357D01*
X106092025Y-102099215D01*
X105627958Y-101820774D01*
X105607910Y-101793716D01*
X105607038Y-101789268D01*
X105603415Y-101763908D01*
X105611772Y-101731288D01*
X105618329Y-101724288D01*
X106084472Y-101324737D01*
X106096759Y-101317296D01*
X106133886Y-101302445D01*
X106146562Y-101299453D01*
X106226042Y-101292829D01*
X106258115Y-101303088D01*
G37*
%TD.AperFunction*%
%TD*%
%TA.AperFunction,Conductor*%
%TO.N,Net-(FL1-IN)*%
G36*
X102740627Y-101662887D02*
G01*
X102753362Y-101690346D01*
X102778020Y-101986248D01*
X102767761Y-102018324D01*
X102761185Y-102024633D01*
X102601275Y-102149008D01*
X102598669Y-102150887D01*
X102422718Y-102268187D01*
X102389682Y-102274723D01*
X102361701Y-102255984D01*
X102354431Y-102234829D01*
X102341017Y-102053733D01*
X102346996Y-102028136D01*
X102557233Y-101671649D01*
X102584138Y-101651396D01*
X102595133Y-101650000D01*
X102709514Y-101650000D01*
X102740627Y-101662887D01*
G37*
%TD.AperFunction*%
%TD*%
%TA.AperFunction,Conductor*%
%TO.N,GND*%
G36*
X101231892Y-99703849D02*
G01*
X101237909Y-99706341D01*
X101261723Y-99730152D01*
X101263176Y-99759772D01*
X101262286Y-99762704D01*
X101256768Y-99774368D01*
X101212875Y-99840059D01*
X101212874Y-99840062D01*
X101212874Y-99840063D01*
X101199500Y-99907297D01*
X101199500Y-99907298D01*
X101199500Y-99907300D01*
X101199500Y-100232701D01*
X101199782Y-100234439D01*
X101200039Y-100235410D01*
X101205708Y-100263909D01*
X101212874Y-100299937D01*
X101263819Y-100376181D01*
X101330370Y-100420649D01*
X101338028Y-100425766D01*
X101344693Y-100431236D01*
X101356959Y-100443500D01*
X101368349Y-100463225D01*
X101376000Y-100491777D01*
X101376003Y-100491782D01*
X101389697Y-100515500D01*
X101417538Y-100563721D01*
X101476279Y-100622462D01*
X101548222Y-100663999D01*
X101628464Y-100685500D01*
X101628466Y-100685500D01*
X101711534Y-100685500D01*
X101711536Y-100685500D01*
X101791778Y-100663999D01*
X101863721Y-100622462D01*
X101922462Y-100563721D01*
X101942199Y-100529534D01*
X101953512Y-100516633D01*
X101961441Y-100510549D01*
X101988224Y-100501459D01*
X101990267Y-100501459D01*
X102001655Y-100502958D01*
X102048462Y-100515500D01*
X102048465Y-100515500D01*
X102131532Y-100515500D01*
X102131534Y-100515500D01*
X102211776Y-100493999D01*
X102283719Y-100452462D01*
X102342460Y-100393721D01*
X102353225Y-100375074D01*
X102364538Y-100362172D01*
X102374418Y-100354591D01*
X102401199Y-100345499D01*
X102863912Y-100345499D01*
X102890311Y-100340249D01*
X102920247Y-100320247D01*
X102940249Y-100290311D01*
X102945500Y-100263913D01*
X102945499Y-99796088D01*
X102940249Y-99769689D01*
X102940248Y-99769687D01*
X102939744Y-99767153D01*
X102938730Y-99763813D01*
X102936773Y-99753969D01*
X102943345Y-99720942D01*
X102967159Y-99703283D01*
X102970096Y-99702392D01*
X102982863Y-99700500D01*
X103114911Y-99700500D01*
X103131747Y-99703849D01*
X103137764Y-99706341D01*
X103161578Y-99730152D01*
X103163032Y-99759769D01*
X103161393Y-99765170D01*
X103159946Y-99769216D01*
X103159750Y-99769689D01*
X103159653Y-99770177D01*
X103158607Y-99774353D01*
X103157743Y-99777200D01*
X103157939Y-99778798D01*
X103154500Y-99796088D01*
X103154500Y-100263910D01*
X103154501Y-100263915D01*
X103158905Y-100286060D01*
X103159190Y-100288959D01*
X103160309Y-100291660D01*
X103162156Y-100293911D01*
X103179753Y-100320247D01*
X103209689Y-100340249D01*
X103236087Y-100345500D01*
X103311277Y-100345499D01*
X103322658Y-100346996D01*
X103333475Y-100349894D01*
X103344080Y-100354286D01*
X103378222Y-100373999D01*
X103458464Y-100395500D01*
X103458466Y-100395500D01*
X103541536Y-100395500D01*
X103541538Y-100395500D01*
X103582445Y-100384538D01*
X103597838Y-100380413D01*
X103603637Y-100381176D01*
X103614968Y-100379290D01*
X103621610Y-100380165D01*
X103629185Y-100384538D01*
X103631226Y-100384807D01*
X103632478Y-100386439D01*
X103650771Y-100397001D01*
X103652587Y-100399367D01*
X103661678Y-100426150D01*
X103661678Y-100436535D01*
X103661851Y-100437180D01*
X103663438Y-100443105D01*
X103664560Y-100460231D01*
X103662935Y-100472577D01*
X103650424Y-100497948D01*
X103612948Y-100535424D01*
X103602617Y-100542326D01*
X103601400Y-100543722D01*
X103600429Y-100543788D01*
X103598674Y-100544961D01*
X103583733Y-100551150D01*
X103566894Y-100554500D01*
X103236088Y-100554500D01*
X103236083Y-100554501D01*
X103213939Y-100558905D01*
X103211767Y-100559118D01*
X103209691Y-100559748D01*
X103179756Y-100579750D01*
X103179748Y-100579758D01*
X103159749Y-100609690D01*
X103159119Y-100611767D01*
X103158906Y-100613936D01*
X103155381Y-100631661D01*
X103154500Y-100636088D01*
X103154500Y-101103910D01*
X103154501Y-101103915D01*
X103158905Y-101126060D01*
X103159190Y-101128959D01*
X103160309Y-101131660D01*
X103162156Y-101133911D01*
X103179753Y-101160247D01*
X103209689Y-101180249D01*
X103236087Y-101185500D01*
X103703912Y-101185499D01*
X103730311Y-101180249D01*
X103760247Y-101160247D01*
X103780249Y-101130311D01*
X103785500Y-101103913D01*
X103785499Y-100773100D01*
X103788848Y-100756264D01*
X103795035Y-100741326D01*
X103804570Y-100727053D01*
X103821178Y-100710445D01*
X103835447Y-100700912D01*
X103846948Y-100696147D01*
X103875174Y-100694297D01*
X103882082Y-100696148D01*
X103935642Y-100710500D01*
X103935644Y-100710500D01*
X104018712Y-100710500D01*
X104018714Y-100710500D01*
X104098956Y-100688999D01*
X104170899Y-100647462D01*
X104229640Y-100588721D01*
X104271177Y-100516778D01*
X104292678Y-100436536D01*
X104292678Y-100353464D01*
X104271177Y-100273222D01*
X104229640Y-100201279D01*
X104170899Y-100142538D01*
X104170898Y-100142537D01*
X104170897Y-100142536D01*
X104098962Y-100101004D01*
X104098954Y-100101000D01*
X104098954Y-100100999D01*
X104083469Y-100096851D01*
X104083468Y-100096851D01*
X104018714Y-100079500D01*
X104018712Y-100079500D01*
X103935643Y-100079500D01*
X103935642Y-100079500D01*
X103923716Y-100082695D01*
X103879341Y-100094585D01*
X103862208Y-100095707D01*
X103855565Y-100094832D01*
X103826402Y-100077992D01*
X103826399Y-100077988D01*
X103824588Y-100075627D01*
X103815500Y-100048848D01*
X103815500Y-100038465D01*
X103815500Y-100038464D01*
X103793999Y-99958222D01*
X103793995Y-99958215D01*
X103792894Y-99955556D01*
X103792964Y-99955526D01*
X103789893Y-99948112D01*
X103786997Y-99937299D01*
X103785499Y-99925916D01*
X103785499Y-99796092D01*
X103785499Y-99796090D01*
X103785499Y-99796088D01*
X103780249Y-99769689D01*
X103780248Y-99769687D01*
X103779744Y-99767153D01*
X103778730Y-99763813D01*
X103776773Y-99753969D01*
X103783345Y-99720942D01*
X103807159Y-99703283D01*
X103810096Y-99702392D01*
X103822863Y-99700500D01*
X104413193Y-99700500D01*
X104430028Y-99703848D01*
X104436217Y-99706411D01*
X104460031Y-99730222D01*
X104460032Y-99730223D01*
X104461419Y-99733571D01*
X104463924Y-99758993D01*
X104459500Y-99781237D01*
X104459500Y-100073337D01*
X104459499Y-100073345D01*
X104459499Y-100078879D01*
X104459705Y-100079799D01*
X104470552Y-100134325D01*
X104470553Y-100134329D01*
X104512657Y-100197343D01*
X104575671Y-100239447D01*
X104631238Y-100250500D01*
X104631241Y-100250500D01*
X104868758Y-100250500D01*
X104868762Y-100250500D01*
X104924329Y-100239447D01*
X104987343Y-100197343D01*
X104987347Y-100197336D01*
X104999490Y-100185191D01*
X105010383Y-100177913D01*
X105034825Y-100170500D01*
X105162450Y-100170500D01*
X105179287Y-100173849D01*
X105191388Y-100178861D01*
X105211133Y-100195064D01*
X105212652Y-100197337D01*
X105212654Y-100197339D01*
X105212657Y-100197343D01*
X105275671Y-100239447D01*
X105331238Y-100250500D01*
X105331241Y-100250500D01*
X105568758Y-100250500D01*
X105568762Y-100250500D01*
X105624329Y-100239447D01*
X105687343Y-100197343D01*
X105729447Y-100134329D01*
X105740500Y-100078762D01*
X105740500Y-100073308D01*
X105741345Y-100064726D01*
X105743411Y-100054337D01*
X105744065Y-100051531D01*
X105747566Y-100038465D01*
X105765500Y-99971536D01*
X105765500Y-99888464D01*
X105744054Y-99808429D01*
X105743406Y-99805644D01*
X105741344Y-99795266D01*
X105740500Y-99786691D01*
X105740500Y-99781241D01*
X105740500Y-99781238D01*
X105736606Y-99761662D01*
X105736606Y-99744500D01*
X105737914Y-99737924D01*
X105756622Y-99709929D01*
X105759646Y-99707908D01*
X105784081Y-99700500D01*
X109544811Y-99700500D01*
X109548252Y-99700634D01*
X109551705Y-99700906D01*
X109555116Y-99701310D01*
X109557891Y-99701749D01*
X109570033Y-99703673D01*
X109570042Y-99703673D01*
X109570044Y-99703674D01*
X109616805Y-99711080D01*
X109623509Y-99712690D01*
X109630015Y-99714804D01*
X109636393Y-99717446D01*
X109687357Y-99743413D01*
X109693234Y-99747014D01*
X109698780Y-99751043D01*
X109704022Y-99755520D01*
X109744475Y-99795973D01*
X109748956Y-99801220D01*
X109752982Y-99806761D01*
X109756586Y-99812643D01*
X109782551Y-99863602D01*
X109785193Y-99869979D01*
X109787309Y-99876490D01*
X109788921Y-99883206D01*
X109798687Y-99944869D01*
X109799092Y-99948287D01*
X109799364Y-99951741D01*
X109799500Y-99955186D01*
X109799500Y-101420344D01*
X109796150Y-101437184D01*
X109793586Y-101443373D01*
X109769792Y-101467176D01*
X109769317Y-101467373D01*
X109741078Y-101469232D01*
X109739099Y-101468702D01*
X109728485Y-101464306D01*
X109696783Y-101446003D01*
X109696778Y-101446001D01*
X109696775Y-101446000D01*
X109675275Y-101440239D01*
X109616536Y-101424500D01*
X109616534Y-101424500D01*
X109533466Y-101424500D01*
X109533464Y-101424500D01*
X109486127Y-101437184D01*
X109479969Y-101438834D01*
X109453220Y-101446001D01*
X109453214Y-101446004D01*
X109383778Y-101486094D01*
X109381695Y-101487121D01*
X109322121Y-101546695D01*
X109321094Y-101548778D01*
X109286481Y-101608729D01*
X109275164Y-101621635D01*
X109271406Y-101624519D01*
X109238878Y-101633237D01*
X109209713Y-101616401D01*
X109209083Y-101615580D01*
X109200000Y-101588807D01*
X109200000Y-100750001D01*
X109200000Y-100750000D01*
X109199999Y-100750000D01*
X107110001Y-100750000D01*
X107110000Y-100750000D01*
X107110000Y-100750001D01*
X107110000Y-101117720D01*
X107106650Y-101134560D01*
X107104086Y-101140749D01*
X107080272Y-101164561D01*
X107080266Y-101164563D01*
X107078807Y-101165167D01*
X107052432Y-101167465D01*
X107052090Y-101167389D01*
X107043042Y-101164315D01*
X107028610Y-101157586D01*
X107028608Y-101157586D01*
X106939487Y-101116028D01*
X106889901Y-101109500D01*
X106260100Y-101109500D01*
X106210512Y-101116028D01*
X106101682Y-101166776D01*
X106016774Y-101251685D01*
X106016676Y-101251897D01*
X106016037Y-101252738D01*
X106014569Y-101254835D01*
X106014488Y-101254778D01*
X106005439Y-101266696D01*
X105602623Y-101611966D01*
X105577369Y-101622429D01*
X104529183Y-101703215D01*
X104505215Y-101698232D01*
X104264339Y-101570709D01*
X104242680Y-101562429D01*
X104242676Y-101562428D01*
X104242674Y-101562427D01*
X104242673Y-101562427D01*
X104235629Y-101560678D01*
X104222093Y-101557316D01*
X104222088Y-101557315D01*
X104216699Y-101556656D01*
X104199071Y-101554500D01*
X104199067Y-101554500D01*
X103997518Y-101554500D01*
X103969281Y-101558961D01*
X103962415Y-101559500D01*
X103746088Y-101559500D01*
X103746083Y-101559501D01*
X103723939Y-101563905D01*
X103721767Y-101564118D01*
X103719691Y-101564748D01*
X103689756Y-101584750D01*
X103689748Y-101584758D01*
X103669749Y-101614690D01*
X103669119Y-101616767D01*
X103668906Y-101618936D01*
X103667796Y-101624519D01*
X103664501Y-101641085D01*
X103664500Y-101641088D01*
X103664500Y-102158909D01*
X103668905Y-102181060D01*
X103669118Y-102183229D01*
X103669750Y-102185312D01*
X103673126Y-102190364D01*
X103673133Y-102190372D01*
X103673134Y-102190374D01*
X103689753Y-102215247D01*
X103719689Y-102235249D01*
X103746087Y-102240500D01*
X103902126Y-102240499D01*
X103910710Y-102241345D01*
X103931593Y-102245499D01*
X103931595Y-102245499D01*
X103931599Y-102245500D01*
X104195198Y-102245500D01*
X104195200Y-102245500D01*
X104225648Y-102240516D01*
X104252240Y-102231571D01*
X104279506Y-102217143D01*
X104284703Y-102213201D01*
X104284707Y-102213198D01*
X104343816Y-102168358D01*
X104541783Y-102018183D01*
X104564989Y-102009369D01*
X105607027Y-101929058D01*
X105633045Y-101935197D01*
X106042891Y-102181106D01*
X106047212Y-102183548D01*
X106051243Y-102185690D01*
X106051247Y-102185691D01*
X106051629Y-102185894D01*
X106062098Y-102193638D01*
X106101684Y-102233224D01*
X106210513Y-102283972D01*
X106260099Y-102290500D01*
X106889900Y-102290499D01*
X106939487Y-102283972D01*
X107039475Y-102237345D01*
X107056147Y-102233265D01*
X107062842Y-102232973D01*
X107094484Y-102244490D01*
X107094948Y-102244915D01*
X107095655Y-102245563D01*
X107108860Y-102268387D01*
X107108937Y-102268731D01*
X107110000Y-102278342D01*
X107110000Y-102650000D01*
X107110001Y-102650000D01*
X109199619Y-102650000D01*
X109216454Y-102653348D01*
X109222643Y-102655911D01*
X109246457Y-102679722D01*
X109246459Y-102679726D01*
X109247598Y-102682476D01*
X109249448Y-102710700D01*
X109240485Y-102744153D01*
X109235516Y-102762699D01*
X109235516Y-102845771D01*
X109257017Y-102926013D01*
X109298554Y-102997956D01*
X109357295Y-103056697D01*
X109429238Y-103098234D01*
X109509480Y-103119735D01*
X109509482Y-103119735D01*
X109592550Y-103119735D01*
X109592552Y-103119735D01*
X109672794Y-103098234D01*
X109725924Y-103067558D01*
X109742179Y-103062042D01*
X109743786Y-103061830D01*
X109748823Y-103061168D01*
X109781331Y-103069872D01*
X109781738Y-103070184D01*
X109797466Y-103093701D01*
X109797997Y-103095680D01*
X109799500Y-103107083D01*
X109799500Y-103863192D01*
X109796150Y-103880032D01*
X109793586Y-103886221D01*
X109769772Y-103910033D01*
X109769768Y-103910034D01*
X109766418Y-103911421D01*
X109741004Y-103913923D01*
X109732868Y-103912305D01*
X109732868Y-103912304D01*
X109718766Y-103909500D01*
X109718762Y-103909500D01*
X109718760Y-103909500D01*
X109713312Y-103909500D01*
X109704729Y-103908655D01*
X109694321Y-103906585D01*
X109691521Y-103905932D01*
X109611536Y-103884500D01*
X109611534Y-103884500D01*
X109528466Y-103884500D01*
X109528464Y-103884500D01*
X109474969Y-103898834D01*
X109474968Y-103898834D01*
X109448482Y-103905930D01*
X109445682Y-103906583D01*
X109435274Y-103908654D01*
X109426687Y-103909500D01*
X109421238Y-103909500D01*
X109379562Y-103917789D01*
X109379559Y-103917789D01*
X109365672Y-103920551D01*
X109302660Y-103962654D01*
X109302654Y-103962660D01*
X109260552Y-104025670D01*
X109260046Y-104028216D01*
X109259592Y-104030500D01*
X109249500Y-104081238D01*
X109249500Y-104081241D01*
X109249500Y-104227008D01*
X109246150Y-104243847D01*
X109239961Y-104258788D01*
X109230424Y-104273062D01*
X108913062Y-104590424D01*
X108898788Y-104599961D01*
X108883847Y-104606150D01*
X108867008Y-104609500D01*
X108721238Y-104609500D01*
X108701636Y-104613399D01*
X108682034Y-104617298D01*
X108682033Y-104617297D01*
X108665673Y-104620552D01*
X108665669Y-104620553D01*
X108602660Y-104662654D01*
X108602654Y-104662660D01*
X108560551Y-104725672D01*
X108559921Y-104727749D01*
X108559708Y-104729918D01*
X108549500Y-104781238D01*
X108549500Y-105018762D01*
X108560553Y-105074329D01*
X108602657Y-105137343D01*
X108665671Y-105179447D01*
X108721238Y-105190500D01*
X108721241Y-105190500D01*
X109018758Y-105190500D01*
X109018762Y-105190500D01*
X109074329Y-105179447D01*
X109137343Y-105137343D01*
X109179447Y-105074329D01*
X109186769Y-105037514D01*
X109193335Y-105021663D01*
X109195973Y-105017715D01*
X109223973Y-104999012D01*
X109256999Y-105005585D01*
X109257436Y-105005877D01*
X109275443Y-105031040D01*
X109280998Y-105051768D01*
X109281002Y-105051779D01*
X109281002Y-105051781D01*
X109281003Y-105051783D01*
X109291229Y-105069495D01*
X109291234Y-105069501D01*
X109310856Y-105103490D01*
X109313929Y-105109989D01*
X109316434Y-105116644D01*
X109318409Y-105123557D01*
X109319706Y-105130075D01*
X109319991Y-105132975D01*
X109320024Y-105133053D01*
X109320574Y-105134510D01*
X109321102Y-105135667D01*
X109322958Y-105137929D01*
X109362657Y-105197343D01*
X109379439Y-105208556D01*
X109391572Y-105220690D01*
X109395296Y-105226263D01*
X109401866Y-105259282D01*
X109401483Y-105261209D01*
X109382778Y-105289213D01*
X109382772Y-105289217D01*
X109362660Y-105302654D01*
X109362654Y-105302660D01*
X109320553Y-105365669D01*
X109320549Y-105365679D01*
X109315612Y-105390502D01*
X109312065Y-105395810D01*
X109309042Y-105406363D01*
X109303943Y-105413994D01*
X109280144Y-105431650D01*
X109277009Y-105432602D01*
X109264224Y-105434500D01*
X109199743Y-105434500D01*
X109186969Y-105432605D01*
X109175011Y-105428977D01*
X109163348Y-105423462D01*
X109162356Y-105422799D01*
X109160026Y-105421242D01*
X109160020Y-105421234D01*
X109160018Y-105421237D01*
X109150311Y-105414751D01*
X109123913Y-105409500D01*
X109123910Y-105409500D01*
X108376088Y-105409500D01*
X108376083Y-105409501D01*
X108353939Y-105413905D01*
X108351767Y-105414118D01*
X108349691Y-105414748D01*
X108319756Y-105434750D01*
X108319748Y-105434758D01*
X108299749Y-105464690D01*
X108299119Y-105466767D01*
X108298906Y-105468936D01*
X108294500Y-105491088D01*
X108294500Y-106108910D01*
X108294501Y-106108915D01*
X108298905Y-106131060D01*
X108299118Y-106133227D01*
X108299750Y-106135309D01*
X108299750Y-106135310D01*
X108304650Y-106142643D01*
X108319753Y-106165247D01*
X108349689Y-106185249D01*
X108376087Y-106190500D01*
X109123912Y-106190499D01*
X109150311Y-106185249D01*
X109177975Y-106166764D01*
X109180686Y-106166225D01*
X109185578Y-106162701D01*
X109195096Y-106158758D01*
X109228766Y-106158757D01*
X109234962Y-106161323D01*
X109249235Y-106170860D01*
X109290424Y-106212049D01*
X109299961Y-106226323D01*
X109306150Y-106241264D01*
X109308546Y-106253310D01*
X109309391Y-106255001D01*
X109309072Y-106255954D01*
X109309500Y-106258103D01*
X109309500Y-106478762D01*
X109320553Y-106534329D01*
X109362657Y-106597343D01*
X109425671Y-106639447D01*
X109481238Y-106650500D01*
X109481241Y-106650500D01*
X109718758Y-106650500D01*
X109718759Y-106650500D01*
X109718762Y-106650500D01*
X109738337Y-106646606D01*
X109755499Y-106646606D01*
X109762074Y-106647914D01*
X109790064Y-106666614D01*
X109792081Y-106669631D01*
X109799500Y-106694080D01*
X109799500Y-107492981D01*
X109796149Y-107509822D01*
X109794336Y-107514198D01*
X109770522Y-107538009D01*
X109736854Y-107538010D01*
X109732478Y-107536198D01*
X109718198Y-107526658D01*
X109708316Y-107516776D01*
X109676161Y-107501782D01*
X109599487Y-107466028D01*
X109549901Y-107459500D01*
X108770100Y-107459500D01*
X108720512Y-107466028D01*
X108611682Y-107516776D01*
X108526776Y-107601682D01*
X108476028Y-107710513D01*
X108469500Y-107760099D01*
X108469500Y-107871747D01*
X108466150Y-107888587D01*
X108463586Y-107894776D01*
X108439776Y-107918586D01*
X108433587Y-107921150D01*
X108416747Y-107924500D01*
X105423456Y-107924500D01*
X105423424Y-107924499D01*
X105422072Y-107924499D01*
X105416953Y-107924499D01*
X105363047Y-107924499D01*
X105363045Y-107924499D01*
X105363043Y-107924499D01*
X105363041Y-107924500D01*
X105327832Y-107939084D01*
X105327833Y-107939085D01*
X105313243Y-107945128D01*
X105313242Y-107945129D01*
X105262242Y-107996127D01*
X105262240Y-107996133D01*
X105164653Y-108093721D01*
X105062949Y-108195424D01*
X105048675Y-108204961D01*
X105033734Y-108211150D01*
X105016895Y-108214500D01*
X102133105Y-108214500D01*
X102116267Y-108211151D01*
X102101325Y-108204962D01*
X102087050Y-108195424D01*
X101922250Y-108030624D01*
X101912712Y-108016349D01*
X101908622Y-108006474D01*
X101907946Y-108004843D01*
X101906098Y-107976619D01*
X101915500Y-107941536D01*
X101915500Y-107858464D01*
X101893999Y-107778222D01*
X101852462Y-107706279D01*
X101793721Y-107647538D01*
X101793720Y-107647537D01*
X101793719Y-107647536D01*
X101721784Y-107606004D01*
X101721776Y-107606000D01*
X101721776Y-107605999D01*
X101705664Y-107601683D01*
X101705663Y-107601683D01*
X101641536Y-107584500D01*
X101641534Y-107584500D01*
X101558466Y-107584500D01*
X101558464Y-107584500D01*
X101504969Y-107598834D01*
X101478220Y-107606001D01*
X101478214Y-107606004D01*
X101408778Y-107646094D01*
X101406695Y-107647121D01*
X101347121Y-107706695D01*
X101346094Y-107708778D01*
X101306005Y-107778212D01*
X101305979Y-107778263D01*
X101305830Y-107778859D01*
X101284500Y-107858464D01*
X101284500Y-107941536D01*
X101301900Y-108006473D01*
X101306001Y-108021778D01*
X101306003Y-108021782D01*
X101333692Y-108069740D01*
X101347538Y-108093721D01*
X101406279Y-108152462D01*
X101478222Y-108193999D01*
X101558464Y-108215500D01*
X101558466Y-108215500D01*
X101641534Y-108215500D01*
X101641536Y-108215500D01*
X101673479Y-108206939D01*
X101690610Y-108205816D01*
X101702955Y-108207441D01*
X101728326Y-108219952D01*
X101935127Y-108426753D01*
X101935128Y-108426755D01*
X101973245Y-108464872D01*
X101987832Y-108470913D01*
X101993714Y-108473349D01*
X101993716Y-108473351D01*
X101993719Y-108473352D01*
X101993720Y-108473353D01*
X102011413Y-108480682D01*
X102011414Y-108480682D01*
X102023047Y-108485501D01*
X102023048Y-108485501D01*
X102082072Y-108485501D01*
X102083424Y-108485501D01*
X102083456Y-108485500D01*
X105066544Y-108485500D01*
X105066576Y-108485501D01*
X105067928Y-108485501D01*
X105073047Y-108485501D01*
X105126952Y-108485501D01*
X105126953Y-108485501D01*
X105162167Y-108470913D01*
X105176755Y-108464872D01*
X105214872Y-108426755D01*
X105214872Y-108426754D01*
X105221057Y-108420569D01*
X105221060Y-108420564D01*
X105221065Y-108420560D01*
X105224675Y-108416950D01*
X105224677Y-108416946D01*
X105427052Y-108214573D01*
X105441325Y-108205037D01*
X105450081Y-108201411D01*
X105456270Y-108198848D01*
X105473105Y-108195500D01*
X108416748Y-108195500D01*
X108433583Y-108198848D01*
X108439772Y-108201411D01*
X108463586Y-108225222D01*
X108463587Y-108225223D01*
X108466151Y-108231412D01*
X108469501Y-108248252D01*
X108469501Y-108339900D01*
X108476028Y-108389487D01*
X108526776Y-108498316D01*
X108611684Y-108583224D01*
X108720513Y-108633972D01*
X108770099Y-108640500D01*
X109549900Y-108640499D01*
X109599487Y-108633972D01*
X109708316Y-108583224D01*
X109718197Y-108573343D01*
X109732475Y-108563802D01*
X109736854Y-108561989D01*
X109770530Y-108561993D01*
X109794336Y-108585801D01*
X109796149Y-108590177D01*
X109799500Y-108607018D01*
X109799500Y-110544812D01*
X109799364Y-110548258D01*
X109799093Y-110551708D01*
X109798687Y-110555129D01*
X109788921Y-110616792D01*
X109787309Y-110623508D01*
X109785193Y-110630019D01*
X109782551Y-110636396D01*
X109756586Y-110687355D01*
X109752979Y-110693242D01*
X109748959Y-110698775D01*
X109744475Y-110704025D01*
X109704025Y-110744475D01*
X109698775Y-110748959D01*
X109693242Y-110752979D01*
X109687355Y-110756586D01*
X109636396Y-110782551D01*
X109630019Y-110785193D01*
X109623508Y-110787309D01*
X109616792Y-110788921D01*
X109555129Y-110798687D01*
X109551708Y-110799092D01*
X109548258Y-110799364D01*
X109544812Y-110799500D01*
X107363253Y-110799500D01*
X107346415Y-110796151D01*
X107340225Y-110793587D01*
X107316412Y-110769774D01*
X107316411Y-110769771D01*
X107313848Y-110763582D01*
X107310500Y-110746747D01*
X107310500Y-109747274D01*
X107909500Y-109747274D01*
X107909500Y-109852726D01*
X107929477Y-109927288D01*
X107936790Y-109954580D01*
X107936791Y-109954582D01*
X107936792Y-109954584D01*
X107936795Y-109954591D01*
X107989517Y-110045909D01*
X107989518Y-110045910D01*
X107989520Y-110045913D01*
X108064087Y-110120480D01*
X108155413Y-110173207D01*
X108257273Y-110200500D01*
X108257275Y-110200500D01*
X108362725Y-110200500D01*
X108362727Y-110200500D01*
X108464587Y-110173207D01*
X108555913Y-110120480D01*
X108630480Y-110045913D01*
X108683207Y-109954587D01*
X108710500Y-109852727D01*
X108710500Y-109747274D01*
X108909500Y-109747274D01*
X108909500Y-109852726D01*
X108929477Y-109927288D01*
X108936790Y-109954580D01*
X108936791Y-109954582D01*
X108936792Y-109954584D01*
X108936795Y-109954591D01*
X108989517Y-110045909D01*
X108989518Y-110045910D01*
X108989520Y-110045913D01*
X109064087Y-110120480D01*
X109155413Y-110173207D01*
X109257273Y-110200500D01*
X109257275Y-110200500D01*
X109362725Y-110200500D01*
X109362727Y-110200500D01*
X109464587Y-110173207D01*
X109555913Y-110120480D01*
X109630480Y-110045913D01*
X109683207Y-109954587D01*
X109710500Y-109852727D01*
X109710500Y-109747273D01*
X109683207Y-109645413D01*
X109630483Y-109554092D01*
X109630482Y-109554090D01*
X109630481Y-109554089D01*
X109630480Y-109554087D01*
X109555913Y-109479520D01*
X109555910Y-109479518D01*
X109555909Y-109479517D01*
X109466507Y-109427901D01*
X109465406Y-109427189D01*
X109464968Y-109426953D01*
X109464630Y-109426793D01*
X109463955Y-109426623D01*
X109437289Y-109419478D01*
X109437289Y-109419477D01*
X109378482Y-109403721D01*
X109362727Y-109399500D01*
X109362726Y-109399500D01*
X109257274Y-109399500D01*
X109257273Y-109399500D01*
X109247751Y-109402051D01*
X109202688Y-109414124D01*
X109202689Y-109414125D01*
X109155415Y-109426792D01*
X109155413Y-109426792D01*
X109155412Y-109426793D01*
X109155407Y-109426795D01*
X109064091Y-109479516D01*
X108989516Y-109554091D01*
X108989516Y-109554092D01*
X108936796Y-109645404D01*
X108936792Y-109645415D01*
X108909500Y-109747274D01*
X108710500Y-109747274D01*
X108710500Y-109747273D01*
X108683207Y-109645413D01*
X108630483Y-109554092D01*
X108630482Y-109554090D01*
X108630481Y-109554089D01*
X108630480Y-109554087D01*
X108555913Y-109479520D01*
X108555910Y-109479518D01*
X108555909Y-109479517D01*
X108466507Y-109427901D01*
X108465406Y-109427189D01*
X108464968Y-109426953D01*
X108464630Y-109426793D01*
X108463955Y-109426623D01*
X108437289Y-109419478D01*
X108437289Y-109419477D01*
X108378482Y-109403721D01*
X108362727Y-109399500D01*
X108362726Y-109399500D01*
X108257274Y-109399500D01*
X108257273Y-109399500D01*
X108247751Y-109402051D01*
X108202688Y-109414124D01*
X108202689Y-109414125D01*
X108155415Y-109426792D01*
X108155413Y-109426792D01*
X108155412Y-109426793D01*
X108155407Y-109426795D01*
X108064091Y-109479516D01*
X107989516Y-109554091D01*
X107989516Y-109554092D01*
X107936796Y-109645404D01*
X107936792Y-109645415D01*
X107909500Y-109747274D01*
X107310500Y-109747274D01*
X107310500Y-109187936D01*
X107310500Y-109187932D01*
X107310225Y-109185846D01*
X107310226Y-109185843D01*
X107310225Y-109185844D01*
X107295945Y-109077375D01*
X107238964Y-108939810D01*
X107148320Y-108821680D01*
X107030190Y-108731036D01*
X106892625Y-108674055D01*
X106782068Y-108659500D01*
X105757932Y-108659500D01*
X105647373Y-108674055D01*
X105509807Y-108731037D01*
X105509806Y-108731037D01*
X105509804Y-108731039D01*
X105402766Y-108813172D01*
X105387370Y-108820764D01*
X105380898Y-108822498D01*
X105347511Y-108818103D01*
X105347510Y-108818102D01*
X105343682Y-108815892D01*
X105327584Y-108799791D01*
X105302464Y-108756282D01*
X105302463Y-108756280D01*
X105302462Y-108756279D01*
X105277218Y-108731035D01*
X105243724Y-108697540D01*
X105243718Y-108697536D01*
X105241220Y-108696094D01*
X105171782Y-108656003D01*
X105171778Y-108656001D01*
X105171776Y-108656000D01*
X105171778Y-108656000D01*
X105113924Y-108640499D01*
X105091536Y-108634500D01*
X105091534Y-108634500D01*
X105008466Y-108634500D01*
X105008464Y-108634500D01*
X104954969Y-108648834D01*
X104928220Y-108656001D01*
X104928214Y-108656004D01*
X104858778Y-108696094D01*
X104856695Y-108697121D01*
X104797121Y-108756695D01*
X104796094Y-108758778D01*
X104756712Y-108826988D01*
X104756052Y-108828049D01*
X104754652Y-108832675D01*
X104754502Y-108833816D01*
X104748563Y-108855981D01*
X104748562Y-108855982D01*
X104742893Y-108877137D01*
X104735298Y-108892537D01*
X104731667Y-108897268D01*
X104702501Y-108914103D01*
X104672311Y-108907060D01*
X104669256Y-108905018D01*
X104658800Y-108895223D01*
X104602996Y-108822499D01*
X104602368Y-108821680D01*
X104484238Y-108731036D01*
X104346673Y-108674055D01*
X104236116Y-108659500D01*
X103211980Y-108659500D01*
X103101421Y-108674055D01*
X102963856Y-108731036D01*
X102845731Y-108821677D01*
X102845725Y-108821683D01*
X102755084Y-108939808D01*
X102698103Y-109077373D01*
X102683548Y-109187932D01*
X102683548Y-110746747D01*
X102680198Y-110763587D01*
X102677634Y-110769776D01*
X102653824Y-110793586D01*
X102647635Y-110796150D01*
X102630795Y-110799500D01*
X102277301Y-110799500D01*
X102260463Y-110796151D01*
X102254273Y-110793587D01*
X102230460Y-110769774D01*
X102230459Y-110769771D01*
X102227896Y-110763582D01*
X102224548Y-110746747D01*
X102224548Y-109187936D01*
X102224548Y-109187932D01*
X102224273Y-109185846D01*
X102224274Y-109185843D01*
X102224273Y-109185844D01*
X102209993Y-109077375D01*
X102153012Y-108939810D01*
X102062368Y-108821680D01*
X101944238Y-108731036D01*
X101806673Y-108674055D01*
X101696116Y-108659500D01*
X100671980Y-108659500D01*
X100561421Y-108674055D01*
X100423856Y-108731036D01*
X100305731Y-108821677D01*
X100305720Y-108821688D01*
X100284733Y-108849039D01*
X100271828Y-108860357D01*
X100267727Y-108862725D01*
X100234339Y-108867122D01*
X100207622Y-108846624D01*
X100206388Y-108844487D01*
X100200500Y-108822498D01*
X100200500Y-106566311D01*
X100203848Y-106549476D01*
X100206411Y-106543287D01*
X100230215Y-106519475D01*
X100232030Y-106518723D01*
X100265703Y-106518717D01*
X100294151Y-106530500D01*
X100294152Y-106530500D01*
X100905848Y-106530500D01*
X100905849Y-106530500D01*
X100990568Y-106495409D01*
X100997013Y-106488962D01*
X101011282Y-106479425D01*
X101017473Y-106476860D01*
X101051147Y-106476858D01*
X101051148Y-106476858D01*
X101055745Y-106478762D01*
X101057337Y-106479421D01*
X101071615Y-106488960D01*
X101121062Y-106538407D01*
X101161806Y-106561931D01*
X101174714Y-106573252D01*
X101178791Y-106578566D01*
X101187507Y-106611081D01*
X101187119Y-106614034D01*
X101174606Y-106639415D01*
X101154592Y-106659427D01*
X101154588Y-106659433D01*
X101131197Y-106715910D01*
X101119501Y-106744148D01*
X101119500Y-106744151D01*
X101119500Y-107355849D01*
X101154591Y-107440568D01*
X101219432Y-107505409D01*
X101304151Y-107540500D01*
X101304152Y-107540500D01*
X101395848Y-107540500D01*
X101395849Y-107540500D01*
X101480568Y-107505409D01*
X101545409Y-107440568D01*
X101556002Y-107414993D01*
X101565534Y-107400725D01*
X101568888Y-107397371D01*
X101600000Y-107384485D01*
X101631110Y-107397371D01*
X101634462Y-107400722D01*
X101643996Y-107414991D01*
X101654591Y-107440568D01*
X101719432Y-107505409D01*
X101804151Y-107540500D01*
X101804152Y-107540500D01*
X101895847Y-107540500D01*
X101895849Y-107540500D01*
X101898475Y-107539411D01*
X101915313Y-107536059D01*
X101926749Y-107536058D01*
X101957862Y-107548943D01*
X101957865Y-107548945D01*
X102070673Y-107661753D01*
X102070674Y-107661755D01*
X102108791Y-107699872D01*
X102123378Y-107705913D01*
X102129260Y-107708349D01*
X102129262Y-107708351D01*
X102129265Y-107708352D01*
X102129266Y-107708353D01*
X102146959Y-107715682D01*
X102146960Y-107715682D01*
X102158593Y-107720501D01*
X102158594Y-107720501D01*
X102217618Y-107720501D01*
X102218970Y-107720501D01*
X102219002Y-107720500D01*
X104871544Y-107720500D01*
X104871576Y-107720501D01*
X104872928Y-107720501D01*
X104878047Y-107720501D01*
X104931952Y-107720501D01*
X104931953Y-107720501D01*
X104967167Y-107705913D01*
X104981755Y-107699872D01*
X104981761Y-107699865D01*
X104985359Y-107697463D01*
X104985725Y-107698012D01*
X104993647Y-107692715D01*
X105005148Y-107687950D01*
X105033375Y-107686098D01*
X105068464Y-107695500D01*
X105068466Y-107695500D01*
X105151534Y-107695500D01*
X105151536Y-107695500D01*
X105231778Y-107673999D01*
X105303721Y-107632462D01*
X105362462Y-107573721D01*
X105403999Y-107501778D01*
X105425500Y-107421536D01*
X105425500Y-107408464D01*
X107234500Y-107408464D01*
X107234500Y-107491536D01*
X107241263Y-107516776D01*
X107256000Y-107571777D01*
X107256004Y-107571784D01*
X107275757Y-107605997D01*
X107275759Y-107606000D01*
X107275760Y-107606001D01*
X107297538Y-107643721D01*
X107356279Y-107702462D01*
X107428222Y-107743999D01*
X107508464Y-107765500D01*
X107508466Y-107765500D01*
X107591534Y-107765500D01*
X107591536Y-107765500D01*
X107671778Y-107743999D01*
X107743721Y-107702462D01*
X107802462Y-107643721D01*
X107843999Y-107571778D01*
X107865500Y-107491536D01*
X107865500Y-107408464D01*
X107843999Y-107328222D01*
X107802462Y-107256279D01*
X107743721Y-107197538D01*
X107743720Y-107197537D01*
X107743719Y-107197536D01*
X107671784Y-107156004D01*
X107671778Y-107156001D01*
X107658570Y-107152462D01*
X107645030Y-107148834D01*
X107591536Y-107134500D01*
X107591535Y-107134500D01*
X107508466Y-107134500D01*
X107508464Y-107134500D01*
X107454969Y-107148834D01*
X107428220Y-107156001D01*
X107428214Y-107156004D01*
X107358778Y-107196094D01*
X107356695Y-107197121D01*
X107297121Y-107256695D01*
X107296094Y-107258778D01*
X107256004Y-107328214D01*
X107256001Y-107328218D01*
X107253255Y-107338464D01*
X107253256Y-107338465D01*
X107234500Y-107408464D01*
X105425500Y-107408464D01*
X105425500Y-107338464D01*
X105403999Y-107258222D01*
X105362462Y-107186279D01*
X105303721Y-107127538D01*
X105303720Y-107127537D01*
X105303719Y-107127536D01*
X105231784Y-107086004D01*
X105231776Y-107086000D01*
X105231778Y-107086000D01*
X105179532Y-107072001D01*
X105151536Y-107064500D01*
X105151534Y-107064500D01*
X105068466Y-107064500D01*
X105068464Y-107064500D01*
X105014969Y-107078834D01*
X104988220Y-107086001D01*
X104988214Y-107086004D01*
X104918778Y-107126094D01*
X104916695Y-107127121D01*
X104857121Y-107186695D01*
X104856094Y-107188778D01*
X104816005Y-107258212D01*
X104815979Y-107258263D01*
X104815830Y-107258858D01*
X104798985Y-107321726D01*
X104797245Y-107328222D01*
X104794500Y-107338465D01*
X104794500Y-107348999D01*
X104794500Y-107396747D01*
X104791150Y-107413587D01*
X104788586Y-107419776D01*
X104768687Y-107439674D01*
X104768018Y-107440796D01*
X104767413Y-107440948D01*
X104764776Y-107443586D01*
X104758587Y-107446150D01*
X104741747Y-107449500D01*
X104116312Y-107449500D01*
X104099474Y-107446151D01*
X104093284Y-107443587D01*
X104069475Y-107419783D01*
X104068724Y-107417971D01*
X104068717Y-107384295D01*
X104080500Y-107355849D01*
X104080500Y-107092661D01*
X104083849Y-107075823D01*
X104090038Y-107060881D01*
X104099573Y-107046609D01*
X104102462Y-107043721D01*
X104119707Y-107013850D01*
X104131021Y-107000946D01*
X104134784Y-106998059D01*
X104167310Y-106989342D01*
X104196476Y-107006178D01*
X104199670Y-107010340D01*
X104204955Y-107019819D01*
X104205009Y-107019793D01*
X104205595Y-107020967D01*
X104205898Y-107021509D01*
X104205997Y-107021769D01*
X104206005Y-107021787D01*
X104230664Y-107064496D01*
X104230667Y-107064500D01*
X104247536Y-107093719D01*
X104247538Y-107093721D01*
X104306279Y-107152462D01*
X104378222Y-107193999D01*
X104458464Y-107215500D01*
X104458466Y-107215500D01*
X104541534Y-107215500D01*
X104541536Y-107215500D01*
X104621778Y-107193999D01*
X104693721Y-107152462D01*
X104752462Y-107093721D01*
X104793999Y-107021778D01*
X104815500Y-106941536D01*
X104815500Y-106858464D01*
X104793999Y-106778222D01*
X104752462Y-106706279D01*
X104693721Y-106647538D01*
X104693720Y-106647537D01*
X104693719Y-106647536D01*
X104621784Y-106606004D01*
X104621776Y-106606000D01*
X104621778Y-106606000D01*
X104602726Y-106600896D01*
X104589466Y-106597343D01*
X104541536Y-106584500D01*
X104541534Y-106584500D01*
X104458466Y-106584500D01*
X104458464Y-106584500D01*
X104419099Y-106595048D01*
X104410541Y-106597341D01*
X104378220Y-106606001D01*
X104378214Y-106606004D01*
X104308778Y-106646094D01*
X104306695Y-106647121D01*
X104247536Y-106706280D01*
X104247528Y-106706291D01*
X104230288Y-106736151D01*
X104218969Y-106749057D01*
X104215213Y-106751939D01*
X104182684Y-106760654D01*
X104153524Y-106743821D01*
X104150397Y-106739747D01*
X104144647Y-106729787D01*
X104143997Y-106728218D01*
X104123714Y-106693088D01*
X104102462Y-106656279D01*
X104043721Y-106597538D01*
X104043720Y-106597537D01*
X104043719Y-106597536D01*
X103971784Y-106556004D01*
X103971776Y-106556000D01*
X103971778Y-106556000D01*
X103919532Y-106542001D01*
X103891536Y-106534500D01*
X103891534Y-106534500D01*
X103808466Y-106534500D01*
X103808464Y-106534500D01*
X103784505Y-106540920D01*
X103765628Y-106545978D01*
X103728220Y-106556001D01*
X103728214Y-106556004D01*
X103663566Y-106593329D01*
X103652931Y-106597731D01*
X103642750Y-106600453D01*
X103609364Y-106596039D01*
X103607651Y-106595048D01*
X103587185Y-106568351D01*
X103586637Y-106566307D01*
X103574405Y-106520654D01*
X103532868Y-106448711D01*
X103474127Y-106389970D01*
X103474126Y-106389969D01*
X103474125Y-106389968D01*
X103402190Y-106348436D01*
X103402182Y-106348432D01*
X103402184Y-106348432D01*
X103349938Y-106334433D01*
X103321942Y-106326932D01*
X103321940Y-106326932D01*
X103238872Y-106326932D01*
X103238870Y-106326932D01*
X103185375Y-106341266D01*
X103158626Y-106348433D01*
X103158620Y-106348436D01*
X103089184Y-106388526D01*
X103087101Y-106389553D01*
X103027527Y-106449127D01*
X103026500Y-106451210D01*
X102987118Y-106519420D01*
X102986458Y-106520481D01*
X102985057Y-106525110D01*
X102984907Y-106526251D01*
X102983241Y-106532467D01*
X102975650Y-106547860D01*
X102971572Y-106553175D01*
X102942408Y-106570014D01*
X102942405Y-106570015D01*
X102938029Y-106570591D01*
X102915451Y-106567619D01*
X102912283Y-106566307D01*
X102897284Y-106560094D01*
X102896123Y-106559564D01*
X102895849Y-106559500D01*
X102804151Y-106559500D01*
X102771718Y-106572934D01*
X102740890Y-106585703D01*
X102719432Y-106594591D01*
X102654589Y-106659434D01*
X102644000Y-106685001D01*
X102634466Y-106699271D01*
X102631117Y-106702621D01*
X102600007Y-106715513D01*
X102568892Y-106702630D01*
X102568887Y-106702626D01*
X102565537Y-106699276D01*
X102555999Y-106685000D01*
X102545411Y-106659436D01*
X102545410Y-106659434D01*
X102545409Y-106659432D01*
X102480568Y-106594591D01*
X102395849Y-106559500D01*
X102395848Y-106559500D01*
X102304152Y-106559500D01*
X102304151Y-106559500D01*
X102271718Y-106572934D01*
X102240890Y-106585703D01*
X102219432Y-106594591D01*
X102154589Y-106659434D01*
X102144000Y-106685001D01*
X102134466Y-106699271D01*
X102131117Y-106702621D01*
X102100007Y-106715513D01*
X102068892Y-106702630D01*
X102068887Y-106702626D01*
X102065537Y-106699276D01*
X102055999Y-106685000D01*
X102045411Y-106659436D01*
X102045410Y-106659434D01*
X102045409Y-106659432D01*
X101980568Y-106594591D01*
X101895849Y-106559500D01*
X101895848Y-106559500D01*
X101804152Y-106559500D01*
X101804151Y-106559500D01*
X101771718Y-106572934D01*
X101740890Y-106585703D01*
X101719432Y-106594591D01*
X101654589Y-106659434D01*
X101644000Y-106685001D01*
X101634466Y-106699271D01*
X101631117Y-106702621D01*
X101600007Y-106715513D01*
X101568892Y-106702630D01*
X101568887Y-106702626D01*
X101565537Y-106699276D01*
X101555999Y-106685000D01*
X101545411Y-106659436D01*
X101545409Y-106659433D01*
X101545409Y-106659432D01*
X101536476Y-106650499D01*
X101525425Y-106639447D01*
X101525423Y-106639446D01*
X101521501Y-106635524D01*
X101504576Y-106618598D01*
X101495038Y-106604324D01*
X101492824Y-106598980D01*
X101491602Y-106596030D01*
X101491602Y-106562359D01*
X101491780Y-106561930D01*
X101493758Y-106557153D01*
X101506530Y-106540513D01*
X101506464Y-106540447D01*
X101506966Y-106539944D01*
X101507637Y-106539071D01*
X101508495Y-106538412D01*
X101508504Y-106538407D01*
X101567245Y-106479666D01*
X101608782Y-106407723D01*
X101630283Y-106327481D01*
X101630283Y-106244409D01*
X101608782Y-106164167D01*
X101567245Y-106092224D01*
X101508504Y-106033483D01*
X101508503Y-106033482D01*
X101508502Y-106033481D01*
X101436567Y-105991949D01*
X101436559Y-105991945D01*
X101436561Y-105991945D01*
X101384315Y-105977946D01*
X101356319Y-105970445D01*
X101356317Y-105970445D01*
X101273248Y-105970445D01*
X101273247Y-105970445D01*
X101237469Y-105980032D01*
X101231016Y-105981761D01*
X101193003Y-105991946D01*
X101192997Y-105991949D01*
X101123561Y-106032039D01*
X101121478Y-106033066D01*
X101062310Y-106092234D01*
X101062023Y-106092609D01*
X101053902Y-106100728D01*
X101047938Y-106105303D01*
X101015408Y-106114015D01*
X101015402Y-106114014D01*
X101012196Y-106113591D01*
X100993508Y-106106555D01*
X100990567Y-106104590D01*
X100964994Y-106093997D01*
X100950722Y-106084461D01*
X100947371Y-106081110D01*
X100934485Y-106049999D01*
X100947367Y-106018892D01*
X100950719Y-106015539D01*
X100964992Y-106006001D01*
X100990568Y-105995409D01*
X101055409Y-105930568D01*
X101090500Y-105845849D01*
X101090500Y-105754151D01*
X101055409Y-105669432D01*
X100990568Y-105604591D01*
X100985899Y-105602657D01*
X100981570Y-105600864D01*
X100981572Y-105600864D01*
X100981568Y-105600863D01*
X100974713Y-105598024D01*
X100964993Y-105593997D01*
X100950722Y-105584461D01*
X100947371Y-105581110D01*
X100934485Y-105549999D01*
X100947367Y-105518892D01*
X100950719Y-105515539D01*
X100964992Y-105506001D01*
X100990568Y-105495409D01*
X101055409Y-105430568D01*
X101090500Y-105345849D01*
X101090500Y-105268252D01*
X101093848Y-105251417D01*
X101096411Y-105245228D01*
X101120222Y-105221414D01*
X101120222Y-105221413D01*
X101124590Y-105219604D01*
X101126420Y-105218847D01*
X101143253Y-105215500D01*
X101176534Y-105215500D01*
X101176536Y-105215500D01*
X101256778Y-105193999D01*
X101328721Y-105152462D01*
X101387462Y-105093721D01*
X101428999Y-105021778D01*
X101450500Y-104941536D01*
X101450500Y-104858464D01*
X101428999Y-104778222D01*
X101387462Y-104706279D01*
X101328721Y-104647538D01*
X101328720Y-104647537D01*
X101328717Y-104647535D01*
X101300078Y-104630999D01*
X101287172Y-104619680D01*
X101279592Y-104609801D01*
X101270500Y-104583016D01*
X101270500Y-103719398D01*
X101270501Y-103719380D01*
X101270501Y-103659140D01*
X101270501Y-103659138D01*
X101259352Y-103632225D01*
X101256222Y-103624668D01*
X101256212Y-103624642D01*
X101250469Y-103610779D01*
X101250019Y-103609574D01*
X101249871Y-103609335D01*
X101211760Y-103571223D01*
X101211760Y-103571224D01*
X101211755Y-103571219D01*
X101209250Y-103568714D01*
X101209243Y-103568708D01*
X101134575Y-103494040D01*
X101125037Y-103479763D01*
X101118849Y-103464822D01*
X101115500Y-103447986D01*
X101115500Y-102744151D01*
X102119500Y-102744151D01*
X102119500Y-103355849D01*
X102154591Y-103440568D01*
X102219432Y-103505409D01*
X102304151Y-103540500D01*
X102304152Y-103540500D01*
X102395848Y-103540500D01*
X102395849Y-103540500D01*
X102480568Y-103505409D01*
X102545409Y-103440568D01*
X102580500Y-103355849D01*
X102580500Y-103004531D01*
X103516306Y-103004531D01*
X103516306Y-103087603D01*
X103532366Y-103147538D01*
X103537807Y-103167845D01*
X103537809Y-103167849D01*
X103577228Y-103236123D01*
X103577900Y-103237286D01*
X103578929Y-103239373D01*
X103600424Y-103260869D01*
X103609961Y-103275142D01*
X103616150Y-103290083D01*
X103619500Y-103306922D01*
X103619500Y-103355849D01*
X103648494Y-103425849D01*
X103654591Y-103440568D01*
X103711211Y-103497189D01*
X103720749Y-103511464D01*
X103723312Y-103517652D01*
X103723314Y-103551321D01*
X103722175Y-103554072D01*
X103703524Y-103575344D01*
X103691938Y-103582033D01*
X103691932Y-103582038D01*
X103632781Y-103641190D01*
X103631753Y-103643275D01*
X103591663Y-103712711D01*
X103591659Y-103712718D01*
X103590201Y-103718162D01*
X103590199Y-103718171D01*
X103570159Y-103792961D01*
X103570159Y-103876033D01*
X103582088Y-103920553D01*
X103582087Y-103920553D01*
X103591659Y-103956275D01*
X103591662Y-103956279D01*
X103595345Y-103962658D01*
X103630696Y-104023887D01*
X103633196Y-104028216D01*
X103633200Y-104028222D01*
X103665895Y-104060916D01*
X103691938Y-104086959D01*
X103691939Y-104086960D01*
X103691941Y-104086961D01*
X103734920Y-104111775D01*
X103747826Y-104123092D01*
X103755406Y-104132971D01*
X103764500Y-104159757D01*
X103764500Y-104217604D01*
X103764499Y-104217660D01*
X103764499Y-104218416D01*
X103764499Y-104221956D01*
X103764499Y-104275862D01*
X103769019Y-104286773D01*
X103769019Y-104286778D01*
X103785126Y-104325663D01*
X103823245Y-104363781D01*
X103823246Y-104363781D01*
X104113016Y-104653551D01*
X104122554Y-104667826D01*
X104126930Y-104678391D01*
X104126930Y-104712067D01*
X104110099Y-104752702D01*
X104109565Y-104753871D01*
X104109500Y-104754149D01*
X104109500Y-104754151D01*
X104109500Y-104845849D01*
X104144591Y-104930568D01*
X104209432Y-104995409D01*
X104209434Y-104995410D01*
X104209436Y-104995411D01*
X104235000Y-105005999D01*
X104249276Y-105015537D01*
X104252626Y-105018887D01*
X104265513Y-105050000D01*
X104252626Y-105081111D01*
X104252623Y-105081115D01*
X104252621Y-105081117D01*
X104249273Y-105084464D01*
X104235005Y-105093997D01*
X104209433Y-105104590D01*
X104209432Y-105104591D01*
X104144591Y-105169432D01*
X104109500Y-105254151D01*
X104109500Y-105345849D01*
X104144591Y-105430568D01*
X104209432Y-105495409D01*
X104209434Y-105495410D01*
X104209436Y-105495411D01*
X104235000Y-105505999D01*
X104249276Y-105515537D01*
X104252626Y-105518887D01*
X104265513Y-105550000D01*
X104252626Y-105581111D01*
X104252623Y-105581115D01*
X104252621Y-105581117D01*
X104249273Y-105584464D01*
X104235005Y-105593997D01*
X104209433Y-105604590D01*
X104209432Y-105604591D01*
X104144591Y-105669432D01*
X104109500Y-105754151D01*
X104109500Y-105845849D01*
X104144591Y-105930568D01*
X104209432Y-105995409D01*
X104294151Y-106030500D01*
X104447338Y-106030500D01*
X104464174Y-106033849D01*
X104479115Y-106040037D01*
X104493392Y-106049575D01*
X104523422Y-106079605D01*
X104595365Y-106121142D01*
X104675607Y-106142643D01*
X104675609Y-106142643D01*
X104758677Y-106142643D01*
X104758679Y-106142643D01*
X104838921Y-106121142D01*
X104910864Y-106079605D01*
X104969605Y-106020864D01*
X104972705Y-106015493D01*
X104978693Y-106007417D01*
X104984919Y-106000771D01*
X104986741Y-105999305D01*
X104986706Y-105999270D01*
X104990566Y-105995409D01*
X104990568Y-105995409D01*
X105055409Y-105930568D01*
X105090500Y-105845849D01*
X105090500Y-105754151D01*
X105076867Y-105721238D01*
X106509500Y-105721238D01*
X106509500Y-106018762D01*
X106520553Y-106074329D01*
X106562657Y-106137343D01*
X106625671Y-106179447D01*
X106681238Y-106190500D01*
X106681241Y-106190500D01*
X106901895Y-106190500D01*
X106918731Y-106193849D01*
X106933672Y-106200037D01*
X106947949Y-106209575D01*
X107175424Y-106437050D01*
X107184961Y-106451324D01*
X107191150Y-106466265D01*
X107194500Y-106483104D01*
X107194500Y-106908910D01*
X107194501Y-106908915D01*
X107198905Y-106931060D01*
X107199190Y-106933959D01*
X107200309Y-106936660D01*
X107202156Y-106938911D01*
X107219753Y-106965247D01*
X107249689Y-106985249D01*
X107276087Y-106990500D01*
X108023912Y-106990499D01*
X108050311Y-106985249D01*
X108080247Y-106965247D01*
X108100249Y-106935311D01*
X108105500Y-106908913D01*
X108105499Y-106291088D01*
X108100249Y-106264689D01*
X108080247Y-106234753D01*
X108080245Y-106234752D01*
X108080245Y-106234751D01*
X108074820Y-106231127D01*
X108074818Y-106231124D01*
X108074818Y-106231125D01*
X108050314Y-106214752D01*
X108050311Y-106214751D01*
X108023913Y-106209500D01*
X108023909Y-106209500D01*
X107358105Y-106209500D01*
X107341267Y-106206151D01*
X107326325Y-106199962D01*
X107312050Y-106190424D01*
X107109575Y-105987949D01*
X107100037Y-105973672D01*
X107093849Y-105958731D01*
X107090500Y-105941895D01*
X107090500Y-105721241D01*
X107090500Y-105721238D01*
X107079447Y-105665671D01*
X107037343Y-105602657D01*
X106974329Y-105560553D01*
X106918762Y-105549500D01*
X106918759Y-105549500D01*
X106681240Y-105549500D01*
X106681238Y-105549500D01*
X106639562Y-105557789D01*
X106639559Y-105557789D01*
X106625672Y-105560551D01*
X106562660Y-105602654D01*
X106562654Y-105602660D01*
X106520551Y-105665672D01*
X106519921Y-105667749D01*
X106519748Y-105669510D01*
X106519768Y-105669607D01*
X106519714Y-105669884D01*
X106509500Y-105721238D01*
X105076867Y-105721238D01*
X105055409Y-105669432D01*
X104990568Y-105604591D01*
X104985899Y-105602657D01*
X104981570Y-105600864D01*
X104981572Y-105600864D01*
X104981568Y-105600863D01*
X104974713Y-105598024D01*
X104964993Y-105593997D01*
X104950722Y-105584461D01*
X104947371Y-105581110D01*
X104934485Y-105549999D01*
X104947367Y-105518892D01*
X104950719Y-105515539D01*
X104964990Y-105506002D01*
X104990338Y-105495503D01*
X104998588Y-105493003D01*
X105006927Y-105491345D01*
X105015507Y-105490500D01*
X105099086Y-105490500D01*
X105115922Y-105493848D01*
X105128025Y-105498861D01*
X105147772Y-105515066D01*
X105162657Y-105537343D01*
X105225671Y-105579447D01*
X105281238Y-105590500D01*
X105281241Y-105590500D01*
X105578758Y-105590500D01*
X105578762Y-105590500D01*
X105634329Y-105579447D01*
X105697343Y-105537343D01*
X105739447Y-105474329D01*
X105750500Y-105418762D01*
X105750500Y-105181238D01*
X105739447Y-105125671D01*
X105697343Y-105062657D01*
X105697339Y-105062654D01*
X105697338Y-105062653D01*
X105647331Y-105029239D01*
X105635191Y-105017099D01*
X105627915Y-105006209D01*
X105620500Y-104981765D01*
X105620500Y-104920957D01*
X105623849Y-104904120D01*
X105628861Y-104892019D01*
X105645066Y-104872272D01*
X105697343Y-104837343D01*
X105708553Y-104820564D01*
X105720687Y-104808428D01*
X105726261Y-104804704D01*
X105759286Y-104798133D01*
X105759296Y-104798135D01*
X105761220Y-104798518D01*
X105789214Y-104817225D01*
X105801341Y-104835374D01*
X105802657Y-104837343D01*
X105865671Y-104879447D01*
X105921238Y-104890500D01*
X106064114Y-104890500D01*
X106080951Y-104893849D01*
X106095891Y-104900037D01*
X106110166Y-104909575D01*
X106142125Y-104941533D01*
X106142125Y-104941534D01*
X106162088Y-104961497D01*
X106162089Y-104961497D01*
X106162090Y-104961498D01*
X106232107Y-104990500D01*
X106232108Y-104990500D01*
X106307893Y-104990500D01*
X107159016Y-104990500D01*
X107175853Y-104993849D01*
X107184335Y-104997362D01*
X107206303Y-105017273D01*
X107207846Y-105020160D01*
X107212195Y-105032316D01*
X107220551Y-105074325D01*
X107220552Y-105074327D01*
X107220552Y-105074328D01*
X107220553Y-105074329D01*
X107262657Y-105137343D01*
X107325671Y-105179447D01*
X107381238Y-105190500D01*
X107495528Y-105190500D01*
X107504102Y-105191343D01*
X107512067Y-105192927D01*
X107514883Y-105193585D01*
X107515482Y-105193746D01*
X107516829Y-105194203D01*
X107519580Y-105194844D01*
X107598464Y-105215981D01*
X107598466Y-105215981D01*
X107681534Y-105215981D01*
X107681536Y-105215981D01*
X107761778Y-105194480D01*
X107833721Y-105152943D01*
X107892462Y-105094202D01*
X107933999Y-105022259D01*
X107955500Y-104942017D01*
X107955500Y-104858945D01*
X107933999Y-104778703D01*
X107892462Y-104706760D01*
X107833721Y-104648019D01*
X107833720Y-104648018D01*
X107833719Y-104648017D01*
X107761787Y-104606486D01*
X107761738Y-104606461D01*
X107761139Y-104606310D01*
X107752434Y-104603978D01*
X107741036Y-104600923D01*
X107734270Y-104598502D01*
X107731756Y-104597363D01*
X107727784Y-104595563D01*
X107721510Y-104592077D01*
X107691379Y-104571945D01*
X107674330Y-104560553D01*
X107660437Y-104557789D01*
X107618762Y-104549500D01*
X107618759Y-104549500D01*
X107381240Y-104549500D01*
X107381238Y-104549500D01*
X107339562Y-104557789D01*
X107339559Y-104557789D01*
X107325672Y-104560551D01*
X107268940Y-104598458D01*
X107257269Y-104603978D01*
X107245314Y-104607605D01*
X107232540Y-104609500D01*
X107059655Y-104609500D01*
X107042817Y-104606151D01*
X107036627Y-104603587D01*
X107012814Y-104579774D01*
X107012809Y-104579762D01*
X107012612Y-104579286D01*
X107010766Y-104551076D01*
X107011296Y-104549096D01*
X107015693Y-104538484D01*
X107033995Y-104506785D01*
X107033995Y-104506784D01*
X107033999Y-104506778D01*
X107055500Y-104426536D01*
X107055500Y-104343464D01*
X107033999Y-104263222D01*
X106992462Y-104191279D01*
X106933721Y-104132538D01*
X106933720Y-104132537D01*
X106933719Y-104132536D01*
X106861784Y-104091004D01*
X106861776Y-104091000D01*
X106861778Y-104091000D01*
X106809532Y-104077001D01*
X106781536Y-104069500D01*
X106781534Y-104069500D01*
X106698466Y-104069500D01*
X106698464Y-104069500D01*
X106654646Y-104081241D01*
X106649093Y-104082729D01*
X106618220Y-104091001D01*
X106618214Y-104091004D01*
X106548778Y-104131094D01*
X106546695Y-104132121D01*
X106487121Y-104191695D01*
X106486094Y-104193778D01*
X106446004Y-104263214D01*
X106446001Y-104263220D01*
X106445390Y-104265500D01*
X106425527Y-104339634D01*
X106424499Y-104343469D01*
X106424371Y-104344443D01*
X106421398Y-104355536D01*
X106419337Y-104360511D01*
X106395523Y-104384323D01*
X106361864Y-104384328D01*
X106360327Y-104383692D01*
X106340562Y-104367475D01*
X106338876Y-104364951D01*
X106337930Y-104363323D01*
X106337342Y-104362656D01*
X106274329Y-104320553D01*
X106270724Y-104319836D01*
X106218762Y-104309500D01*
X106218759Y-104309500D01*
X105921240Y-104309500D01*
X105921238Y-104309500D01*
X105879562Y-104317789D01*
X105879559Y-104317789D01*
X105865672Y-104320551D01*
X105826222Y-104346911D01*
X105810358Y-104353481D01*
X105803971Y-104354751D01*
X105770942Y-104348179D01*
X105753282Y-104324360D01*
X105752392Y-104321424D01*
X105750500Y-104308660D01*
X105750500Y-104168840D01*
X105753848Y-104152004D01*
X105760220Y-104136619D01*
X105764283Y-104129021D01*
X105768245Y-104123092D01*
X105817126Y-104049937D01*
X105830500Y-103982703D01*
X105830499Y-103597298D01*
X105817126Y-103530063D01*
X105766181Y-103453819D01*
X105689937Y-103402874D01*
X105622703Y-103389500D01*
X105622700Y-103389500D01*
X105494886Y-103389500D01*
X105478048Y-103386151D01*
X105473671Y-103384338D01*
X105467482Y-103378149D01*
X105463773Y-103376613D01*
X105462236Y-103372903D01*
X105449858Y-103360525D01*
X105449856Y-103326855D01*
X105451667Y-103322481D01*
X105461204Y-103308203D01*
X105509836Y-103259572D01*
X105524107Y-103250038D01*
X105539050Y-103243849D01*
X105555887Y-103240500D01*
X105578758Y-103240500D01*
X105578762Y-103240500D01*
X105634329Y-103229447D01*
X105697343Y-103187343D01*
X105739447Y-103124329D01*
X105750500Y-103068762D01*
X105750500Y-102831238D01*
X105739447Y-102775671D01*
X105697343Y-102712657D01*
X105634329Y-102670553D01*
X105578762Y-102659500D01*
X105578759Y-102659500D01*
X105281240Y-102659500D01*
X105281238Y-102659500D01*
X105239562Y-102667789D01*
X105239559Y-102667789D01*
X105225672Y-102670551D01*
X105162660Y-102712654D01*
X105162654Y-102712660D01*
X105120551Y-102775672D01*
X105119921Y-102777749D01*
X105119708Y-102779918D01*
X105110098Y-102828235D01*
X105109500Y-102831239D01*
X105109500Y-103031747D01*
X105106150Y-103048587D01*
X105103586Y-103054776D01*
X105079776Y-103078586D01*
X105073587Y-103081150D01*
X105061255Y-103083603D01*
X105061324Y-103084123D01*
X105058468Y-103084498D01*
X105016647Y-103095705D01*
X104978220Y-103106001D01*
X104978214Y-103106004D01*
X104908778Y-103146094D01*
X104906695Y-103147121D01*
X104847287Y-103206529D01*
X104846094Y-103208778D01*
X104821981Y-103250543D01*
X104810664Y-103263449D01*
X104806906Y-103266333D01*
X104774378Y-103275051D01*
X104745213Y-103258215D01*
X104744583Y-103257394D01*
X104735500Y-103230621D01*
X104735500Y-103104457D01*
X104738849Y-103087619D01*
X104738857Y-103087601D01*
X104743614Y-103076114D01*
X104762266Y-103054847D01*
X104783721Y-103042462D01*
X104842462Y-102983721D01*
X104883999Y-102911778D01*
X104905500Y-102831536D01*
X104905500Y-102748464D01*
X104883999Y-102668222D01*
X104842462Y-102596279D01*
X104783721Y-102537538D01*
X104783720Y-102537537D01*
X104783719Y-102537536D01*
X104711784Y-102496004D01*
X104711776Y-102496000D01*
X104711778Y-102496000D01*
X104659532Y-102482001D01*
X104631536Y-102474500D01*
X104631534Y-102474500D01*
X104548466Y-102474500D01*
X104548464Y-102474500D01*
X104494969Y-102488834D01*
X104468220Y-102496001D01*
X104468214Y-102496004D01*
X104398778Y-102536094D01*
X104396695Y-102537121D01*
X104337121Y-102596695D01*
X104336094Y-102598778D01*
X104296005Y-102668212D01*
X104295979Y-102668263D01*
X104295830Y-102668859D01*
X104289094Y-102694000D01*
X104275656Y-102744152D01*
X104274500Y-102748465D01*
X104274500Y-102831535D01*
X104281063Y-102856029D01*
X104296000Y-102911777D01*
X104296001Y-102911779D01*
X104304219Y-102926013D01*
X104304222Y-102926017D01*
X104337538Y-102983721D01*
X104396279Y-103042462D01*
X104434922Y-103064773D01*
X104447827Y-103076091D01*
X104455406Y-103085967D01*
X104464500Y-103112754D01*
X104464500Y-103526747D01*
X104461150Y-103543587D01*
X104458586Y-103549776D01*
X104434776Y-103573586D01*
X104428587Y-103576150D01*
X104411747Y-103579500D01*
X104294151Y-103579500D01*
X104288024Y-103582038D01*
X104209428Y-103614592D01*
X104197978Y-103626041D01*
X104183705Y-103635576D01*
X104177519Y-103638138D01*
X104143846Y-103638138D01*
X104137658Y-103635575D01*
X104123382Y-103626037D01*
X104079379Y-103582034D01*
X104050918Y-103565602D01*
X104025395Y-103550866D01*
X104012486Y-103539544D01*
X104008409Y-103534230D01*
X103999693Y-103501715D01*
X104000081Y-103498762D01*
X104012593Y-103473382D01*
X104045409Y-103440568D01*
X104080500Y-103355849D01*
X104080500Y-103263897D01*
X104081998Y-103252512D01*
X104084897Y-103241692D01*
X104089290Y-103231089D01*
X104103614Y-103206280D01*
X104125805Y-103167845D01*
X104147306Y-103087603D01*
X104147306Y-103004531D01*
X104125805Y-102924289D01*
X104118582Y-102911778D01*
X104089289Y-102861042D01*
X104084896Y-102850437D01*
X104081997Y-102839619D01*
X104080500Y-102828235D01*
X104080500Y-102744152D01*
X104067455Y-102712657D01*
X104045411Y-102659436D01*
X104045410Y-102659434D01*
X104045409Y-102659432D01*
X103980568Y-102594591D01*
X103895849Y-102559500D01*
X103895848Y-102559500D01*
X103804152Y-102559500D01*
X103804151Y-102559500D01*
X103719432Y-102594591D01*
X103654591Y-102659432D01*
X103654588Y-102659436D01*
X103632546Y-102712655D01*
X103632546Y-102712656D01*
X103619501Y-102744151D01*
X103619500Y-102744153D01*
X103619500Y-102785211D01*
X103616150Y-102802051D01*
X103609960Y-102816993D01*
X103600423Y-102831266D01*
X103578927Y-102852761D01*
X103577899Y-102854847D01*
X103537811Y-102924279D01*
X103537785Y-102924330D01*
X103537636Y-102924926D01*
X103516306Y-103004531D01*
X102580500Y-103004531D01*
X102580500Y-102744151D01*
X102545409Y-102659432D01*
X102545408Y-102659431D01*
X102545408Y-102659430D01*
X102535977Y-102649999D01*
X102523075Y-102637096D01*
X102513537Y-102622821D01*
X102507349Y-102607881D01*
X102504000Y-102591044D01*
X102504000Y-102352323D01*
X102516887Y-102321210D01*
X102523586Y-102315718D01*
X102625330Y-102247888D01*
X102649737Y-102240499D01*
X103053908Y-102240499D01*
X103053912Y-102240499D01*
X103080311Y-102235249D01*
X103110247Y-102215247D01*
X103130249Y-102185311D01*
X103135500Y-102158913D01*
X103135499Y-101641088D01*
X103130249Y-101614689D01*
X103110247Y-101584753D01*
X103095795Y-101575097D01*
X103080311Y-101564751D01*
X103080296Y-101564748D01*
X103053913Y-101559500D01*
X103053909Y-101559500D01*
X102738987Y-101559500D01*
X102730404Y-101558655D01*
X102727506Y-101558078D01*
X102709514Y-101554500D01*
X102709512Y-101554500D01*
X102595128Y-101554500D01*
X102583114Y-101555260D01*
X102583093Y-101555262D01*
X102572107Y-101556656D01*
X102526704Y-101575095D01*
X102526704Y-101575096D01*
X102499795Y-101595352D01*
X102474972Y-101623137D01*
X102264737Y-101979620D01*
X102264736Y-101979621D01*
X102258748Y-101994560D01*
X102256013Y-102000187D01*
X102229339Y-102046390D01*
X102208203Y-102125272D01*
X102208202Y-102125271D01*
X102200398Y-102154400D01*
X102199190Y-102158912D01*
X102197595Y-102164864D01*
X102196000Y-102170815D01*
X102196000Y-102591044D01*
X102192650Y-102607883D01*
X102186461Y-102622824D01*
X102176923Y-102637098D01*
X102154590Y-102659429D01*
X102131197Y-102715910D01*
X102131197Y-102715911D01*
X102119500Y-102744151D01*
X101115500Y-102744151D01*
X101115500Y-102584560D01*
X101118847Y-102567727D01*
X101120660Y-102563349D01*
X101144469Y-102539535D01*
X101178145Y-102539531D01*
X101178155Y-102539535D01*
X101182522Y-102541343D01*
X101196801Y-102550883D01*
X101241415Y-102595497D01*
X101313358Y-102637034D01*
X101393600Y-102658535D01*
X101393602Y-102658535D01*
X101476670Y-102658535D01*
X101476672Y-102658535D01*
X101556914Y-102637034D01*
X101628857Y-102595497D01*
X101687598Y-102536756D01*
X101729135Y-102464813D01*
X101750636Y-102384571D01*
X101750636Y-102301499D01*
X101737737Y-102253362D01*
X101736616Y-102236239D01*
X101737491Y-102229594D01*
X101754326Y-102200436D01*
X101758622Y-102197139D01*
X101776812Y-102188898D01*
X101824329Y-102179447D01*
X101887343Y-102137343D01*
X101929447Y-102074329D01*
X101940500Y-102018762D01*
X101940500Y-101781238D01*
X101929447Y-101725671D01*
X101887343Y-101662657D01*
X101824329Y-101620553D01*
X101768762Y-101609500D01*
X101768759Y-101609500D01*
X101471239Y-101609500D01*
X101471238Y-101609500D01*
X101458841Y-101611966D01*
X101437006Y-101616309D01*
X101437005Y-101616308D01*
X101415673Y-101620552D01*
X101415669Y-101620553D01*
X101352660Y-101662654D01*
X101352651Y-101662663D01*
X101341445Y-101679435D01*
X101329307Y-101691574D01*
X101323740Y-101695294D01*
X101290717Y-101701866D01*
X101288790Y-101701483D01*
X101260788Y-101682779D01*
X101254725Y-101673705D01*
X101247343Y-101662657D01*
X101184329Y-101620553D01*
X101128762Y-101609500D01*
X101128759Y-101609500D01*
X100831239Y-101609500D01*
X100831238Y-101609500D01*
X100818841Y-101611966D01*
X100797006Y-101616309D01*
X100797005Y-101616308D01*
X100775673Y-101620552D01*
X100775669Y-101620553D01*
X100712660Y-101662654D01*
X100712654Y-101662660D01*
X100670551Y-101725672D01*
X100669921Y-101727749D01*
X100669708Y-101729918D01*
X100659500Y-101781238D01*
X100659500Y-102018762D01*
X100670553Y-102074329D01*
X100712657Y-102137343D01*
X100775671Y-102179447D01*
X100800502Y-102184385D01*
X100816361Y-102190955D01*
X100823996Y-102196056D01*
X100841652Y-102219860D01*
X100842603Y-102222993D01*
X100844500Y-102235773D01*
X100844500Y-103141891D01*
X100841150Y-103158731D01*
X100838586Y-103164920D01*
X100814792Y-103188723D01*
X100814317Y-103188920D01*
X100786078Y-103190779D01*
X100784099Y-103190249D01*
X100773482Y-103185852D01*
X100766389Y-103181757D01*
X100742294Y-103167845D01*
X100721785Y-103156004D01*
X100721777Y-103156000D01*
X100721775Y-103156000D01*
X100690190Y-103147537D01*
X100641536Y-103134500D01*
X100641534Y-103134500D01*
X100558465Y-103134500D01*
X100558464Y-103134500D01*
X100530881Y-103141891D01*
X100509810Y-103147537D01*
X100478220Y-103156001D01*
X100478214Y-103156004D01*
X100408778Y-103196094D01*
X100406695Y-103197121D01*
X100347121Y-103256695D01*
X100346094Y-103258778D01*
X100306005Y-103328212D01*
X100305979Y-103328263D01*
X100305830Y-103328859D01*
X100289582Y-103389499D01*
X100289574Y-103389527D01*
X100289257Y-103390707D01*
X100281672Y-103406076D01*
X100279466Y-103408951D01*
X100250302Y-103425789D01*
X100217773Y-103417074D01*
X100202063Y-103393577D01*
X100202005Y-103393361D01*
X100200500Y-103381950D01*
X100200500Y-101198464D01*
X104359500Y-101198464D01*
X104359500Y-101281536D01*
X104381001Y-101361778D01*
X104422538Y-101433721D01*
X104481279Y-101492462D01*
X104553222Y-101533999D01*
X104633464Y-101555500D01*
X104633466Y-101555500D01*
X104716534Y-101555500D01*
X104716536Y-101555500D01*
X104796778Y-101533999D01*
X104868721Y-101492462D01*
X104927462Y-101433721D01*
X104968999Y-101361778D01*
X104990500Y-101281536D01*
X104990500Y-101198464D01*
X104968999Y-101118222D01*
X104927462Y-101046279D01*
X104868721Y-100987538D01*
X104868720Y-100987537D01*
X104868719Y-100987536D01*
X104796784Y-100946004D01*
X104796776Y-100946000D01*
X104796778Y-100946000D01*
X104744532Y-100932001D01*
X104716536Y-100924500D01*
X104716534Y-100924500D01*
X104633466Y-100924500D01*
X104633464Y-100924500D01*
X104579969Y-100938834D01*
X104553220Y-100946001D01*
X104553214Y-100946004D01*
X104483778Y-100986094D01*
X104481695Y-100987121D01*
X104422121Y-101046695D01*
X104421094Y-101048778D01*
X104381005Y-101118212D01*
X104380979Y-101118263D01*
X104380830Y-101118859D01*
X104376623Y-101134560D01*
X104359500Y-101198464D01*
X100200500Y-101198464D01*
X100200500Y-100631661D01*
X100203847Y-100614828D01*
X100205660Y-100610450D01*
X100229469Y-100586636D01*
X100263145Y-100586632D01*
X100263155Y-100586636D01*
X100267522Y-100588444D01*
X100281801Y-100597984D01*
X100326279Y-100642462D01*
X100398222Y-100683999D01*
X100478464Y-100705500D01*
X100478466Y-100705500D01*
X100561534Y-100705500D01*
X100561536Y-100705500D01*
X100641778Y-100683999D01*
X100713721Y-100642462D01*
X100772462Y-100583721D01*
X100813999Y-100511778D01*
X100823211Y-100477395D01*
X100830803Y-100462000D01*
X100838051Y-100452555D01*
X100864371Y-100436188D01*
X100909937Y-100427126D01*
X100986181Y-100376181D01*
X101037126Y-100299937D01*
X101050500Y-100232703D01*
X101050499Y-99907298D01*
X101037126Y-99840063D01*
X101037123Y-99840059D01*
X101018804Y-99812643D01*
X100994465Y-99776218D01*
X100987897Y-99760358D01*
X100987780Y-99759772D01*
X100986627Y-99753970D01*
X100993200Y-99720941D01*
X101017021Y-99703281D01*
X101017909Y-99703012D01*
X101019959Y-99702391D01*
X101032719Y-99700500D01*
X101215056Y-99700500D01*
X101231892Y-99703849D01*
G37*
%TD.AperFunction*%
%TD*%
M02*
