%TF.GenerationSoftware,KiCad,Pcbnew,10.0.0*%
%TF.CreationDate,2026-08-06T18:40:35+02:00*%
%TF.ProjectId,OpenRX-Lite-UFL,4f70656e-5258-42d4-9c69-74652d55464c,rev?*%
%TF.SameCoordinates,Original*%
%TF.FileFunction,Other,User*%
%FSLAX46Y46*%
G04 Gerber Fmt 4.6, Leading zero omitted, Abs format (unit mm)*
G04 Created by KiCad (PCBNEW 10.0.0) date 2026-08-06 18:40:35*
%MOMM*%
%LPD*%
G01*
G04 APERTURE LIST*
%ADD10C,0.050000*%
G04 APERTURE END LIST*
%TO.C,TP3*%
D10*
X105170000Y-108600000D02*
X107370000Y-108600000D01*
X107370000Y-113400000D01*
X105170000Y-113400000D01*
X105170000Y-108600000D01*
%TO.C,C6*%
X105050000Y-102600000D02*
X106450000Y-102600000D01*
X106450000Y-103300000D01*
X105050000Y-103300000D01*
X105050000Y-102600000D01*
%TO.C,L1*%
X109250000Y-104550000D02*
X109950000Y-104550000D01*
X109950000Y-105950000D01*
X109250000Y-105950000D01*
X109250000Y-104550000D01*
%TO.C,TP4*%
X107710000Y-108600000D02*
X109910000Y-108600000D01*
X109910000Y-113400000D01*
X107710000Y-113400000D01*
X107710000Y-108600000D01*
%TO.C,FL1*%
X102900000Y-101650000D02*
X103900000Y-101650000D01*
X102900000Y-102150000D02*
X102900000Y-101650000D01*
X103900000Y-101650000D02*
X103900000Y-102150000D01*
X103900000Y-102150000D02*
X102900000Y-102150000D01*
%TO.C,C1*%
X109250000Y-105950000D02*
X109950000Y-105950000D01*
X109950000Y-107350000D01*
X109250000Y-107350000D01*
X109250000Y-105950000D01*
%TO.C,C4*%
X107850000Y-104550000D02*
X109250000Y-104550000D01*
X109250000Y-105250000D01*
X107850000Y-105250000D01*
X107850000Y-104550000D01*
%TO.C,TP2*%
X102624048Y-108600000D02*
X104824048Y-108600000D01*
X104824048Y-113400000D01*
X102624048Y-113400000D01*
X102624048Y-108600000D01*
%TO.C,L3*%
X105050000Y-104250000D02*
X106450000Y-104250000D01*
X106450000Y-104950000D01*
X105050000Y-104950000D01*
X105050000Y-104250000D01*
%TO.C,D1*%
X102250000Y-99650000D02*
X103850000Y-99650000D01*
X103850000Y-101250000D01*
X102250000Y-101250000D01*
X102250000Y-99650000D01*
%TO.C,TP5*%
X108410000Y-107400000D02*
X109910000Y-107400000D01*
X109910000Y-108650000D01*
X108410000Y-108650000D01*
X108410000Y-107400000D01*
%TO.C,C24*%
X108550000Y-103850000D02*
X109950000Y-103850000D01*
X109950000Y-104550000D01*
X108550000Y-104550000D01*
X108550000Y-103850000D01*
%TO.C,R2*%
X100600000Y-101550000D02*
X102000000Y-101550000D01*
X102000000Y-102250000D01*
X100600000Y-102250000D01*
X100600000Y-101550000D01*
%TO.C,C16*%
X101140000Y-99640000D02*
X102060000Y-99640000D01*
X102060000Y-101460000D01*
X101140000Y-101460000D01*
X101140000Y-99640000D01*
%TO.C,TP1*%
X100084048Y-108600000D02*
X102284048Y-108600000D01*
X102284048Y-113400000D01*
X100084048Y-113400000D01*
X100084048Y-108600000D01*
%TO.C,C23*%
X105100000Y-99550000D02*
X105800000Y-99550000D01*
X105800000Y-100950000D01*
X105100000Y-100950000D01*
X105100000Y-99550000D01*
%TO.C,C9*%
X105050000Y-104950000D02*
X106450000Y-104950000D01*
X106450000Y-105650000D01*
X105050000Y-105650000D01*
X105050000Y-104950000D01*
%TO.C,C5*%
X104400000Y-99550000D02*
X105100000Y-99550000D01*
X105100000Y-100950000D01*
X104400000Y-100950000D01*
X104400000Y-99550000D01*
%TO.C,C11*%
X105030000Y-103330000D02*
X106850000Y-103330000D01*
X106850000Y-104250000D01*
X105030000Y-104250000D01*
X105030000Y-103330000D01*
%TO.C,X1*%
X107150000Y-105350000D02*
X109250000Y-105350000D01*
X109250000Y-107050000D01*
X107150000Y-107050000D01*
X107150000Y-105350000D01*
%TO.C,C3*%
X106450000Y-104850000D02*
X107150000Y-104850000D01*
X107150000Y-106250000D01*
X106450000Y-106250000D01*
X106450000Y-104850000D01*
%TO.C,C25*%
X107150000Y-103850000D02*
X107850000Y-103850000D01*
X107850000Y-105250000D01*
X107150000Y-105250000D01*
X107150000Y-103850000D01*
%TO.C,J1*%
X109700000Y-99900000D02*
X109900000Y-99900000D01*
X109900000Y-103500000D01*
X109700000Y-103500000D01*
X109700000Y-103850000D01*
X106850000Y-103850000D01*
X106850000Y-103300000D01*
X106550000Y-103300000D01*
X106550000Y-102500000D01*
X105900000Y-102500000D01*
X105900000Y-100900000D01*
X106550000Y-100900000D01*
X106550000Y-99900000D01*
X106850000Y-99900000D01*
X106850000Y-99550000D01*
X109700000Y-99550000D01*
X109700000Y-99900000D01*
%TO.C,C8*%
X100190000Y-99640000D02*
X101110000Y-99640000D01*
X101110000Y-101460000D01*
X100190000Y-101460000D01*
X100190000Y-99640000D01*
%TD*%
M02*
