%TF.GenerationSoftware,KiCad,Pcbnew,10.0.0*%
%TF.CreationDate,2026-08-06T18:40:35+02:00*%
%TF.ProjectId,OpenRX-Lite-UFL,4f70656e-5258-42d4-9c69-74652d55464c,rev?*%
%TF.SameCoordinates,Original*%
%TF.FileFunction,Paste,Bot*%
%TF.FilePolarity,Positive*%
%FSLAX46Y46*%
G04 Gerber Fmt 4.6, Leading zero omitted, Abs format (unit mm)*
G04 Created by KiCad (PCBNEW 10.0.0) date 2026-08-06 18:40:35*
%MOMM*%
%LPD*%
G01*
G04 APERTURE LIST*
G04 Aperture macros list*
%AMRoundRect*
0 Rectangle with rounded corners*
0 $1 Rounding radius*
0 $2 $3 $4 $5 $6 $7 $8 $9 X,Y pos of 4 corners*
0 Add a 4 corners polygon primitive as box body*
4,1,4,$2,$3,$4,$5,$6,$7,$8,$9,$2,$3,0*
0 Add four circle primitives for the rounded corners*
1,1,$1+$1,$2,$3*
1,1,$1+$1,$4,$5*
1,1,$1+$1,$6,$7*
1,1,$1+$1,$8,$9*
0 Add four rect primitives between the rounded corners*
20,1,$1+$1,$2,$3,$4,$5,0*
20,1,$1+$1,$4,$5,$6,$7,0*
20,1,$1+$1,$6,$7,$8,$9,0*
20,1,$1+$1,$8,$9,$2,$3,0*%
%AMRotRect*
0 Rectangle, with rotation*
0 The origin of the aperture is its center*
0 $1 length*
0 $2 width*
0 $3 Rotation angle, in degrees counterclockwise*
0 Add horizontal line*
21,1,$1,$2,0,0,$3*%
%AMFreePoly0*
4,1,15,0.020663,0.130920,0.194661,-0.004411,0.209153,-0.029894,0.209200,-0.030649,0.209200,-0.105861,0.199435,-0.129435,0.175862,-0.139200,-0.175862,-0.139200,-0.199435,-0.129435,-0.209200,-0.105861,-0.209200,0.105861,-0.199435,0.129435,-0.175862,0.139200,-0.003468,0.139200,0.020663,0.130920,0.020663,0.130920,$1*%
%AMFreePoly1*
4,1,15,0.199435,0.139435,0.209200,0.115861,0.209200,0.044138,0.197979,0.017050,0.197419,0.016556,0.020663,-0.120920,-0.003468,-0.129200,-0.175862,-0.129200,-0.199435,-0.119435,-0.209200,-0.095861,-0.209200,0.115861,-0.199435,0.139435,-0.175862,0.149200,0.175862,0.149200,0.199435,0.139435,0.199435,0.139435,$1*%
%AMFreePoly2*
4,1,15,0.199435,0.139435,0.209200,0.115861,0.209200,-0.095861,0.199435,-0.119435,0.175862,-0.129200,0.003468,-0.129200,-0.020663,-0.120920,-0.194661,0.014411,-0.209153,0.039894,-0.209200,0.040649,-0.209200,0.115861,-0.199435,0.139435,-0.175862,0.149200,0.175862,0.149200,0.199435,0.139435,0.199435,0.139435,$1*%
%AMFreePoly3*
4,1,15,0.199435,0.129435,0.209200,0.105861,0.209200,-0.105861,0.199435,-0.129435,0.175862,-0.139200,-0.175862,-0.139200,-0.199435,-0.129435,-0.209200,-0.105861,-0.209200,-0.034138,-0.197979,-0.007050,-0.197419,-0.006556,-0.020663,0.130920,0.003468,0.139200,0.175862,0.139200,0.199435,0.129435,0.199435,0.129435,$1*%
G04 Aperture macros list end*
%ADD10RoundRect,0.079500X-0.100500X0.079500X-0.100500X-0.079500X0.100500X-0.079500X0.100500X0.079500X0*%
%ADD11RoundRect,0.218121X0.431879X-0.431879X0.431879X0.431879X-0.431879X0.431879X-0.431879X-0.431879X0*%
%ADD12RoundRect,0.042500X0.042500X-0.273500X0.042500X0.273500X-0.042500X0.273500X-0.042500X-0.273500X0*%
%ADD13RoundRect,0.042500X0.273500X-0.042500X0.273500X0.042500X-0.273500X0.042500X-0.273500X-0.042500X0*%
%ADD14RoundRect,0.079500X-0.079500X-0.100500X0.079500X-0.100500X0.079500X0.100500X-0.079500X0.100500X0*%
%ADD15RoundRect,0.079500X0.079500X0.100500X-0.079500X0.100500X-0.079500X-0.100500X0.079500X-0.100500X0*%
%ADD16FreePoly0,180.000000*%
%ADD17FreePoly1,180.000000*%
%ADD18FreePoly2,180.000000*%
%ADD19FreePoly3,180.000000*%
%ADD20RotRect,0.363200X0.363200X135.000000*%
%ADD21RoundRect,0.079500X0.100500X-0.079500X0.100500X0.079500X-0.100500X0.079500X-0.100500X-0.079500X0*%
%ADD22RoundRect,0.131750X0.352250X-0.131750X0.352250X0.131750X-0.352250X0.131750X-0.352250X-0.131750X0*%
%ADD23R,0.800000X1.430000*%
%ADD24R,0.548000X0.716000*%
G04 APERTURE END LIST*
D10*
%TO.C,C15*%
X102100000Y-100555000D03*
X102100000Y-101245000D03*
%TD*%
D11*
%TO.C,U1*%
X106075000Y-103425000D03*
X107825000Y-103425000D03*
X106075000Y-101675000D03*
X107825000Y-101675000D03*
D12*
X108700000Y-105000000D03*
X108200000Y-105000000D03*
X107700000Y-105000000D03*
X107200000Y-105000000D03*
X106700000Y-105000000D03*
X106200000Y-105000000D03*
X105700000Y-105000000D03*
X105200000Y-105000000D03*
D13*
X104500000Y-104300000D03*
X104500000Y-103800000D03*
X104500000Y-103300000D03*
X104500000Y-102800000D03*
X104500000Y-102300000D03*
X104500000Y-101800000D03*
X104500000Y-101300000D03*
X104500000Y-100800000D03*
D12*
X105200000Y-100100000D03*
X105700000Y-100100000D03*
X106200000Y-100100000D03*
X106700000Y-100100000D03*
X107200000Y-100100000D03*
X107700000Y-100100000D03*
X108200000Y-100100000D03*
X108700000Y-100100000D03*
D13*
X109400000Y-100800000D03*
X109400000Y-101300000D03*
X109400000Y-101800000D03*
X109400000Y-102300000D03*
X109400000Y-102800000D03*
X109400000Y-103300000D03*
X109400000Y-103800000D03*
X109400000Y-104300000D03*
%TD*%
D14*
%TO.C,C22*%
X108655000Y-106000000D03*
X109345000Y-106000000D03*
%TD*%
D15*
%TO.C,C13*%
X102445000Y-105750000D03*
X101755000Y-105750000D03*
%TD*%
D16*
%TO.C,U2*%
X101380000Y-100630000D03*
D17*
X101380000Y-101270000D03*
D18*
X100520000Y-101270000D03*
D19*
X100520000Y-100630000D03*
D20*
X100950000Y-100950000D03*
%TD*%
D21*
%TO.C,C28*%
X103300000Y-103045000D03*
X103300000Y-102355000D03*
%TD*%
D14*
%TO.C,L2*%
X107255000Y-106000000D03*
X107945000Y-106000000D03*
%TD*%
D22*
%TO.C,L4*%
X104600000Y-108062500D03*
X104600000Y-106137500D03*
%TD*%
D10*
%TO.C,R5*%
X103300000Y-103755000D03*
X103300000Y-104445000D03*
%TD*%
D23*
%TO.C,AE1*%
X106120000Y-107350000D03*
X109280000Y-107350000D03*
%TD*%
D21*
%TO.C,C14*%
X103200000Y-106695000D03*
X103200000Y-106005000D03*
%TD*%
D14*
%TO.C,C27*%
X100605000Y-103450000D03*
X101295000Y-103450000D03*
%TD*%
%TO.C,R3*%
X102805000Y-101450000D03*
X103495000Y-101450000D03*
%TD*%
D10*
%TO.C,R4*%
X102800000Y-100055000D03*
X102800000Y-100745000D03*
%TD*%
D14*
%TO.C,C10*%
X100505000Y-99950000D03*
X101195000Y-99950000D03*
%TD*%
D15*
%TO.C,C26*%
X101295000Y-104150000D03*
X100605000Y-104150000D03*
%TD*%
D24*
%TO.C,OSC1*%
X102350000Y-108000000D03*
X100550000Y-108000000D03*
X100550000Y-106800000D03*
X102350000Y-106800000D03*
%TD*%
D15*
%TO.C,C21*%
X106545000Y-106000000D03*
X105855000Y-106000000D03*
%TD*%
%TO.C,C17*%
X103845000Y-105300000D03*
X103155000Y-105300000D03*
%TD*%
D10*
%TO.C,C12*%
X103500000Y-100055000D03*
X103500000Y-100745000D03*
%TD*%
D21*
%TO.C,C19*%
X100450000Y-105845000D03*
X100450000Y-105155000D03*
%TD*%
D10*
%TO.C,C20*%
X103200000Y-107405000D03*
X103200000Y-108095000D03*
%TD*%
M02*
