%TF.GenerationSoftware,KiCad,Pcbnew,10.0.0*%
%TF.CreationDate,2026-08-06T18:40:35+02:00*%
%TF.ProjectId,OpenRX-Lite-UFL,4f70656e-5258-42d4-9c69-74652d55464c,rev?*%
%TF.SameCoordinates,Original*%
%TF.FileFunction,AssemblyDrawing,Top*%
%FSLAX46Y46*%
G04 Gerber Fmt 4.6, Leading zero omitted, Abs format (unit mm)*
G04 Created by KiCad (PCBNEW 10.0.0) date 2026-08-06 18:40:35*
%MOMM*%
%LPD*%
G01*
G04 APERTURE LIST*
%ADD10C,0.060000*%
%ADD11C,0.040000*%
%ADD12C,0.070000*%
%ADD13C,0.150000*%
%ADD14C,0.050000*%
%ADD15C,0.090000*%
%ADD16C,0.100000*%
G04 APERTURE END LIST*
D10*
X106174762Y-110728189D02*
X105936667Y-110728189D01*
X105936667Y-110728189D02*
X105912858Y-110966284D01*
X105912858Y-110966284D02*
X105936667Y-110942475D01*
X105936667Y-110942475D02*
X105984286Y-110918665D01*
X105984286Y-110918665D02*
X106103334Y-110918665D01*
X106103334Y-110918665D02*
X106150953Y-110942475D01*
X106150953Y-110942475D02*
X106174762Y-110966284D01*
X106174762Y-110966284D02*
X106198572Y-111013903D01*
X106198572Y-111013903D02*
X106198572Y-111132951D01*
X106198572Y-111132951D02*
X106174762Y-111180570D01*
X106174762Y-111180570D02*
X106150953Y-111204380D01*
X106150953Y-111204380D02*
X106103334Y-111228189D01*
X106103334Y-111228189D02*
X105984286Y-111228189D01*
X105984286Y-111228189D02*
X105936667Y-111204380D01*
X105936667Y-111204380D02*
X105912858Y-111180570D01*
X106341429Y-110728189D02*
X106508095Y-111228189D01*
X106508095Y-111228189D02*
X106674762Y-110728189D01*
D11*
X105708333Y-103039765D02*
X105696429Y-103051670D01*
X105696429Y-103051670D02*
X105660714Y-103063574D01*
X105660714Y-103063574D02*
X105636905Y-103063574D01*
X105636905Y-103063574D02*
X105601191Y-103051670D01*
X105601191Y-103051670D02*
X105577381Y-103027860D01*
X105577381Y-103027860D02*
X105565476Y-103004050D01*
X105565476Y-103004050D02*
X105553572Y-102956431D01*
X105553572Y-102956431D02*
X105553572Y-102920717D01*
X105553572Y-102920717D02*
X105565476Y-102873098D01*
X105565476Y-102873098D02*
X105577381Y-102849289D01*
X105577381Y-102849289D02*
X105601191Y-102825479D01*
X105601191Y-102825479D02*
X105636905Y-102813574D01*
X105636905Y-102813574D02*
X105660714Y-102813574D01*
X105660714Y-102813574D02*
X105696429Y-102825479D01*
X105696429Y-102825479D02*
X105708333Y-102837384D01*
X105922619Y-102813574D02*
X105875000Y-102813574D01*
X105875000Y-102813574D02*
X105851191Y-102825479D01*
X105851191Y-102825479D02*
X105839286Y-102837384D01*
X105839286Y-102837384D02*
X105815476Y-102873098D01*
X105815476Y-102873098D02*
X105803572Y-102920717D01*
X105803572Y-102920717D02*
X105803572Y-103015955D01*
X105803572Y-103015955D02*
X105815476Y-103039765D01*
X105815476Y-103039765D02*
X105827381Y-103051670D01*
X105827381Y-103051670D02*
X105851191Y-103063574D01*
X105851191Y-103063574D02*
X105898810Y-103063574D01*
X105898810Y-103063574D02*
X105922619Y-103051670D01*
X105922619Y-103051670D02*
X105934524Y-103039765D01*
X105934524Y-103039765D02*
X105946429Y-103015955D01*
X105946429Y-103015955D02*
X105946429Y-102956431D01*
X105946429Y-102956431D02*
X105934524Y-102932622D01*
X105934524Y-102932622D02*
X105922619Y-102920717D01*
X105922619Y-102920717D02*
X105898810Y-102908812D01*
X105898810Y-102908812D02*
X105851191Y-102908812D01*
X105851191Y-102908812D02*
X105827381Y-102920717D01*
X105827381Y-102920717D02*
X105815476Y-102932622D01*
X105815476Y-102932622D02*
X105803572Y-102956431D01*
X109713574Y-105291666D02*
X109713574Y-105410714D01*
X109713574Y-105410714D02*
X109463574Y-105410714D01*
X109713574Y-105077380D02*
X109713574Y-105220237D01*
X109713574Y-105148809D02*
X109463574Y-105148809D01*
X109463574Y-105148809D02*
X109499289Y-105172618D01*
X109499289Y-105172618D02*
X109523098Y-105196428D01*
X109523098Y-105196428D02*
X109535003Y-105220237D01*
D10*
X108429047Y-110751999D02*
X108381428Y-110728189D01*
X108381428Y-110728189D02*
X108309999Y-110728189D01*
X108309999Y-110728189D02*
X108238571Y-110751999D01*
X108238571Y-110751999D02*
X108190952Y-110799618D01*
X108190952Y-110799618D02*
X108167142Y-110847237D01*
X108167142Y-110847237D02*
X108143333Y-110942475D01*
X108143333Y-110942475D02*
X108143333Y-111013903D01*
X108143333Y-111013903D02*
X108167142Y-111109141D01*
X108167142Y-111109141D02*
X108190952Y-111156760D01*
X108190952Y-111156760D02*
X108238571Y-111204380D01*
X108238571Y-111204380D02*
X108309999Y-111228189D01*
X108309999Y-111228189D02*
X108357618Y-111228189D01*
X108357618Y-111228189D02*
X108429047Y-111204380D01*
X108429047Y-111204380D02*
X108452856Y-111180570D01*
X108452856Y-111180570D02*
X108452856Y-111013903D01*
X108452856Y-111013903D02*
X108357618Y-111013903D01*
X108667142Y-111228189D02*
X108667142Y-110728189D01*
X108667142Y-110728189D02*
X108952856Y-111228189D01*
X108952856Y-111228189D02*
X108952856Y-110728189D01*
X109190952Y-111228189D02*
X109190952Y-110728189D01*
X109190952Y-110728189D02*
X109310000Y-110728189D01*
X109310000Y-110728189D02*
X109381428Y-110751999D01*
X109381428Y-110751999D02*
X109429047Y-110799618D01*
X109429047Y-110799618D02*
X109452857Y-110847237D01*
X109452857Y-110847237D02*
X109476666Y-110942475D01*
X109476666Y-110942475D02*
X109476666Y-111013903D01*
X109476666Y-111013903D02*
X109452857Y-111109141D01*
X109452857Y-111109141D02*
X109429047Y-111156760D01*
X109429047Y-111156760D02*
X109381428Y-111204380D01*
X109381428Y-111204380D02*
X109310000Y-111228189D01*
X109310000Y-111228189D02*
X109190952Y-111228189D01*
D12*
X103104762Y-101871883D02*
X102971429Y-101871883D01*
X102971429Y-102081407D02*
X102971429Y-101681407D01*
X102971429Y-101681407D02*
X103161905Y-101681407D01*
X103504762Y-102081407D02*
X103314286Y-102081407D01*
X103314286Y-102081407D02*
X103314286Y-101681407D01*
X103847619Y-102081407D02*
X103619048Y-102081407D01*
X103733334Y-102081407D02*
X103733334Y-101681407D01*
X103733334Y-101681407D02*
X103695238Y-101738550D01*
X103695238Y-101738550D02*
X103657143Y-101776645D01*
X103657143Y-101776645D02*
X103619048Y-101795693D01*
D11*
X109689765Y-106691666D02*
X109701670Y-106703570D01*
X109701670Y-106703570D02*
X109713574Y-106739285D01*
X109713574Y-106739285D02*
X109713574Y-106763094D01*
X109713574Y-106763094D02*
X109701670Y-106798808D01*
X109701670Y-106798808D02*
X109677860Y-106822618D01*
X109677860Y-106822618D02*
X109654050Y-106834523D01*
X109654050Y-106834523D02*
X109606431Y-106846427D01*
X109606431Y-106846427D02*
X109570717Y-106846427D01*
X109570717Y-106846427D02*
X109523098Y-106834523D01*
X109523098Y-106834523D02*
X109499289Y-106822618D01*
X109499289Y-106822618D02*
X109475479Y-106798808D01*
X109475479Y-106798808D02*
X109463574Y-106763094D01*
X109463574Y-106763094D02*
X109463574Y-106739285D01*
X109463574Y-106739285D02*
X109475479Y-106703570D01*
X109475479Y-106703570D02*
X109487384Y-106691666D01*
X109713574Y-106453570D02*
X109713574Y-106596427D01*
X109713574Y-106524999D02*
X109463574Y-106524999D01*
X109463574Y-106524999D02*
X109499289Y-106548808D01*
X109499289Y-106548808D02*
X109523098Y-106572618D01*
X109523098Y-106572618D02*
X109535003Y-106596427D01*
X108508333Y-104989765D02*
X108496429Y-105001670D01*
X108496429Y-105001670D02*
X108460714Y-105013574D01*
X108460714Y-105013574D02*
X108436905Y-105013574D01*
X108436905Y-105013574D02*
X108401191Y-105001670D01*
X108401191Y-105001670D02*
X108377381Y-104977860D01*
X108377381Y-104977860D02*
X108365476Y-104954050D01*
X108365476Y-104954050D02*
X108353572Y-104906431D01*
X108353572Y-104906431D02*
X108353572Y-104870717D01*
X108353572Y-104870717D02*
X108365476Y-104823098D01*
X108365476Y-104823098D02*
X108377381Y-104799289D01*
X108377381Y-104799289D02*
X108401191Y-104775479D01*
X108401191Y-104775479D02*
X108436905Y-104763574D01*
X108436905Y-104763574D02*
X108460714Y-104763574D01*
X108460714Y-104763574D02*
X108496429Y-104775479D01*
X108496429Y-104775479D02*
X108508333Y-104787384D01*
X108722619Y-104846908D02*
X108722619Y-105013574D01*
X108663095Y-104751670D02*
X108603572Y-104930241D01*
X108603572Y-104930241D02*
X108758333Y-104930241D01*
D10*
X103343096Y-110728189D02*
X103628810Y-110728189D01*
X103485953Y-111228189D02*
X103485953Y-110728189D01*
X103747857Y-110728189D02*
X104081190Y-111228189D01*
X104081190Y-110728189D02*
X103747857Y-111228189D01*
D11*
X105708333Y-104713574D02*
X105589285Y-104713574D01*
X105589285Y-104713574D02*
X105589285Y-104463574D01*
X105767857Y-104463574D02*
X105922619Y-104463574D01*
X105922619Y-104463574D02*
X105839285Y-104558812D01*
X105839285Y-104558812D02*
X105875000Y-104558812D01*
X105875000Y-104558812D02*
X105898809Y-104570717D01*
X105898809Y-104570717D02*
X105910714Y-104582622D01*
X105910714Y-104582622D02*
X105922619Y-104606431D01*
X105922619Y-104606431D02*
X105922619Y-104665955D01*
X105922619Y-104665955D02*
X105910714Y-104689765D01*
X105910714Y-104689765D02*
X105898809Y-104701670D01*
X105898809Y-104701670D02*
X105875000Y-104713574D01*
X105875000Y-104713574D02*
X105803571Y-104713574D01*
X105803571Y-104713574D02*
X105779762Y-104701670D01*
X105779762Y-104701670D02*
X105767857Y-104689765D01*
D13*
X102311905Y-100904819D02*
X102311905Y-99904819D01*
X102311905Y-99904819D02*
X102550000Y-99904819D01*
X102550000Y-99904819D02*
X102692857Y-99952438D01*
X102692857Y-99952438D02*
X102788095Y-100047676D01*
X102788095Y-100047676D02*
X102835714Y-100142914D01*
X102835714Y-100142914D02*
X102883333Y-100333390D01*
X102883333Y-100333390D02*
X102883333Y-100476247D01*
X102883333Y-100476247D02*
X102835714Y-100666723D01*
X102835714Y-100666723D02*
X102788095Y-100761961D01*
X102788095Y-100761961D02*
X102692857Y-100857200D01*
X102692857Y-100857200D02*
X102550000Y-100904819D01*
X102550000Y-100904819D02*
X102311905Y-100904819D01*
X103835714Y-100904819D02*
X103264286Y-100904819D01*
X103550000Y-100904819D02*
X103550000Y-99904819D01*
X103550000Y-99904819D02*
X103454762Y-100047676D01*
X103454762Y-100047676D02*
X103359524Y-100142914D01*
X103359524Y-100142914D02*
X103264286Y-100190533D01*
D14*
X108888571Y-108035161D02*
X108917143Y-108044685D01*
X108917143Y-108044685D02*
X108926666Y-108054209D01*
X108926666Y-108054209D02*
X108936190Y-108073257D01*
X108936190Y-108073257D02*
X108936190Y-108101828D01*
X108936190Y-108101828D02*
X108926666Y-108120876D01*
X108926666Y-108120876D02*
X108917143Y-108130400D01*
X108917143Y-108130400D02*
X108898095Y-108139923D01*
X108898095Y-108139923D02*
X108821905Y-108139923D01*
X108821905Y-108139923D02*
X108821905Y-107939923D01*
X108821905Y-107939923D02*
X108888571Y-107939923D01*
X108888571Y-107939923D02*
X108907619Y-107949447D01*
X108907619Y-107949447D02*
X108917143Y-107958971D01*
X108917143Y-107958971D02*
X108926666Y-107978019D01*
X108926666Y-107978019D02*
X108926666Y-107997066D01*
X108926666Y-107997066D02*
X108917143Y-108016114D01*
X108917143Y-108016114D02*
X108907619Y-108025638D01*
X108907619Y-108025638D02*
X108888571Y-108035161D01*
X108888571Y-108035161D02*
X108821905Y-108035161D01*
X109060000Y-107939923D02*
X109098095Y-107939923D01*
X109098095Y-107939923D02*
X109117143Y-107949447D01*
X109117143Y-107949447D02*
X109136190Y-107968495D01*
X109136190Y-107968495D02*
X109145714Y-108006590D01*
X109145714Y-108006590D02*
X109145714Y-108073257D01*
X109145714Y-108073257D02*
X109136190Y-108111352D01*
X109136190Y-108111352D02*
X109117143Y-108130400D01*
X109117143Y-108130400D02*
X109098095Y-108139923D01*
X109098095Y-108139923D02*
X109060000Y-108139923D01*
X109060000Y-108139923D02*
X109040952Y-108130400D01*
X109040952Y-108130400D02*
X109021905Y-108111352D01*
X109021905Y-108111352D02*
X109012381Y-108073257D01*
X109012381Y-108073257D02*
X109012381Y-108006590D01*
X109012381Y-108006590D02*
X109021905Y-107968495D01*
X109021905Y-107968495D02*
X109040952Y-107949447D01*
X109040952Y-107949447D02*
X109060000Y-107939923D01*
X109269524Y-107939923D02*
X109307619Y-107939923D01*
X109307619Y-107939923D02*
X109326667Y-107949447D01*
X109326667Y-107949447D02*
X109345714Y-107968495D01*
X109345714Y-107968495D02*
X109355238Y-108006590D01*
X109355238Y-108006590D02*
X109355238Y-108073257D01*
X109355238Y-108073257D02*
X109345714Y-108111352D01*
X109345714Y-108111352D02*
X109326667Y-108130400D01*
X109326667Y-108130400D02*
X109307619Y-108139923D01*
X109307619Y-108139923D02*
X109269524Y-108139923D01*
X109269524Y-108139923D02*
X109250476Y-108130400D01*
X109250476Y-108130400D02*
X109231429Y-108111352D01*
X109231429Y-108111352D02*
X109221905Y-108073257D01*
X109221905Y-108073257D02*
X109221905Y-108006590D01*
X109221905Y-108006590D02*
X109231429Y-107968495D01*
X109231429Y-107968495D02*
X109250476Y-107949447D01*
X109250476Y-107949447D02*
X109269524Y-107939923D01*
X109412381Y-107939923D02*
X109526667Y-107939923D01*
X109469524Y-108139923D02*
X109469524Y-107939923D01*
D11*
X109089285Y-104289765D02*
X109077381Y-104301670D01*
X109077381Y-104301670D02*
X109041666Y-104313574D01*
X109041666Y-104313574D02*
X109017857Y-104313574D01*
X109017857Y-104313574D02*
X108982143Y-104301670D01*
X108982143Y-104301670D02*
X108958333Y-104277860D01*
X108958333Y-104277860D02*
X108946428Y-104254050D01*
X108946428Y-104254050D02*
X108934524Y-104206431D01*
X108934524Y-104206431D02*
X108934524Y-104170717D01*
X108934524Y-104170717D02*
X108946428Y-104123098D01*
X108946428Y-104123098D02*
X108958333Y-104099289D01*
X108958333Y-104099289D02*
X108982143Y-104075479D01*
X108982143Y-104075479D02*
X109017857Y-104063574D01*
X109017857Y-104063574D02*
X109041666Y-104063574D01*
X109041666Y-104063574D02*
X109077381Y-104075479D01*
X109077381Y-104075479D02*
X109089285Y-104087384D01*
X109184524Y-104087384D02*
X109196428Y-104075479D01*
X109196428Y-104075479D02*
X109220238Y-104063574D01*
X109220238Y-104063574D02*
X109279762Y-104063574D01*
X109279762Y-104063574D02*
X109303571Y-104075479D01*
X109303571Y-104075479D02*
X109315476Y-104087384D01*
X109315476Y-104087384D02*
X109327381Y-104111193D01*
X109327381Y-104111193D02*
X109327381Y-104135003D01*
X109327381Y-104135003D02*
X109315476Y-104170717D01*
X109315476Y-104170717D02*
X109172619Y-104313574D01*
X109172619Y-104313574D02*
X109327381Y-104313574D01*
X109541666Y-104146908D02*
X109541666Y-104313574D01*
X109482142Y-104051670D02*
X109422619Y-104230241D01*
X109422619Y-104230241D02*
X109577380Y-104230241D01*
X101258333Y-102013574D02*
X101175000Y-101894527D01*
X101115476Y-102013574D02*
X101115476Y-101763574D01*
X101115476Y-101763574D02*
X101210714Y-101763574D01*
X101210714Y-101763574D02*
X101234524Y-101775479D01*
X101234524Y-101775479D02*
X101246429Y-101787384D01*
X101246429Y-101787384D02*
X101258333Y-101811193D01*
X101258333Y-101811193D02*
X101258333Y-101846908D01*
X101258333Y-101846908D02*
X101246429Y-101870717D01*
X101246429Y-101870717D02*
X101234524Y-101882622D01*
X101234524Y-101882622D02*
X101210714Y-101894527D01*
X101210714Y-101894527D02*
X101115476Y-101894527D01*
X101353572Y-101787384D02*
X101365476Y-101775479D01*
X101365476Y-101775479D02*
X101389286Y-101763574D01*
X101389286Y-101763574D02*
X101448810Y-101763574D01*
X101448810Y-101763574D02*
X101472619Y-101775479D01*
X101472619Y-101775479D02*
X101484524Y-101787384D01*
X101484524Y-101787384D02*
X101496429Y-101811193D01*
X101496429Y-101811193D02*
X101496429Y-101835003D01*
X101496429Y-101835003D02*
X101484524Y-101870717D01*
X101484524Y-101870717D02*
X101341667Y-102013574D01*
X101341667Y-102013574D02*
X101496429Y-102013574D01*
X101689765Y-100710714D02*
X101701670Y-100722618D01*
X101701670Y-100722618D02*
X101713574Y-100758333D01*
X101713574Y-100758333D02*
X101713574Y-100782142D01*
X101713574Y-100782142D02*
X101701670Y-100817856D01*
X101701670Y-100817856D02*
X101677860Y-100841666D01*
X101677860Y-100841666D02*
X101654050Y-100853571D01*
X101654050Y-100853571D02*
X101606431Y-100865475D01*
X101606431Y-100865475D02*
X101570717Y-100865475D01*
X101570717Y-100865475D02*
X101523098Y-100853571D01*
X101523098Y-100853571D02*
X101499289Y-100841666D01*
X101499289Y-100841666D02*
X101475479Y-100817856D01*
X101475479Y-100817856D02*
X101463574Y-100782142D01*
X101463574Y-100782142D02*
X101463574Y-100758333D01*
X101463574Y-100758333D02*
X101475479Y-100722618D01*
X101475479Y-100722618D02*
X101487384Y-100710714D01*
X101713574Y-100472618D02*
X101713574Y-100615475D01*
X101713574Y-100544047D02*
X101463574Y-100544047D01*
X101463574Y-100544047D02*
X101499289Y-100567856D01*
X101499289Y-100567856D02*
X101523098Y-100591666D01*
X101523098Y-100591666D02*
X101535003Y-100615475D01*
X101463574Y-100258333D02*
X101463574Y-100305952D01*
X101463574Y-100305952D02*
X101475479Y-100329761D01*
X101475479Y-100329761D02*
X101487384Y-100341666D01*
X101487384Y-100341666D02*
X101523098Y-100365476D01*
X101523098Y-100365476D02*
X101570717Y-100377380D01*
X101570717Y-100377380D02*
X101665955Y-100377380D01*
X101665955Y-100377380D02*
X101689765Y-100365476D01*
X101689765Y-100365476D02*
X101701670Y-100353571D01*
X101701670Y-100353571D02*
X101713574Y-100329761D01*
X101713574Y-100329761D02*
X101713574Y-100282142D01*
X101713574Y-100282142D02*
X101701670Y-100258333D01*
X101701670Y-100258333D02*
X101689765Y-100246428D01*
X101689765Y-100246428D02*
X101665955Y-100234523D01*
X101665955Y-100234523D02*
X101606431Y-100234523D01*
X101606431Y-100234523D02*
X101582622Y-100246428D01*
X101582622Y-100246428D02*
X101570717Y-100258333D01*
X101570717Y-100258333D02*
X101558812Y-100282142D01*
X101558812Y-100282142D02*
X101558812Y-100329761D01*
X101558812Y-100329761D02*
X101570717Y-100353571D01*
X101570717Y-100353571D02*
X101582622Y-100365476D01*
X101582622Y-100365476D02*
X101606431Y-100377380D01*
D10*
X101100714Y-111228189D02*
X100934048Y-110990094D01*
X100815000Y-111228189D02*
X100815000Y-110728189D01*
X100815000Y-110728189D02*
X101005476Y-110728189D01*
X101005476Y-110728189D02*
X101053095Y-110751999D01*
X101053095Y-110751999D02*
X101076905Y-110775808D01*
X101076905Y-110775808D02*
X101100714Y-110823427D01*
X101100714Y-110823427D02*
X101100714Y-110894856D01*
X101100714Y-110894856D02*
X101076905Y-110942475D01*
X101076905Y-110942475D02*
X101053095Y-110966284D01*
X101053095Y-110966284D02*
X101005476Y-110990094D01*
X101005476Y-110990094D02*
X100815000Y-110990094D01*
X101267381Y-110728189D02*
X101600714Y-111228189D01*
X101600714Y-110728189D02*
X101267381Y-111228189D01*
D11*
X105539765Y-100410714D02*
X105551670Y-100422618D01*
X105551670Y-100422618D02*
X105563574Y-100458333D01*
X105563574Y-100458333D02*
X105563574Y-100482142D01*
X105563574Y-100482142D02*
X105551670Y-100517856D01*
X105551670Y-100517856D02*
X105527860Y-100541666D01*
X105527860Y-100541666D02*
X105504050Y-100553571D01*
X105504050Y-100553571D02*
X105456431Y-100565475D01*
X105456431Y-100565475D02*
X105420717Y-100565475D01*
X105420717Y-100565475D02*
X105373098Y-100553571D01*
X105373098Y-100553571D02*
X105349289Y-100541666D01*
X105349289Y-100541666D02*
X105325479Y-100517856D01*
X105325479Y-100517856D02*
X105313574Y-100482142D01*
X105313574Y-100482142D02*
X105313574Y-100458333D01*
X105313574Y-100458333D02*
X105325479Y-100422618D01*
X105325479Y-100422618D02*
X105337384Y-100410714D01*
X105337384Y-100315475D02*
X105325479Y-100303571D01*
X105325479Y-100303571D02*
X105313574Y-100279761D01*
X105313574Y-100279761D02*
X105313574Y-100220237D01*
X105313574Y-100220237D02*
X105325479Y-100196428D01*
X105325479Y-100196428D02*
X105337384Y-100184523D01*
X105337384Y-100184523D02*
X105361193Y-100172618D01*
X105361193Y-100172618D02*
X105385003Y-100172618D01*
X105385003Y-100172618D02*
X105420717Y-100184523D01*
X105420717Y-100184523D02*
X105563574Y-100327380D01*
X105563574Y-100327380D02*
X105563574Y-100172618D01*
X105313574Y-100089285D02*
X105313574Y-99934523D01*
X105313574Y-99934523D02*
X105408812Y-100017857D01*
X105408812Y-100017857D02*
X105408812Y-99982142D01*
X105408812Y-99982142D02*
X105420717Y-99958333D01*
X105420717Y-99958333D02*
X105432622Y-99946428D01*
X105432622Y-99946428D02*
X105456431Y-99934523D01*
X105456431Y-99934523D02*
X105515955Y-99934523D01*
X105515955Y-99934523D02*
X105539765Y-99946428D01*
X105539765Y-99946428D02*
X105551670Y-99958333D01*
X105551670Y-99958333D02*
X105563574Y-99982142D01*
X105563574Y-99982142D02*
X105563574Y-100053571D01*
X105563574Y-100053571D02*
X105551670Y-100077380D01*
X105551670Y-100077380D02*
X105539765Y-100089285D01*
D13*
X101838095Y-104504819D02*
X101838095Y-105314342D01*
X101838095Y-105314342D02*
X101885714Y-105409580D01*
X101885714Y-105409580D02*
X101933333Y-105457200D01*
X101933333Y-105457200D02*
X102028571Y-105504819D01*
X102028571Y-105504819D02*
X102219047Y-105504819D01*
X102219047Y-105504819D02*
X102314285Y-105457200D01*
X102314285Y-105457200D02*
X102361904Y-105409580D01*
X102361904Y-105409580D02*
X102409523Y-105314342D01*
X102409523Y-105314342D02*
X102409523Y-104504819D01*
X102790476Y-104504819D02*
X103409523Y-104504819D01*
X103409523Y-104504819D02*
X103076190Y-104885771D01*
X103076190Y-104885771D02*
X103219047Y-104885771D01*
X103219047Y-104885771D02*
X103314285Y-104933390D01*
X103314285Y-104933390D02*
X103361904Y-104981009D01*
X103361904Y-104981009D02*
X103409523Y-105076247D01*
X103409523Y-105076247D02*
X103409523Y-105314342D01*
X103409523Y-105314342D02*
X103361904Y-105409580D01*
X103361904Y-105409580D02*
X103314285Y-105457200D01*
X103314285Y-105457200D02*
X103219047Y-105504819D01*
X103219047Y-105504819D02*
X102933333Y-105504819D01*
X102933333Y-105504819D02*
X102838095Y-105457200D01*
X102838095Y-105457200D02*
X102790476Y-105409580D01*
D11*
X105708333Y-105389765D02*
X105696429Y-105401670D01*
X105696429Y-105401670D02*
X105660714Y-105413574D01*
X105660714Y-105413574D02*
X105636905Y-105413574D01*
X105636905Y-105413574D02*
X105601191Y-105401670D01*
X105601191Y-105401670D02*
X105577381Y-105377860D01*
X105577381Y-105377860D02*
X105565476Y-105354050D01*
X105565476Y-105354050D02*
X105553572Y-105306431D01*
X105553572Y-105306431D02*
X105553572Y-105270717D01*
X105553572Y-105270717D02*
X105565476Y-105223098D01*
X105565476Y-105223098D02*
X105577381Y-105199289D01*
X105577381Y-105199289D02*
X105601191Y-105175479D01*
X105601191Y-105175479D02*
X105636905Y-105163574D01*
X105636905Y-105163574D02*
X105660714Y-105163574D01*
X105660714Y-105163574D02*
X105696429Y-105175479D01*
X105696429Y-105175479D02*
X105708333Y-105187384D01*
X105827381Y-105413574D02*
X105875000Y-105413574D01*
X105875000Y-105413574D02*
X105898810Y-105401670D01*
X105898810Y-105401670D02*
X105910714Y-105389765D01*
X105910714Y-105389765D02*
X105934524Y-105354050D01*
X105934524Y-105354050D02*
X105946429Y-105306431D01*
X105946429Y-105306431D02*
X105946429Y-105211193D01*
X105946429Y-105211193D02*
X105934524Y-105187384D01*
X105934524Y-105187384D02*
X105922619Y-105175479D01*
X105922619Y-105175479D02*
X105898810Y-105163574D01*
X105898810Y-105163574D02*
X105851191Y-105163574D01*
X105851191Y-105163574D02*
X105827381Y-105175479D01*
X105827381Y-105175479D02*
X105815476Y-105187384D01*
X105815476Y-105187384D02*
X105803572Y-105211193D01*
X105803572Y-105211193D02*
X105803572Y-105270717D01*
X105803572Y-105270717D02*
X105815476Y-105294527D01*
X105815476Y-105294527D02*
X105827381Y-105306431D01*
X105827381Y-105306431D02*
X105851191Y-105318336D01*
X105851191Y-105318336D02*
X105898810Y-105318336D01*
X105898810Y-105318336D02*
X105922619Y-105306431D01*
X105922619Y-105306431D02*
X105934524Y-105294527D01*
X105934524Y-105294527D02*
X105946429Y-105270717D01*
X104839765Y-100291666D02*
X104851670Y-100303570D01*
X104851670Y-100303570D02*
X104863574Y-100339285D01*
X104863574Y-100339285D02*
X104863574Y-100363094D01*
X104863574Y-100363094D02*
X104851670Y-100398808D01*
X104851670Y-100398808D02*
X104827860Y-100422618D01*
X104827860Y-100422618D02*
X104804050Y-100434523D01*
X104804050Y-100434523D02*
X104756431Y-100446427D01*
X104756431Y-100446427D02*
X104720717Y-100446427D01*
X104720717Y-100446427D02*
X104673098Y-100434523D01*
X104673098Y-100434523D02*
X104649289Y-100422618D01*
X104649289Y-100422618D02*
X104625479Y-100398808D01*
X104625479Y-100398808D02*
X104613574Y-100363094D01*
X104613574Y-100363094D02*
X104613574Y-100339285D01*
X104613574Y-100339285D02*
X104625479Y-100303570D01*
X104625479Y-100303570D02*
X104637384Y-100291666D01*
X104613574Y-100065475D02*
X104613574Y-100184523D01*
X104613574Y-100184523D02*
X104732622Y-100196427D01*
X104732622Y-100196427D02*
X104720717Y-100184523D01*
X104720717Y-100184523D02*
X104708812Y-100160713D01*
X104708812Y-100160713D02*
X104708812Y-100101189D01*
X104708812Y-100101189D02*
X104720717Y-100077380D01*
X104720717Y-100077380D02*
X104732622Y-100065475D01*
X104732622Y-100065475D02*
X104756431Y-100053570D01*
X104756431Y-100053570D02*
X104815955Y-100053570D01*
X104815955Y-100053570D02*
X104839765Y-100065475D01*
X104839765Y-100065475D02*
X104851670Y-100077380D01*
X104851670Y-100077380D02*
X104863574Y-100101189D01*
X104863574Y-100101189D02*
X104863574Y-100160713D01*
X104863574Y-100160713D02*
X104851670Y-100184523D01*
X104851670Y-100184523D02*
X104839765Y-100196427D01*
X105779285Y-103879765D02*
X105767381Y-103891670D01*
X105767381Y-103891670D02*
X105731666Y-103903574D01*
X105731666Y-103903574D02*
X105707857Y-103903574D01*
X105707857Y-103903574D02*
X105672143Y-103891670D01*
X105672143Y-103891670D02*
X105648333Y-103867860D01*
X105648333Y-103867860D02*
X105636428Y-103844050D01*
X105636428Y-103844050D02*
X105624524Y-103796431D01*
X105624524Y-103796431D02*
X105624524Y-103760717D01*
X105624524Y-103760717D02*
X105636428Y-103713098D01*
X105636428Y-103713098D02*
X105648333Y-103689289D01*
X105648333Y-103689289D02*
X105672143Y-103665479D01*
X105672143Y-103665479D02*
X105707857Y-103653574D01*
X105707857Y-103653574D02*
X105731666Y-103653574D01*
X105731666Y-103653574D02*
X105767381Y-103665479D01*
X105767381Y-103665479D02*
X105779285Y-103677384D01*
X106017381Y-103903574D02*
X105874524Y-103903574D01*
X105945952Y-103903574D02*
X105945952Y-103653574D01*
X105945952Y-103653574D02*
X105922143Y-103689289D01*
X105922143Y-103689289D02*
X105898333Y-103713098D01*
X105898333Y-103713098D02*
X105874524Y-103725003D01*
X106255476Y-103903574D02*
X106112619Y-103903574D01*
X106184047Y-103903574D02*
X106184047Y-103653574D01*
X106184047Y-103653574D02*
X106160238Y-103689289D01*
X106160238Y-103689289D02*
X106136428Y-103713098D01*
X106136428Y-103713098D02*
X106112619Y-103725003D01*
D13*
X107390476Y-105654819D02*
X108057142Y-106654819D01*
X108057142Y-105654819D02*
X107390476Y-106654819D01*
X108961904Y-106654819D02*
X108390476Y-106654819D01*
X108676190Y-106654819D02*
X108676190Y-105654819D01*
X108676190Y-105654819D02*
X108580952Y-105797676D01*
X108580952Y-105797676D02*
X108485714Y-105892914D01*
X108485714Y-105892914D02*
X108390476Y-105940533D01*
D11*
X106889765Y-105591666D02*
X106901670Y-105603570D01*
X106901670Y-105603570D02*
X106913574Y-105639285D01*
X106913574Y-105639285D02*
X106913574Y-105663094D01*
X106913574Y-105663094D02*
X106901670Y-105698808D01*
X106901670Y-105698808D02*
X106877860Y-105722618D01*
X106877860Y-105722618D02*
X106854050Y-105734523D01*
X106854050Y-105734523D02*
X106806431Y-105746427D01*
X106806431Y-105746427D02*
X106770717Y-105746427D01*
X106770717Y-105746427D02*
X106723098Y-105734523D01*
X106723098Y-105734523D02*
X106699289Y-105722618D01*
X106699289Y-105722618D02*
X106675479Y-105698808D01*
X106675479Y-105698808D02*
X106663574Y-105663094D01*
X106663574Y-105663094D02*
X106663574Y-105639285D01*
X106663574Y-105639285D02*
X106675479Y-105603570D01*
X106675479Y-105603570D02*
X106687384Y-105591666D01*
X106663574Y-105508332D02*
X106663574Y-105353570D01*
X106663574Y-105353570D02*
X106758812Y-105436904D01*
X106758812Y-105436904D02*
X106758812Y-105401189D01*
X106758812Y-105401189D02*
X106770717Y-105377380D01*
X106770717Y-105377380D02*
X106782622Y-105365475D01*
X106782622Y-105365475D02*
X106806431Y-105353570D01*
X106806431Y-105353570D02*
X106865955Y-105353570D01*
X106865955Y-105353570D02*
X106889765Y-105365475D01*
X106889765Y-105365475D02*
X106901670Y-105377380D01*
X106901670Y-105377380D02*
X106913574Y-105401189D01*
X106913574Y-105401189D02*
X106913574Y-105472618D01*
X106913574Y-105472618D02*
X106901670Y-105496427D01*
X106901670Y-105496427D02*
X106889765Y-105508332D01*
X107589765Y-104710714D02*
X107601670Y-104722618D01*
X107601670Y-104722618D02*
X107613574Y-104758333D01*
X107613574Y-104758333D02*
X107613574Y-104782142D01*
X107613574Y-104782142D02*
X107601670Y-104817856D01*
X107601670Y-104817856D02*
X107577860Y-104841666D01*
X107577860Y-104841666D02*
X107554050Y-104853571D01*
X107554050Y-104853571D02*
X107506431Y-104865475D01*
X107506431Y-104865475D02*
X107470717Y-104865475D01*
X107470717Y-104865475D02*
X107423098Y-104853571D01*
X107423098Y-104853571D02*
X107399289Y-104841666D01*
X107399289Y-104841666D02*
X107375479Y-104817856D01*
X107375479Y-104817856D02*
X107363574Y-104782142D01*
X107363574Y-104782142D02*
X107363574Y-104758333D01*
X107363574Y-104758333D02*
X107375479Y-104722618D01*
X107375479Y-104722618D02*
X107387384Y-104710714D01*
X107387384Y-104615475D02*
X107375479Y-104603571D01*
X107375479Y-104603571D02*
X107363574Y-104579761D01*
X107363574Y-104579761D02*
X107363574Y-104520237D01*
X107363574Y-104520237D02*
X107375479Y-104496428D01*
X107375479Y-104496428D02*
X107387384Y-104484523D01*
X107387384Y-104484523D02*
X107411193Y-104472618D01*
X107411193Y-104472618D02*
X107435003Y-104472618D01*
X107435003Y-104472618D02*
X107470717Y-104484523D01*
X107470717Y-104484523D02*
X107613574Y-104627380D01*
X107613574Y-104627380D02*
X107613574Y-104472618D01*
X107363574Y-104246428D02*
X107363574Y-104365476D01*
X107363574Y-104365476D02*
X107482622Y-104377380D01*
X107482622Y-104377380D02*
X107470717Y-104365476D01*
X107470717Y-104365476D02*
X107458812Y-104341666D01*
X107458812Y-104341666D02*
X107458812Y-104282142D01*
X107458812Y-104282142D02*
X107470717Y-104258333D01*
X107470717Y-104258333D02*
X107482622Y-104246428D01*
X107482622Y-104246428D02*
X107506431Y-104234523D01*
X107506431Y-104234523D02*
X107565955Y-104234523D01*
X107565955Y-104234523D02*
X107589765Y-104246428D01*
X107589765Y-104246428D02*
X107601670Y-104258333D01*
X107601670Y-104258333D02*
X107613574Y-104282142D01*
X107613574Y-104282142D02*
X107613574Y-104341666D01*
X107613574Y-104341666D02*
X107601670Y-104365476D01*
X107601670Y-104365476D02*
X107589765Y-104377380D01*
D15*
X107772891Y-101900000D02*
X108201462Y-101900000D01*
X108201462Y-101900000D02*
X108287177Y-101928571D01*
X108287177Y-101928571D02*
X108344320Y-101985714D01*
X108344320Y-101985714D02*
X108372891Y-102071428D01*
X108372891Y-102071428D02*
X108372891Y-102128571D01*
X108372891Y-101300000D02*
X108372891Y-101642857D01*
X108372891Y-101471428D02*
X107772891Y-101471428D01*
X107772891Y-101471428D02*
X107858605Y-101528571D01*
X107858605Y-101528571D02*
X107915748Y-101585714D01*
X107915748Y-101585714D02*
X107944320Y-101642857D01*
D11*
X100739765Y-100591666D02*
X100751670Y-100603570D01*
X100751670Y-100603570D02*
X100763574Y-100639285D01*
X100763574Y-100639285D02*
X100763574Y-100663094D01*
X100763574Y-100663094D02*
X100751670Y-100698808D01*
X100751670Y-100698808D02*
X100727860Y-100722618D01*
X100727860Y-100722618D02*
X100704050Y-100734523D01*
X100704050Y-100734523D02*
X100656431Y-100746427D01*
X100656431Y-100746427D02*
X100620717Y-100746427D01*
X100620717Y-100746427D02*
X100573098Y-100734523D01*
X100573098Y-100734523D02*
X100549289Y-100722618D01*
X100549289Y-100722618D02*
X100525479Y-100698808D01*
X100525479Y-100698808D02*
X100513574Y-100663094D01*
X100513574Y-100663094D02*
X100513574Y-100639285D01*
X100513574Y-100639285D02*
X100525479Y-100603570D01*
X100525479Y-100603570D02*
X100537384Y-100591666D01*
X100620717Y-100448808D02*
X100608812Y-100472618D01*
X100608812Y-100472618D02*
X100596908Y-100484523D01*
X100596908Y-100484523D02*
X100573098Y-100496427D01*
X100573098Y-100496427D02*
X100561193Y-100496427D01*
X100561193Y-100496427D02*
X100537384Y-100484523D01*
X100537384Y-100484523D02*
X100525479Y-100472618D01*
X100525479Y-100472618D02*
X100513574Y-100448808D01*
X100513574Y-100448808D02*
X100513574Y-100401189D01*
X100513574Y-100401189D02*
X100525479Y-100377380D01*
X100525479Y-100377380D02*
X100537384Y-100365475D01*
X100537384Y-100365475D02*
X100561193Y-100353570D01*
X100561193Y-100353570D02*
X100573098Y-100353570D01*
X100573098Y-100353570D02*
X100596908Y-100365475D01*
X100596908Y-100365475D02*
X100608812Y-100377380D01*
X100608812Y-100377380D02*
X100620717Y-100401189D01*
X100620717Y-100401189D02*
X100620717Y-100448808D01*
X100620717Y-100448808D02*
X100632622Y-100472618D01*
X100632622Y-100472618D02*
X100644527Y-100484523D01*
X100644527Y-100484523D02*
X100668336Y-100496427D01*
X100668336Y-100496427D02*
X100715955Y-100496427D01*
X100715955Y-100496427D02*
X100739765Y-100484523D01*
X100739765Y-100484523D02*
X100751670Y-100472618D01*
X100751670Y-100472618D02*
X100763574Y-100448808D01*
X100763574Y-100448808D02*
X100763574Y-100401189D01*
X100763574Y-100401189D02*
X100751670Y-100377380D01*
X100751670Y-100377380D02*
X100739765Y-100365475D01*
X100739765Y-100365475D02*
X100715955Y-100353570D01*
X100715955Y-100353570D02*
X100668336Y-100353570D01*
X100668336Y-100353570D02*
X100644527Y-100365475D01*
X100644527Y-100365475D02*
X100632622Y-100377380D01*
X100632622Y-100377380D02*
X100620717Y-100401189D01*
%TO.C,C6*%
D16*
X105450000Y-102800000D02*
X106050000Y-102800000D01*
X106050000Y-103100000D01*
X105450000Y-103100000D01*
X105450000Y-102800000D01*
%TO.C,L1*%
X109450000Y-104950000D02*
X109750000Y-104950000D01*
X109750000Y-105550000D01*
X109450000Y-105550000D01*
X109450000Y-104950000D01*
%TO.C,C1*%
X109450000Y-106350000D02*
X109750000Y-106350000D01*
X109750000Y-106950000D01*
X109450000Y-106950000D01*
X109450000Y-106350000D01*
%TO.C,C4*%
X108250000Y-104750000D02*
X108850000Y-104750000D01*
X108850000Y-105050000D01*
X108250000Y-105050000D01*
X108250000Y-104750000D01*
%TO.C,L3*%
X105450000Y-104450000D02*
X106050000Y-104450000D01*
X106050000Y-104750000D01*
X105450000Y-104750000D01*
X105450000Y-104450000D01*
%TO.C,D1*%
D10*
X102580000Y-99950000D02*
G75*
G02*
X102520000Y-99950000I-30000J0D01*
G01*
X102520000Y-99950000D02*
G75*
G02*
X102580000Y-99950000I30000J0D01*
G01*
%TO.C,C24*%
D16*
X108950000Y-104050000D02*
X109550000Y-104050000D01*
X109550000Y-104350000D01*
X108950000Y-104350000D01*
X108950000Y-104050000D01*
%TO.C,R2*%
X101000000Y-101750000D02*
X101600000Y-101750000D01*
X101600000Y-102050000D01*
X101000000Y-102050000D01*
X101000000Y-101750000D01*
%TO.C,C16*%
X101350000Y-100050000D02*
X101850000Y-100050000D01*
X101850000Y-101050000D01*
X101350000Y-101050000D01*
X101350000Y-100050000D01*
%TO.C,C23*%
X105300000Y-99950000D02*
X105600000Y-99950000D01*
X105600000Y-100550000D01*
X105300000Y-100550000D01*
X105300000Y-99950000D01*
%TO.C,U3*%
D10*
X100630000Y-103050000D02*
G75*
G02*
X100570000Y-103050000I-30000J0D01*
G01*
X100570000Y-103050000D02*
G75*
G02*
X100630000Y-103050000I30000J0D01*
G01*
%TO.C,C9*%
D16*
X105450000Y-105150000D02*
X106050000Y-105150000D01*
X106050000Y-105450000D01*
X105450000Y-105450000D01*
X105450000Y-105150000D01*
%TO.C,C5*%
X104600000Y-99950000D02*
X104900000Y-99950000D01*
X104900000Y-100550000D01*
X104600000Y-100550000D01*
X104600000Y-99950000D01*
%TO.C,C11*%
X105440000Y-103540000D02*
X106440000Y-103540000D01*
X106440000Y-104040000D01*
X105440000Y-104040000D01*
X105440000Y-103540000D01*
%TO.C,X1*%
D10*
X109030000Y-105600000D02*
G75*
G02*
X108970000Y-105600000I-30000J0D01*
G01*
X108970000Y-105600000D02*
G75*
G02*
X109030000Y-105600000I30000J0D01*
G01*
%TO.C,C3*%
D16*
X106650000Y-105250000D02*
X106950000Y-105250000D01*
X106950000Y-105850000D01*
X106650000Y-105850000D01*
X106650000Y-105250000D01*
%TO.C,C25*%
X107350000Y-104250000D02*
X107650000Y-104250000D01*
X107650000Y-104850000D01*
X107350000Y-104850000D01*
X107350000Y-104250000D01*
%TO.C,J1*%
X106550000Y-102000000D02*
X106550000Y-101550000D01*
X106550000Y-102000000D02*
X106800000Y-102000000D01*
X106700000Y-101400000D02*
X106550000Y-101550000D01*
X106700000Y-101400000D02*
X106800000Y-101400000D01*
X106800000Y-101400000D02*
X106800000Y-100400000D01*
X106800000Y-102000000D02*
X106800000Y-103000000D01*
X107200000Y-100200000D02*
X107200000Y-100400000D01*
X107200000Y-100200000D02*
X109000000Y-100200000D01*
X107200000Y-100400000D02*
X106800000Y-100400000D01*
X107200000Y-103000000D02*
X106800000Y-103000000D01*
X107200000Y-103200000D02*
X107200000Y-103000000D01*
X107200000Y-103200000D02*
X109000000Y-103200000D01*
X109000000Y-100200000D02*
X109000000Y-100400000D01*
X109000000Y-103200000D02*
X109000000Y-103000000D01*
X109400000Y-100400000D02*
X109000000Y-100400000D01*
X109400000Y-100400000D02*
X109400000Y-103000000D01*
X109400000Y-103000000D02*
X109000000Y-103000000D01*
%TO.C,C8*%
X100400000Y-100050000D02*
X100900000Y-100050000D01*
X100900000Y-101050000D01*
X100400000Y-101050000D01*
X100400000Y-100050000D01*
%TD*%
M02*
