%TF.GenerationSoftware,KiCad,Pcbnew,10.0.0*%
%TF.CreationDate,2026-08-06T18:40:35+02:00*%
%TF.ProjectId,OpenRX-Lite-UFL,4f70656e-5258-42d4-9c69-74652d55464c,rev?*%
%TF.SameCoordinates,Original*%
%TF.FileFunction,Other,User*%
%FSLAX46Y46*%
G04 Gerber Fmt 4.6, Leading zero omitted, Abs format (unit mm)*
G04 Created by KiCad (PCBNEW 10.0.0) date 2026-08-06 18:40:35*
%MOMM*%
%LPD*%
G01*
G04 APERTURE LIST*
%ADD10C,0.050000*%
G04 APERTURE END LIST*
%TO.C,C15*%
D10*
X101750000Y-100200000D02*
X102450000Y-100200000D01*
X102450000Y-101600000D01*
X101750000Y-101600000D01*
X101750000Y-100200000D01*
%TO.C,U1*%
X103850000Y-100420000D02*
X103850000Y-104680000D01*
X103850000Y-104680000D02*
X104200000Y-104680000D01*
X104200000Y-99800000D02*
X104200000Y-100420000D01*
X104200000Y-100420000D02*
X103850000Y-100420000D01*
X104200000Y-104680000D02*
X104200000Y-105300000D01*
X104200000Y-105300000D02*
X104820000Y-105300000D01*
X104820000Y-99450000D02*
X104820000Y-99800000D01*
X104820000Y-99800000D02*
X104200000Y-99800000D01*
X104820000Y-105300000D02*
X104820000Y-105650000D01*
X104820000Y-105650000D02*
X109080000Y-105650000D01*
X109080000Y-99450000D02*
X104820000Y-99450000D01*
X109080000Y-99800000D02*
X109080000Y-99450000D01*
X109080000Y-105300000D02*
X109700000Y-105300000D01*
X109080000Y-105650000D02*
X109080000Y-105300000D01*
X109700000Y-99800000D02*
X109080000Y-99800000D01*
X109700000Y-100420000D02*
X109700000Y-99800000D01*
X109700000Y-104680000D02*
X110050000Y-104680000D01*
X109700000Y-105300000D02*
X109700000Y-104680000D01*
X110050000Y-100420000D02*
X109700000Y-100420000D01*
X110050000Y-104680000D02*
X110050000Y-100420000D01*
%TO.C,C22*%
X108300000Y-105650000D02*
X109700000Y-105650000D01*
X109700000Y-106350000D01*
X108300000Y-106350000D01*
X108300000Y-105650000D01*
%TO.C,C13*%
X101400000Y-105400000D02*
X102800000Y-105400000D01*
X102800000Y-106100000D01*
X101400000Y-106100000D01*
X101400000Y-105400000D01*
%TO.C,U2*%
X100150000Y-100300000D02*
X101750000Y-100300000D01*
X101750000Y-101600000D01*
X100150000Y-101600000D01*
X100150000Y-100300000D01*
%TO.C,C28*%
X102950000Y-102000000D02*
X103650000Y-102000000D01*
X103650000Y-103400000D01*
X102950000Y-103400000D01*
X102950000Y-102000000D01*
%TO.C,L2*%
X106900000Y-105650000D02*
X108300000Y-105650000D01*
X108300000Y-106350000D01*
X106900000Y-106350000D01*
X106900000Y-105650000D01*
%TO.C,L4*%
X103850000Y-105650000D02*
X105350000Y-105650000D01*
X105350000Y-108550000D01*
X103850000Y-108550000D01*
X103850000Y-105650000D01*
%TO.C,R5*%
X102950000Y-103400000D02*
X103650000Y-103400000D01*
X103650000Y-104800000D01*
X102950000Y-104800000D01*
X102950000Y-103400000D01*
%TO.C,AE1*%
X105500000Y-106350000D02*
X109900000Y-106350000D01*
X109900000Y-108350000D01*
X105500000Y-108350000D01*
X105500000Y-106350000D01*
%TO.C,C14*%
X102850000Y-105650000D02*
X103550000Y-105650000D01*
X103550000Y-107050000D01*
X102850000Y-107050000D01*
X102850000Y-105650000D01*
%TO.C,C27*%
X100250000Y-103100000D02*
X101650000Y-103100000D01*
X101650000Y-103800000D01*
X100250000Y-103800000D01*
X100250000Y-103100000D01*
%TO.C,R3*%
X102450000Y-101100000D02*
X103850000Y-101100000D01*
X103850000Y-101800000D01*
X102450000Y-101800000D01*
X102450000Y-101100000D01*
%TO.C,R4*%
X102450000Y-99700000D02*
X103150000Y-99700000D01*
X103150000Y-101100000D01*
X102450000Y-101100000D01*
X102450000Y-99700000D01*
%TO.C,C10*%
X100150000Y-99600000D02*
X101550000Y-99600000D01*
X101550000Y-100300000D01*
X100150000Y-100300000D01*
X100150000Y-99600000D01*
%TO.C,C26*%
X100250000Y-103800000D02*
X101650000Y-103800000D01*
X101650000Y-104500000D01*
X100250000Y-104500000D01*
X100250000Y-103800000D01*
%TO.C,OSC1*%
X100050000Y-106200000D02*
X102850000Y-106200000D01*
X102850000Y-108600000D01*
X100050000Y-108600000D01*
X100050000Y-106200000D01*
%TO.C,C21*%
X105500000Y-105650000D02*
X106900000Y-105650000D01*
X106900000Y-106350000D01*
X105500000Y-106350000D01*
X105500000Y-105650000D01*
%TO.C,C17*%
X102800000Y-104950000D02*
X104200000Y-104950000D01*
X104200000Y-105650000D01*
X102800000Y-105650000D01*
X102800000Y-104950000D01*
%TO.C,C12*%
X103150000Y-99700000D02*
X103850000Y-99700000D01*
X103850000Y-101100000D01*
X103150000Y-101100000D01*
X103150000Y-99700000D01*
%TO.C,C19*%
X100100000Y-104800000D02*
X100800000Y-104800000D01*
X100800000Y-106200000D01*
X100100000Y-106200000D01*
X100100000Y-104800000D01*
%TO.C,C20*%
X102850000Y-107050000D02*
X103550000Y-107050000D01*
X103550000Y-108450000D01*
X102850000Y-108450000D01*
X102850000Y-107050000D01*
%TD*%
M02*
