%TF.GenerationSoftware,KiCad,Pcbnew,10.0.0*%
%TF.CreationDate,2026-08-06T18:40:35+02:00*%
%TF.ProjectId,OpenRX-Lite-UFL,4f70656e-5258-42d4-9c69-74652d55464c,rev?*%
%TF.SameCoordinates,Original*%
%TF.FileFunction,Soldermask,Bot*%
%TF.FilePolarity,Negative*%
%FSLAX46Y46*%
G04 Gerber Fmt 4.6, Leading zero omitted, Abs format (unit mm)*
G04 Created by KiCad (PCBNEW 10.0.0) date 2026-08-06 18:40:35*
%MOMM*%
%LPD*%
G01*
G04 APERTURE LIST*
G04 Aperture macros list*
%AMRoundRect*
0 Rectangle with rounded corners*
0 $1 Rounding radius*
0 $2 $3 $4 $5 $6 $7 $8 $9 X,Y pos of 4 corners*
0 Add a 4 corners polygon primitive as box body*
4,1,4,$2,$3,$4,$5,$6,$7,$8,$9,$2,$3,0*
0 Add four circle primitives for the rounded corners*
1,1,$1+$1,$2,$3*
1,1,$1+$1,$4,$5*
1,1,$1+$1,$6,$7*
1,1,$1+$1,$8,$9*
0 Add four rect primitives between the rounded corners*
20,1,$1+$1,$2,$3,$4,$5,0*
20,1,$1+$1,$4,$5,$6,$7,0*
20,1,$1+$1,$6,$7,$8,$9,0*
20,1,$1+$1,$8,$9,$2,$3,0*%
%AMRotRect*
0 Rectangle, with rotation*
0 The origin of the aperture is its center*
0 $1 length*
0 $2 width*
0 $3 Rotation angle, in degrees counterclockwise*
0 Add horizontal line*
21,1,$1,$2,0,0,$3*%
%AMFreePoly0*
4,1,15,0.030697,0.149468,0.210697,0.009468,0.229614,-0.023798,0.230000,-0.030000,0.230000,-0.110000,0.215355,-0.145355,0.180000,-0.160000,-0.180000,-0.160000,-0.215355,-0.145355,-0.230000,-0.110000,-0.230000,0.110000,-0.215355,0.145355,-0.180000,0.160000,0.000000,0.160000,0.030697,0.149468,0.030697,0.149468,$1*%
%AMFreePoly1*
4,1,15,0.215355,0.155355,0.230000,0.120000,0.230000,0.040000,0.215355,0.004645,0.210697,0.000532,0.030697,-0.139468,0.000000,-0.150000,-0.180000,-0.150000,-0.215355,-0.135355,-0.230000,-0.100000,-0.230000,0.120000,-0.215355,0.155355,-0.180000,0.170000,0.180000,0.170000,0.215355,0.155355,0.215355,0.155355,$1*%
%AMFreePoly2*
4,1,15,0.215355,0.155355,0.230000,0.120000,0.230000,-0.100000,0.215355,-0.135355,0.180000,-0.150000,0.000000,-0.150000,-0.030697,-0.139468,-0.210697,0.000532,-0.229614,0.033798,-0.230000,0.040000,-0.230000,0.120000,-0.215355,0.155355,-0.180000,0.170000,0.180000,0.170000,0.215355,0.155355,0.215355,0.155355,$1*%
%AMFreePoly3*
4,1,15,0.215355,0.145355,0.230000,0.110000,0.230000,-0.110000,0.215355,-0.145355,0.180000,-0.160000,-0.180000,-0.160000,-0.215355,-0.145355,-0.230000,-0.110000,-0.230000,-0.030000,-0.215355,0.005355,-0.210697,0.009468,-0.030697,0.149468,0.000000,0.160000,0.180000,0.160000,0.215355,0.145355,0.215355,0.145355,$1*%
G04 Aperture macros list end*
%ADD10C,0.250000*%
%ADD11C,0.600000*%
%ADD12RoundRect,0.475000X-0.475000X-1.775000X0.475000X-1.775000X0.475000X1.775000X-0.475000X1.775000X0*%
%ADD13RoundRect,0.100000X-0.100000X0.130000X-0.100000X-0.130000X0.100000X-0.130000X0.100000X0.130000X0*%
%ADD14RoundRect,0.062500X0.062500X-0.337500X0.062500X0.337500X-0.062500X0.337500X-0.062500X-0.337500X0*%
%ADD15RoundRect,0.062500X0.337500X-0.062500X0.337500X0.062500X-0.337500X0.062500X-0.337500X-0.062500X0*%
%ADD16R,3.000000X3.000000*%
%ADD17RoundRect,0.100000X-0.130000X-0.100000X0.130000X-0.100000X0.130000X0.100000X-0.130000X0.100000X0*%
%ADD18RoundRect,0.100000X0.130000X0.100000X-0.130000X0.100000X-0.130000X-0.100000X0.130000X-0.100000X0*%
%ADD19FreePoly0,180.000000*%
%ADD20FreePoly1,180.000000*%
%ADD21FreePoly2,180.000000*%
%ADD22FreePoly3,180.000000*%
%ADD23RotRect,0.480000X0.480000X135.000000*%
%ADD24RoundRect,0.100000X0.100000X-0.130000X0.100000X0.130000X-0.100000X0.130000X-0.100000X-0.130000X0*%
%ADD25RoundRect,0.168750X0.431250X-0.168750X0.431250X0.168750X-0.431250X0.168750X-0.431250X-0.168750X0*%
%ADD26R,1.000000X1.750000*%
%ADD27R,0.700000X0.900000*%
G04 APERTURE END LIST*
D10*
G36*
X102734531Y-102324242D02*
G01*
X102763510Y-102340797D01*
X102786308Y-102365078D01*
X102799989Y-102394494D01*
X102804787Y-102430678D01*
X102804787Y-102695987D01*
X101820000Y-102900724D01*
X101820000Y-102736531D01*
X102230327Y-102651229D01*
X102230327Y-102635293D01*
X101820000Y-102629370D01*
X101820000Y-102560371D01*
X102398183Y-102560371D01*
X102398183Y-102616364D01*
X102636931Y-102566660D01*
X102636931Y-102509874D01*
X102631374Y-102497418D01*
X102617147Y-102494181D01*
X102420226Y-102535092D01*
X102404656Y-102544862D01*
X102398183Y-102560371D01*
X101820000Y-102560371D01*
X101820000Y-102461086D01*
X102253836Y-102466948D01*
X102271482Y-102443379D01*
X102301321Y-102413744D01*
X102334089Y-102393348D01*
X102370462Y-102381280D01*
X102662637Y-102320525D01*
X102701498Y-102317331D01*
X102734531Y-102324242D01*
G37*
G36*
X102453382Y-101860737D02*
G01*
X102416138Y-101873007D01*
X102382979Y-101893518D01*
X102353182Y-101923080D01*
X102313920Y-101969792D01*
X102274658Y-101939689D01*
X102245485Y-101922867D01*
X102212236Y-101915818D01*
X102173114Y-101918989D01*
X101820000Y-101992384D01*
X101820000Y-102156638D01*
X102214452Y-102074633D01*
X102225443Y-102077198D01*
X102230327Y-102086967D01*
X102230327Y-102131481D01*
X102225137Y-102144548D01*
X102213536Y-102151386D01*
X101820000Y-102233208D01*
X101820000Y-102397400D01*
X102173968Y-102323822D01*
X102211601Y-102311585D01*
X102245005Y-102291455D01*
X102274902Y-102262761D01*
X102314530Y-102215928D01*
X102353487Y-102246092D01*
X102382366Y-102262164D01*
X102415367Y-102268828D01*
X102454237Y-102265570D01*
X102804787Y-102192663D01*
X102804787Y-102028471D01*
X102415280Y-102109438D01*
X102402946Y-102107850D01*
X102398183Y-102097409D01*
X102398183Y-102052896D01*
X102403312Y-102040500D01*
X102416135Y-102032684D01*
X102804787Y-101951901D01*
X102804787Y-101787648D01*
X102453382Y-101860737D01*
G37*
D11*
%TO.C,TP3*%
X105770000Y-109800000D03*
X105770000Y-112200000D03*
D12*
X106270000Y-111000000D03*
D11*
X106770000Y-109800000D03*
X106770000Y-112200000D03*
%TD*%
%TO.C,TP4*%
X108310000Y-109800000D03*
X108310000Y-112200000D03*
D12*
X108810000Y-111000000D03*
D11*
X109310000Y-109800000D03*
X109310000Y-112200000D03*
%TD*%
%TO.C,TP2*%
X103224048Y-109800000D03*
X103224048Y-112200000D03*
D12*
X103724048Y-111000000D03*
D11*
X104224048Y-109800000D03*
X104224048Y-112200000D03*
%TD*%
%TO.C,TP1*%
X100684048Y-109800000D03*
X100684048Y-112200000D03*
D12*
X101184048Y-111000000D03*
D11*
X101684048Y-109800000D03*
X101684048Y-112200000D03*
%TD*%
D13*
%TO.C,C15*%
X102100000Y-100580000D03*
X102100000Y-101220000D03*
%TD*%
D14*
%TO.C,U1*%
X108700000Y-105000000D03*
X108200000Y-105000000D03*
X107700000Y-105000000D03*
X107200000Y-105000000D03*
X106700000Y-105000000D03*
X106200000Y-105000000D03*
X105700000Y-105000000D03*
X105200000Y-105000000D03*
D15*
X104500000Y-104300000D03*
X104500000Y-103800000D03*
X104500000Y-103300000D03*
X104500000Y-102800000D03*
X104500000Y-102300000D03*
X104500000Y-101800000D03*
X104500000Y-101300000D03*
X104500000Y-100800000D03*
D14*
X105200000Y-100100000D03*
X105700000Y-100100000D03*
X106200000Y-100100000D03*
X106700000Y-100100000D03*
X107200000Y-100100000D03*
X107700000Y-100100000D03*
X108200000Y-100100000D03*
X108700000Y-100100000D03*
D15*
X109400000Y-100800000D03*
X109400000Y-101300000D03*
X109400000Y-101800000D03*
X109400000Y-102300000D03*
X109400000Y-102800000D03*
X109400000Y-103300000D03*
X109400000Y-103800000D03*
X109400000Y-104300000D03*
D16*
X106950000Y-102550000D03*
%TD*%
D17*
%TO.C,C22*%
X108680000Y-106000000D03*
X109320000Y-106000000D03*
%TD*%
D18*
%TO.C,C13*%
X102420000Y-105750000D03*
X101780000Y-105750000D03*
%TD*%
D19*
%TO.C,U2*%
X101380000Y-100630000D03*
D20*
X101380000Y-101270000D03*
D21*
X100520000Y-101270000D03*
D22*
X100520000Y-100630000D03*
D23*
X100950000Y-100950000D03*
%TD*%
D24*
%TO.C,C28*%
X103300000Y-103020000D03*
X103300000Y-102380000D03*
%TD*%
D17*
%TO.C,L2*%
X107280000Y-106000000D03*
X107920000Y-106000000D03*
%TD*%
D25*
%TO.C,L4*%
X104600000Y-108062500D03*
X104600000Y-106137500D03*
%TD*%
D13*
%TO.C,R5*%
X103300000Y-103780000D03*
X103300000Y-104420000D03*
%TD*%
D26*
%TO.C,AE1*%
X106120000Y-107350000D03*
X109280000Y-107350000D03*
%TD*%
D24*
%TO.C,C14*%
X103200000Y-106670000D03*
X103200000Y-106030000D03*
%TD*%
D17*
%TO.C,C27*%
X100630000Y-103450000D03*
X101270000Y-103450000D03*
%TD*%
%TO.C,R3*%
X102830000Y-101450000D03*
X103470000Y-101450000D03*
%TD*%
D13*
%TO.C,R4*%
X102800000Y-100080000D03*
X102800000Y-100720000D03*
%TD*%
D17*
%TO.C,C10*%
X100530000Y-99950000D03*
X101170000Y-99950000D03*
%TD*%
D18*
%TO.C,C26*%
X101270000Y-104150000D03*
X100630000Y-104150000D03*
%TD*%
D27*
%TO.C,OSC1*%
X102350000Y-108000000D03*
X100550000Y-108000000D03*
X100550000Y-106800000D03*
X102350000Y-106800000D03*
%TD*%
D18*
%TO.C,C21*%
X106520000Y-106000000D03*
X105880000Y-106000000D03*
%TD*%
%TO.C,C17*%
X103820000Y-105300000D03*
X103180000Y-105300000D03*
%TD*%
D13*
%TO.C,C12*%
X103500000Y-100080000D03*
X103500000Y-100720000D03*
%TD*%
D24*
%TO.C,C19*%
X100450000Y-105820000D03*
X100450000Y-105180000D03*
%TD*%
D13*
%TO.C,C20*%
X103200000Y-107430000D03*
X103200000Y-108070000D03*
%TD*%
M02*
